<?xml version="1.0" encoding="utf-8"?>
<!-- Generator: Adobe Illustrator 25.2.0, SVG Export Plug-In . SVG Version: 6.00 Build 0)  -->
<svg version="1.1" id="Layer_1" xmlns="http://www.w3.org/2000/svg" xmlns:xlink="http://www.w3.org/1999/xlink" x="0px" y="0px"
	 viewBox="0 0 1080 1080" style="enable-background:new 0 0 1080 1080;" xml:space="preserve">
<style type="text/css">
	.st0{fill:#EBEBEB;}
	.st1{fill:#F5F5F5;}
	.st2{fill:#E0E0E0;}
	.st3{fill:#FFFFFF;}
	.st4{fill:#263238;}
	.st5{fill:#009688;}
	.st6{fill:#455A64;}
</style>
<g id="freepik--background-complete--inject-75">
	<path class="st0" d="M944.42,981.05c-9.68-8.27-22.13-12.68-34.3-16.59c-87.89-28.42-164.09-22.01-264.04-41.12l-326.99,35.71
		c18.57,26.42,48.63,42.4,80.92,43.04c20.95,0.24,43.86-5.68,61.57,5.49c11.78,7.43,18.22,20.8,28.04,30.67
		c16.04,16.09,40.04,21.77,62.73,21.55c22.69-0.22,45.09-5.18,67.73-7.06c54.07-4.5,107.77,9.02,161.67,15.26
		c53.9,6.24,112.49,3.97,156.54-27.67c8.9-6.41,17.47-14.51,19.81-25.35C960.87,1002.49,954.19,989.42,944.42,981.05z"/>
	<polygon class="st1" points="935.15,154.16 817.71,154.16 817.71,8.1 907.53,8.37 935.15,38.34 	"/>
	<path class="st2" d="M852.83,91.44c-1.87-1.34-3.59-2.88-5.13-4.6c-3.02-2.95-7.26-7.26-11.64-11.81l-0.48-0.51l0.48-0.53l0,0
		c4.48-4.84,8.56-8.93,11.59-11.93c1.54-1.72,3.26-3.27,5.13-4.62c-1.25,1.94-2.7,3.74-4.33,5.37c-2.83,3.19-6.82,7.5-11.27,12.22
		l0,0V73.9c4.48,4.67,8.47,8.95,11.3,12.1C850.13,87.64,851.59,89.46,852.83,91.44z"/>
	<path class="st2" d="M899.95,57.4c1.89,1.33,3.61,2.87,5.15,4.6c3.02,2.95,7.14,7.11,11.61,11.81l0.51,0.51l-0.51,0.53l0,0
		c-4.45,4.84-8.56,8.93-11.59,11.93c-1.53,1.73-3.25,3.28-5.13,4.62c1.25-1.95,2.71-3.75,4.35-5.37c2.83-3.19,6.8-7.5,11.27-12.22
		l0,0v1.04c-4.48-4.67-8.47-8.95-11.3-12.1C902.68,61.14,901.21,59.34,899.95,57.4z"/>
	<path class="st2" d="M862.12,96.81c-0.36-0.22,5.73-10.84,13.6-23.73s14.51-23.13,14.93-22.91c0.41,0.22-5.73,10.84-13.62,23.71
		S862.46,97.03,862.12,96.81z"/>
	<path class="st2" d="M907.53,8.37v24.48c-0.01,3.47,2.79,6.3,6.26,6.32c0.07,0,0.15,0,0.22,0l21.24-0.8L907.53,8.37z"/>
	<rect x="803.99" y="107.04" class="st2" width="52.08" height="31.67"/>
	<path class="st3" d="M818.79,129.34l1.35-1.6c0.73,1.18,2.02,1.91,3.41,1.94c1.84,0,2.81-1.11,2.81-3.31v-9.17h-5.93v-2.03h8.22
		v11.08c0,3.65-1.77,5.44-5.1,5.44C821.68,131.75,819.89,130.87,818.79,129.34z"/>
	<path class="st3" d="M831.93,129.54l0.87-1.81c1.52,1.25,3.43,1.91,5.39,1.89c2.83,0,4.04-1.09,4.04-2.42
		c0-3.99-9.89-1.48-9.89-7.55c0-2.42,1.96-4.67,6.27-4.67c1.85-0.04,3.68,0.47,5.25,1.45l-0.77,1.86c-1.34-0.85-2.89-1.31-4.48-1.33
		c-2.78,0-3.99,1.16-3.99,2.59c0,3.99,9.92,1.5,9.92,7.5c0,2.42-2.01,4.64-6.34,4.64C835.92,131.73,833.7,130.97,831.93,129.54z"/>
	<rect x="693" y="569.28" class="st3" width="350.98" height="204.51"/>
	<path class="st1" d="M1045.17,775H691.79V568.07h353.38V775z"/>
	<path class="st2" d="M720.44,763.51c-0.17,0-0.31-41.83-0.31-93.4c0-51.57,0.15-93.4,0.31-93.4c0.17,0,0.34,41.8,0.34,93.4
		C720.77,721.7,720.65,763.51,720.44,763.51z"/>
	<path class="st2" d="M713.23,584.57c-3.86,0.45-7.75,0.45-11.61,0C705.47,584.11,709.37,584.11,713.23,584.57z"/>
	<path class="st2" d="M713.23,596.88c-3.86,0.45-7.75,0.45-11.61,0C705.47,596.43,709.37,596.43,713.23,596.88z"/>
	<path class="st2" d="M713.23,609.19c-3.86,0.45-7.75,0.45-11.61,0C705.47,608.74,709.37,608.74,713.23,609.19z"/>
	<path class="st2" d="M713.23,621.51c-3.86,0.45-7.75,0.45-11.61,0C705.47,621.05,709.37,621.05,713.23,621.51z"/>
	<path class="st2" d="M713.23,633.82c-3.86,0.45-7.75,0.45-11.61,0C705.47,633.37,709.37,633.37,713.23,633.82z"/>
	<path class="st2" d="M713.23,646.11c-3.86,0.45-7.75,0.45-11.61,0C705.47,645.69,709.37,645.69,713.23,646.11z"/>
	<path class="st2" d="M713.23,658.42c-3.86,0.45-7.75,0.45-11.61,0C705.47,657.97,709.37,657.97,713.23,658.42z"/>
	<path class="st2" d="M713.23,670.73c-3.86,0.45-7.75,0.45-11.61,0C705.47,670.28,709.37,670.28,713.23,670.73z"/>
	<path class="st2" d="M713.23,683.05c-3.86,0.45-7.75,0.45-11.61,0C705.47,682.6,709.37,682.6,713.23,683.05z"/>
	<path class="st2" d="M713.23,695.36c-3.86,0.45-7.75,0.45-11.61,0C705.47,694.91,709.37,694.91,713.23,695.36z"/>
	<path class="st2" d="M713.23,707.7c-3.86,0.42-7.75,0.42-11.61,0C705.47,707.25,709.37,707.25,713.23,707.7z"/>
	<path class="st2" d="M713.23,719.96c-3.86,0.45-7.75,0.45-11.61,0C705.47,719.51,709.37,719.51,713.23,719.96z"/>
	<path class="st2" d="M713.23,732.28c-3.86,0.45-7.75,0.45-11.61,0C705.47,731.82,709.37,731.82,713.23,732.28z"/>
	<path class="st2" d="M713.23,744.59c-3.86,0.45-7.75,0.45-11.61,0C705.47,744.14,709.37,744.14,713.23,744.59z"/>
	<path class="st2" d="M713.23,756.9c-3.86,0.45-7.75,0.45-11.61,0C705.47,756.45,709.37,756.45,713.23,756.9z"/>
	<path class="st2" d="M759.82,583.84c0,0.19-6.75,0.34-15.07,0.34c-8.32,0-15.1-0.15-15.1-0.34s6.75-0.34,15.1-0.34
		S759.82,583.67,759.82,583.84z"/>
	<path class="st2" d="M759.82,756.9c0,0.17-6.75,0.34-15.07,0.34c-8.32,0-15.1-0.17-15.1-0.34c0-0.17,6.75-0.34,15.1-0.34
		S759.82,756.71,759.82,756.9z"/>
	<path class="st2" d="M801.84,609.19c0,0.19-12.65,0.34-28.23,0.34c-15.58,0-28.23-0.15-28.23-0.34c0-0.19,12.65-0.34,28.23-0.34
		C789.19,608.85,801.84,609,801.84,609.19z"/>
	<path class="st2" d="M867.08,609.19c0,0.19-12.63,0.34-28.21,0.34s-28.23-0.15-28.23-0.34c0-0.19,12.65-0.34,28.23-0.34
		S867.08,609,867.08,609.19z"/>
	<path class="st2" d="M842.14,621.51c0,0.17-18.6,0.34-41.58,0.34c-22.98,0-41.58-0.17-41.58-0.34c0-0.17,18.63-0.34,41.58-0.34
		C823.51,621.17,842.14,621.31,842.14,621.51z"/>
	<path class="st2" d="M842.14,633.82c0,0.17-18.6,0.34-41.58,0.34c-22.98,0-41.58-0.17-41.58-0.34s18.63-0.34,41.58-0.34
		C823.51,633.48,842.14,633.63,842.14,633.82z"/>
	<path class="st2" d="M899.4,670.73c0,0.19-18.63,0.34-41.58,0.34s-41.58-0.15-41.58-0.34c0-0.19,18.6-0.34,41.58-0.34
		C880.8,670.4,899.4,670.54,899.4,670.73z"/>
	<path class="st2" d="M874.7,646.11c0,0.19-18.63,0.34-41.58,0.34s-41.61-0.15-41.61-0.34c0-0.19,18.63-0.31,41.61-0.31
		C856.1,645.79,874.7,645.94,874.7,646.11z"/>
	<path class="st2" d="M976.35,646.11c0,0.19-18.63,0.34-41.58,0.34c-22.96,0-41.61-0.15-41.61-0.34c0-0.19,18.63-0.31,41.61-0.31
		C957.75,645.79,976.35,645.94,976.35,646.11z"/>
	<path class="st2" d="M940.98,621.51c0,0.17-18.6,0.34-41.58,0.34s-41.58-0.17-41.58-0.34c0-0.17,18.63-0.34,41.58-0.34
		S940.98,621.31,940.98,621.51z"/>
	<path class="st2" d="M998.46,670.73c0,0.19-18.63,0.34-41.61,0.34c-22.98,0-41.58-0.15-41.58-0.34c0-0.19,18.63-0.34,41.58-0.34
		C979.81,670.4,998.46,670.54,998.46,670.73z"/>
	<path class="st2" d="M986.97,633.82c0,0.17-28.91,0.34-64.57,0.34c-35.66,0-64.59-0.17-64.59-0.34s28.91-0.34,64.59-0.34
		S986.97,633.63,986.97,633.82z"/>
	<path class="st2" d="M759.82,596.88c0,0.19-6.75,0.34-15.07,0.34c-8.32,0-15.1-0.15-15.1-0.34c0-0.19,6.75-0.34,15.1-0.34
		S759.82,596.71,759.82,596.88z"/>
	<path class="st2" d="M759.82,744.59c0,0.19-6.75,0.34-15.07,0.34c-8.32,0-15.1-0.15-15.1-0.34c0-0.19,6.75-0.34,15.1-0.34
		S759.82,744.39,759.82,744.59z"/>
	<path class="st2" d="M774.77,646.11c0,0.19-6.75,0.34-15.1,0.34c-8.35,0-15.07-0.15-15.07-0.34c0-0.19,6.75-0.31,15.07-0.31
		C767.99,645.79,774.77,645.94,774.77,646.11z"/>
	<path class="st2" d="M1016.53,646.11c0,0.19-6.75,0.34-15.07,0.34c-8.32,0-15.1-0.15-15.1-0.34c0-0.19,6.75-0.31,15.1-0.31
		C1009.81,645.79,1016.53,645.94,1016.53,646.11z"/>
	<path class="st2" d="M801.84,695.29c0,0.17-12.65,0.34-28.23,0.34c-15.58,0-28.23-0.17-28.23-0.34c0-0.17,12.65-0.34,28.23-0.34
		C789.19,694.95,801.84,695.09,801.84,695.29z"/>
	<path class="st2" d="M867.08,695.29c0,0.17-12.63,0.34-28.21,0.34s-28.23-0.17-28.23-0.34c0-0.17,12.65-0.34,28.23-0.34
		S867.08,695.09,867.08,695.29z"/>
	<path class="st2" d="M842.14,707.7c0,0.17-18.6,0.31-41.58,0.31c-22.98,0-41.58-0.15-41.58-0.31c0-0.17,18.63-0.34,41.58-0.34
		C823.51,707.36,842.14,707.41,842.14,707.7z"/>
	<path class="st2" d="M842.14,719.79c0,0.19-18.6,0.34-41.58,0.34c-22.98,0-41.58-0.15-41.58-0.34c0-0.19,18.63-0.34,41.58-0.34
		C823.51,719.45,842.14,719.79,842.14,719.79z"/>
	<path class="st2" d="M874.7,732.2c0,0.19-18.63,0.34-41.58,0.34s-41.61-0.15-41.61-0.34s18.63-0.34,41.61-0.34
		C856.1,731.86,874.7,732.01,874.7,732.2z"/>
	<path class="st2" d="M976.35,732.2c0,0.19-18.63,0.34-41.58,0.34c-22.96,0-41.61-0.15-41.61-0.34s18.63-0.34,41.61-0.34
		C957.75,731.86,976.35,732.01,976.35,732.2z"/>
	<path class="st2" d="M940.98,707.7c0,0.17-18.6,0.31-41.58,0.31s-41.58-0.31-41.58-0.31s18.63-0.34,41.58-0.34
		S940.98,707.41,940.98,707.7z"/>
	<path class="st2" d="M986.97,719.79c0,0.19-28.91,0.34-64.57,0.34c-35.66,0-64.59-0.15-64.59-0.34c0-0.19,28.91-0.34,64.59-0.34
		S986.97,719.79,986.97,719.79z"/>
	<path class="st2" d="M774.77,732.2c0,0.19-6.75,0.34-15.1,0.34c-8.35,0-15.07-0.15-15.07-0.34s6.75-0.34,15.07-0.34
		C767.99,731.86,774.77,732.01,774.77,732.2z"/>
	<path class="st2" d="M1016.53,732.2c0,0.19-6.75,0.34-15.07,0.34c-8.32,0-15.1-0.15-15.1-0.34s6.75-0.34,15.1-0.34
		C1009.81,731.86,1016.53,732.01,1016.53,732.2z"/>
	<rect x="11.11" y="687.74" class="st3" width="228.36" height="133.05"/>
	<path class="st1" d="M240.25,821.59H10.44V686.94h229.93L240.25,821.59z"/>
	<path class="st2" d="M28.97,814.14c0,0-0.17-27.24-0.17-60.82c0-33.58,0-60.77,0.22-60.77c0.22,0,0.22,27.21,0.22,60.77
		C29.23,786.87,29.09,814.14,28.97,814.14z"/>
	<path class="st2" d="M24.27,697.68c-1.25,0.22-2.51,0.29-3.77,0.22c-1.27,0.07-2.54,0-3.8-0.22c1.25-0.22,2.53-0.29,3.8-0.22
		C21.76,697.39,23.03,697.47,24.27,697.68z"/>
	<path class="st2" d="M24.27,705.69c-1.25,0.22-2.51,0.29-3.77,0.22c-1.27,0.07-2.54,0-3.8-0.22c1.25-0.22,2.53-0.29,3.8-0.22
		C21.76,705.4,23.03,705.47,24.27,705.69z"/>
	<path class="st2" d="M24.27,713.7c-1.25,0.22-2.51,0.29-3.77,0.22c-1.27,0.07-2.54,0-3.8-0.22c1.25-0.22,2.53-0.29,3.8-0.22
		C21.76,713.41,23.03,713.48,24.27,713.7z"/>
	<path class="st2" d="M24.27,721.7c-1.25,0.22-2.51,0.29-3.77,0.22c-1.27,0.07-2.54,0-3.8-0.22c1.25-0.22,2.53-0.29,3.8-0.22
		C21.76,721.41,23.03,721.49,24.27,721.7z"/>
	<path class="st2" d="M24.27,729.71c-1.25,0.22-2.51,0.29-3.77,0.22c-1.27,0.07-2.54,0-3.8-0.22c1.25-0.22,2.53-0.29,3.8-0.22
		C21.76,729.42,23.03,729.49,24.27,729.71z"/>
	<path class="st2" d="M24.27,737.72c-1.24,0.23-2.51,0.31-3.77,0.24c-1.27,0.07-2.55-0.01-3.8-0.24c1.25-0.22,2.53-0.29,3.8-0.22
		C21.76,737.43,23.03,737.5,24.27,737.72z"/>
	<path class="st2" d="M24.27,745.75c-1.25,0.22-2.51,0.29-3.77,0.22c-1.27,0.07-2.54,0-3.8-0.22c1.25-0.23,2.53-0.31,3.8-0.24
		C21.76,745.44,23.03,745.52,24.27,745.75z"/>
	<path class="st2" d="M24.27,753.66c-1.25,0.22-2.51,0.29-3.77,0.22c-1.27,0.07-2.54,0-3.8-0.22c1.25-0.22,2.53-0.29,3.8-0.22
		C21.76,753.37,23.03,753.44,24.27,753.66z"/>
	<path class="st2" d="M24.27,761.76c-1.25,0.22-2.51,0.29-3.77,0.22c-1.27,0.07-2.54,0-3.8-0.22c1.25-0.22,2.53-0.29,3.8-0.22
		C21.76,761.47,23.03,761.55,24.27,761.76z"/>
	<path class="st2" d="M24.27,769.77c-1.25,0.22-2.51,0.29-3.77,0.22c-1.27,0.07-2.54,0-3.8-0.22c1.25-0.22,2.53-0.29,3.8-0.22
		C21.76,769.48,23.03,769.55,24.27,769.77z"/>
	<path class="st2" d="M24.27,777.85c-1.25,0.22-2.51,0.29-3.77,0.22c-1.27,0.07-2.54,0-3.8-0.22c1.25-0.22,2.53-0.29,3.8-0.22
		C21.76,777.56,23.03,777.63,24.27,777.85z"/>
	<path class="st2" d="M24.27,785.79c-1.25,0.22-2.51,0.29-3.77,0.22c-1.27,0.07-2.54,0-3.8-0.22c1.25-0.22,2.53-0.29,3.8-0.22
		C21.76,785.5,23.03,785.57,24.27,785.79z"/>
	<path class="st2" d="M24.27,793.79c-1.25,0.22-2.51,0.29-3.77,0.22c-1.27,0.07-2.54,0-3.8-0.22c1.25-0.22,2.53-0.29,3.8-0.22
		C21.76,793.5,23.03,793.58,24.27,793.79z"/>
	<path class="st2" d="M24.27,801.8c-1.25,0.22-2.51,0.29-3.77,0.22c-1.27,0.07-2.54,0-3.8-0.22c1.25-0.22,2.53-0.29,3.8-0.22
		C21.76,801.51,23.03,801.58,24.27,801.8z"/>
	<path class="st2" d="M24.27,809.81c-1.25,0.22-2.51,0.29-3.77,0.22c-1.27,0.07-2.54,0-3.8-0.22c1.25-0.22,2.53-0.29,3.8-0.22
		C21.76,809.52,23.03,809.59,24.27,809.81z"/>
	<path class="st2" d="M54.58,697.22c0,0.12-4.4,0.22-9.82,0.22s-9.8,0-9.8-0.22s4.38-0.22,9.8-0.22S54.58,697.1,54.58,697.22z"/>
	<path class="st2" d="M54.58,809.81c0,0.12-4.4,0.22-9.82,0.22s-9.8,0-9.8-0.22c0-0.22,4.38-0.22,9.8-0.22
		S54.58,809.69,54.58,809.81z"/>
	<path class="st2" d="M82.02,713.7c0,0-8.22,0.22-18.36,0.22s-18.36,0-18.36-0.22s8.22-0.22,18.36-0.22S82.02,713.58,82.02,713.7z"
		/>
	<path class="st2" d="M124.37,713.7c0,0-8.22,0.22-18.36,0.22s-18.36,0-18.36-0.22s8.22-0.22,18.36-0.22S124.37,713.58,124.37,713.7
		z"/>
	<path class="st2" d="M108.14,721.7c0,0-12.1,0.22-27.05,0.22s-27.07,0-27.07-0.22s12.1-0.22,27.07-0.22S108.14,721.58,108.14,721.7
		z"/>
	<path class="st2" d="M108.14,729.71c0,0-12.1,0.22-27.05,0.22s-27.07,0-27.07-0.22s12.1-0.22,27.07-0.22
		S108.14,729.59,108.14,729.71z"/>
	<path class="st2" d="M145.4,753.66c0,0-12.1,0.22-27.05,0.22s-27.07,0-27.07-0.22s12.1-0.22,27.07-0.22
		C133.32,753.44,145.4,753.66,145.4,753.66z"/>
	<path class="st2" d="M129.33,737.72c0,0-12.1,0.24-27.07,0.24s-27.05-0.12-27.05-0.24c0-0.12,12.1-0.22,27.05-0.22
		S129.33,737.6,129.33,737.72z"/>
	<path class="st2" d="M195.47,737.72c0,0-12.1,0.24-27.07,0.24c-14.97,0-27.07-0.12-27.07-0.24c0-0.12,12.1-0.22,27.07-0.22
		C183.38,737.5,195.47,737.6,195.47,737.72z"/>
	<path class="st2" d="M172.47,721.7c0,0-12.1,0.22-27.07,0.22c-14.97,0-27.05,0-27.05-0.22s12.1-0.22,27.05-0.22
		C160.35,721.49,172.47,721.58,172.47,721.7z"/>
	<path class="st2" d="M209.84,753.66c0,0-12.1,0.22-27.05,0.22c-14.95,0-27.07,0-27.07-0.22s12.1-0.22,27.07-0.22
		S209.84,753.66,209.84,753.66z"/>
	<path class="st2" d="M202.39,729.71c0,0-18.82,0.22-42.02,0.22s-42.07-0.1-42.07-0.22s18.8-0.22,42.02-0.22
		S202.39,729.59,202.39,729.71z"/>
	<path class="st2" d="M54.58,705.69c0,0.12-4.4,0.22-9.82,0.22s-9.8,0-9.8-0.22s4.38-0.22,9.8-0.22S54.58,705.57,54.58,705.69z"/>
	<path class="st2" d="M54.58,801.8c0,0.12-4.4,0.22-9.82,0.22s-9.8,0-9.8-0.22c0-0.22,4.38-0.22,9.8-0.22S54.58,801.68,54.58,801.8z
		"/>
	<path class="st2" d="M64.31,737.72c0,0-4.4,0.24-9.82,0.24s-9.68-0.12-9.68-0.24c0-0.12,4.38-0.22,9.68-0.22
		S64.31,737.6,64.31,737.72z"/>
	<path class="st2" d="M221.62,737.72c0,0-4.4,0.24-9.82,0.24c-5.42,0-9.82-0.12-9.82-0.24c0-0.12,4.4-0.22,9.82-0.22
		C217.22,737.5,221.62,737.6,221.62,737.72z"/>
	<path class="st2" d="M82.02,769.72c0,0.12-8.22,0.22-18.36,0.22s-18.36,0-18.36-0.22s8.22-0.22,18.36-0.22
		S82.02,769.6,82.02,769.72z"/>
	<path class="st2" d="M124.37,769.72c0,0.12-8.22,0.22-18.36,0.22s-18.36,0-18.36-0.22s8.22-0.22,18.36-0.22
		S124.37,769.6,124.37,769.72z"/>
	<path class="st2" d="M108.14,777.85c0,0.12-12.1,0.22-27.05,0.22s-27.07,0-27.07-0.22c0-0.22,12.1-0.22,27.07-0.22
		S108.14,777.61,108.14,777.85z"/>
	<path class="st2" d="M108.14,785.74c0,0.12-12.1,0.22-27.05,0.22s-27.07,0-27.07-0.22s12.1-0.22,27.07-0.22
		S108.14,785.62,108.14,785.74z"/>
	<path class="st2" d="M129.33,793.74c0,0.12-12.1,0.22-27.07,0.22s-27.05,0-27.05-0.22s12.1-0.22,27.05-0.22
		S129.33,793.62,129.33,793.74z"/>
	<path class="st2" d="M195.47,793.74c0,0.12-12.1,0.22-27.07,0.22c-14.97,0-27.07,0-27.07-0.22s12.1-0.22,27.07-0.22
		C183.38,793.53,195.47,793.62,195.47,793.74z"/>
	<path class="st2" d="M172.47,777.85c0,0.12-12.1,0.22-27.07,0.22c-14.97,0-27.09-0.22-27.09-0.22s12.1-0.22,27.05-0.22
		S172.47,777.61,172.47,777.85z"/>
	<path class="st2" d="M202.39,785.74c0,0.12-18.82,0.22-42.02,0.22s-42.02,0-42.02-0.22s18.8-0.22,42.02-0.22
		S202.39,785.62,202.39,785.74z"/>
	<path class="st2" d="M64.31,793.74c0,0.12-4.4,0.22-9.82,0.22s-9.68,0-9.68-0.22s4.38-0.22,9.68-0.22S64.31,793.62,64.31,793.74z"
		/>
	<path class="st2" d="M221.62,793.74c0,0.12-4.4,0.22-9.82,0.22c-5.42,0-9.82,0-9.82-0.22s4.4-0.22,9.82-0.22
		C217.22,793.53,221.62,793.62,221.62,793.74z"/>
</g>
<g id="freepik--Floor--inject-75">
	<path class="st4" d="M1069,927.11c0,0.34-236.15,0.63-527.36,0.63s-527.36-0.29-527.36-0.63s236.1-0.63,527.36-0.63
		S1069,926.74,1069,927.11z"/>
</g>
<g id="freepik--Screens--inject-75">
	<path class="st5" d="M889.48,262.71c-5.95,0-10.76-4.82-10.76-10.76c0-5.95,4.82-10.76,10.76-10.76s10.76,4.82,10.76,10.76
		C900.25,257.89,895.43,262.71,889.48,262.71L889.48,262.71z"/>
	<path class="st5" d="M889.48,262.71c0-0.12,0.97,0,2.56-0.58c2.27-0.65,4.25-2.04,5.64-3.94c3.36-4.53,2.41-10.92-2.12-14.28
		c-4.53-3.36-10.92-2.41-14.28,2.12c-2.68,3.61-2.68,8.55,0,12.16c1.4,1.89,3.38,3.28,5.64,3.94
		C888.51,262.61,889.48,262.59,889.48,262.71c0,0.12-0.24,0-0.7,0c-0.67,0.01-1.33-0.05-1.98-0.19c-2.46-0.52-4.66-1.89-6.22-3.87
		c-2.38-3.01-3.03-7.03-1.74-10.64c2.05-5.88,8.48-8.98,14.36-6.93c3.25,1.13,5.8,3.68,6.93,6.93c1.29,3.61,0.63,7.63-1.74,10.64
		c-1.55,1.98-3.75,3.35-6.22,3.87c-0.65,0.14-1.32,0.21-1.98,0.19C889.72,262.78,889.48,262.76,889.48,262.71z"/>
	<path class="st5" d="M749.97,202.11c0-0.34,61.98-0.63,138.44-0.63s138.44,0.29,138.44,0.63s-61.98,0.63-138.44,0.63
		S749.97,202.47,749.97,202.11z"/>
	<path class="st5" d="M727.16,229.2c0,0,0.17,0,0.56,0h1.62l6.24-0.12l23.01-0.19l75.91-0.19l80.43,0.22l-0.36,0.22l9.12-17.54
		c1.06-1.96,1.89-3.51,2.42-4.67c0.27-0.55,0.58-1.08,0.94-1.57c-0.19,0.58-0.44,1.13-0.73,1.67c-0.56,1.19-1.33,2.78-2.3,4.84
		c-2.1,4.26-5.08,10.26-8.81,17.73c-0.07,0.14-0.21,0.22-0.36,0.22l-80.43,0.22l-75.91-0.17l-23.01-0.22h-6.24h-1.62
		C727.33,229.25,727.16,229.23,727.16,229.2z"/>
	<path class="st5" d="M966.72,201.77c-0.08,0.32-0.2,0.64-0.34,0.94c-0.29,0.7-0.68,1.62-1.16,2.73c-1.09,2.42-2.61,5.93-4.5,10.28
		l-16.4,36.46c-0.09,0.19-0.27,0.31-0.48,0.31h-52.23h-56.44c-0.21,0.01-0.4-0.12-0.48-0.31c-6.02-14.01-11.03-25.69-14.51-33.87
		l-3.99-9.53l-1.02-2.42c-0.13-0.28-0.23-0.57-0.29-0.87c0.18,0.25,0.33,0.53,0.44,0.82c0.31,0.63,0.7,1.45,1.16,2.42l4.28,9.41
		l14.97,33.87l-0.48-0.31h56.44h52.23l-0.51,0.31c6.89-14.93,12.68-27.41,16.79-36.29c2.03-4.31,3.65-7.72,4.84-10.16
		c0.56-1.09,0.99-1.96,1.31-2.66C966.42,202.51,966.55,202.13,966.72,201.77z"/>
	<path class="st3" d="M927.12,212.51c-5.95,0-10.76-4.82-10.76-10.76c0-5.95,4.82-10.76,10.77-10.76c5.95,0,10.76,4.82,10.76,10.76
		c0,0.01,0,0.02,0,0.02c0,5.93-4.81,10.74-10.74,10.74C927.14,212.51,927.13,212.51,927.12,212.51z"/>
	<path class="st5" d="M927.12,212.51c0,0,0.97,0,2.56-0.56c2.26-0.66,4.24-2.05,5.64-3.94c3.36-4.53,2.41-10.92-2.12-14.28
		c-4.53-3.36-10.92-2.41-14.28,2.12c-2.68,3.61-2.68,8.55,0,12.16c1.4,1.89,3.38,3.27,5.64,3.94
		C926.15,212.42,927.12,212.42,927.12,212.51c0,0.1-0.24,0-0.7,0c-0.67,0.03-1.33-0.04-1.98-0.19c-2.47-0.51-4.67-1.88-6.22-3.87
		c-2.38-3.01-3.03-7.03-1.74-10.64c2.09-5.88,8.55-8.95,14.43-6.86c3.2,1.14,5.72,3.66,6.86,6.86c1.29,3.61,0.63,7.63-1.74,10.64
		c-1.54,1.99-3.75,3.36-6.22,3.87c-0.65,0.16-1.32,0.22-1.98,0.19C927.36,212.61,927.12,212.56,927.12,212.51z"/>
	<path class="st3" d="M966.72,212.51c-5.95,0-10.76-4.82-10.76-10.76c0-5.95,4.82-10.76,10.77-10.76c5.95,0,10.76,4.82,10.76,10.76
		c0,0.01,0,0.02,0,0.02c0,5.93-4.81,10.74-10.74,10.74C966.74,212.51,966.73,212.51,966.72,212.51z"/>
	<path class="st5" d="M966.72,212.51c0,0,0.97,0,2.56-0.56c2.26-0.66,4.24-2.05,5.64-3.94c2.04-2.79,2.55-6.43,1.35-9.68
		c-1.95-5.28-7.8-7.98-13.08-6.03c-2.8,1.03-5,3.24-6.03,6.03c-1.2,3.25-0.69,6.88,1.35,9.68c1.4,1.89,3.38,3.27,5.64,3.94
		C965.78,212.42,966.72,212.42,966.72,212.51c0,0.1-0.24,0-0.7,0c-0.67,0.03-1.33-0.04-1.98-0.19c-2.47-0.51-4.67-1.88-6.22-3.87
		c-2.38-3.01-3.03-7.03-1.74-10.64c2.07-5.89,8.52-8.98,14.41-6.9c3.23,1.14,5.77,3.68,6.9,6.9c1.27,3.62,0.61,7.63-1.77,10.64
		c-1.54,1.99-3.75,3.36-6.22,3.87c-0.65,0.16-1.32,0.22-1.98,0.19C966.96,212.61,966.72,212.56,966.72,212.51z"/>
	<path class="st5" d="M816.96,212.51c-5.95,0.01-10.78-4.8-10.79-10.74c-0.01-5.95,4.8-10.78,10.74-10.79
		c5.95-0.01,10.78,4.8,10.79,10.74c0,0.02,0,0.03,0,0.05C827.7,207.7,822.89,212.51,816.96,212.51L816.96,212.51z"/>
	<path class="st5" d="M816.96,212.51c0,0,0.94,0,2.56-0.56c2.25-0.67,4.22-2.05,5.61-3.94c2.04-2.8,2.56-6.42,1.38-9.68
		c-1.97-5.28-7.84-7.97-13.13-6.01c-2.78,1.03-4.97,3.23-6.01,6.01c-1.18,3.25-0.66,6.88,1.38,9.68c1.39,1.89,3.36,3.27,5.61,3.94
		C815.99,212.42,816.96,212.42,816.96,212.51c0,0.1-0.24,0-0.7,0c-0.67,0.03-1.35-0.04-2.01-0.19c-2.46-0.52-4.67-1.89-6.22-3.87
		c-2.36-3.02-3.02-7.03-1.74-10.64c2.07-5.89,8.52-8.98,14.41-6.9c3.23,1.14,5.77,3.68,6.9,6.9c1.28,3.61,0.62,7.63-1.74,10.64
		c-1.55,1.98-3.75,3.35-6.22,3.87c-0.66,0.15-1.33,0.22-2.01,0.19C817.17,212.61,816.96,212.56,816.96,212.51z"/>
	<path class="st3" d="M781.13,212.51c-5.95,0.01-10.78-4.8-10.79-10.74s4.8-10.78,10.74-10.79c5.95-0.01,10.78,4.8,10.79,10.74
		c0,0.02,0,0.03,0,0.05C791.87,207.7,787.06,212.51,781.13,212.51L781.13,212.51z"/>
	<path class="st5" d="M781.13,212.51c0,0,0.94,0,2.56-0.56c2.25-0.67,4.23-2.06,5.64-3.94c2.02-2.8,2.53-6.42,1.35-9.68
		c-1.97-5.28-7.84-7.97-13.13-6.01c-2.78,1.03-4.97,3.23-6.01,6.01c-1.18,3.25-0.66,6.88,1.38,9.68c1.39,1.89,3.36,3.27,5.61,3.94
		C780.16,212.42,781.13,212.42,781.13,212.51c0,0.1-0.24,0-0.7,0c-0.67,0.03-1.35-0.04-2.01-0.19c-2.46-0.52-4.67-1.89-6.22-3.87
		c-2.36-3.02-3.02-7.03-1.74-10.64c2.07-5.89,8.52-8.98,14.41-6.9c3.23,1.14,5.77,3.68,6.9,6.9c1.28,3.61,0.62,7.63-1.74,10.64
		c-1.55,1.98-3.75,3.35-6.22,3.87c-0.66,0.15-1.33,0.22-2.01,0.19C781.4,212.61,781.13,212.56,781.13,212.51z"/>
	<path class="st3" d="M798.06,239.97c-5.95,0.01-10.78-4.8-10.79-10.74c-0.01-5.95,4.8-10.78,10.74-10.79
		c5.95-0.01,10.78,4.8,10.79,10.74c0,0.01,0,0.02,0,0.02C808.8,235.14,804,239.96,798.06,239.97z"/>
	<path class="st5" d="M798.06,239.97c0-0.12,0.94-0.12,2.56-0.58c2.25-0.66,4.23-2.05,5.61-3.94c3.37-4.52,2.43-10.92-2.09-14.28
		c-4.52-3.37-10.92-2.43-14.28,2.09c-2.69,3.62-2.69,8.57,0,12.19c1.38,1.9,3.36,3.28,5.61,3.94
		C797.1,239.85,798.06,239.85,798.06,239.97c0,0.12-0.24,0-0.7,0c-0.67,0.01-1.35-0.05-2.01-0.19c-2.46-0.53-4.66-1.9-6.22-3.87
		c-2.37-3.02-3.02-7.05-1.74-10.67c2.07-5.89,8.52-8.98,14.41-6.9c3.23,1.14,5.77,3.68,6.9,6.9c1.28,3.62,0.63,7.64-1.74,10.67
		c-1.56,1.97-3.76,3.34-6.22,3.87c-0.66,0.14-1.33,0.21-2.01,0.19C798.35,240.04,798.06,240.02,798.06,239.97z"/>
	<path class="st3" d="M857.72,262.71c-5.95,0-10.76-4.82-10.76-10.76c0-5.95,4.82-10.76,10.76-10.76c5.95,0,10.76,4.82,10.76,10.76
		C868.48,257.89,863.66,262.71,857.72,262.71L857.72,262.71z"/>
	<path class="st5" d="M857.72,262.71c0-0.12,0.97,0,2.56-0.58c2.27-0.65,4.25-2.04,5.64-3.94c3.36-4.53,2.41-10.92-2.12-14.28
		c-4.53-3.36-10.92-2.41-14.28,2.12c-2.68,3.61-2.68,8.55,0,12.16c1.4,1.89,3.38,3.28,5.64,3.94
		C856.77,262.61,857.72,262.59,857.72,262.71c0,0.12-0.24,0-0.7,0c-0.67,0.01-1.33-0.05-1.98-0.19c-2.46-0.52-4.66-1.89-6.22-3.87
		c-2.38-3.01-3.03-7.03-1.74-10.64c2.07-5.89,8.52-8.98,14.41-6.9c3.23,1.14,5.77,3.68,6.9,6.9c1.27,3.62,0.61,7.63-1.77,10.64
		c-1.55,1.98-3.75,3.35-6.22,3.87c-0.65,0.14-1.32,0.21-1.98,0.19C857.96,262.78,857.72,262.76,857.72,262.71z"/>
	<path class="st3" d="M922.02,262.71c-5.95,0-10.76-4.82-10.76-10.76c0-5.95,4.82-10.76,10.76-10.76s10.76,4.82,10.76,10.76
		C932.78,257.89,927.96,262.71,922.02,262.71L922.02,262.71z"/>
	<path class="st5" d="M922.02,262.71c0-0.12,0.97,0,2.59-0.58c2.25-0.66,4.23-2.05,5.61-3.94c3.36-4.53,2.41-10.92-2.12-14.28
		c-4.53-3.36-10.92-2.41-14.28,2.12c-2.68,3.61-2.68,8.55,0,12.16c1.4,1.89,3.38,3.28,5.64,3.94
		C921.07,262.61,922.04,262.59,922.02,262.71c-0.02,0.12-0.22,0-0.68,0c-0.67,0.01-1.35-0.05-2.01-0.19
		c-2.46-0.53-4.66-1.9-6.22-3.87c-2.36-3.02-3.02-7.03-1.74-10.64c2.07-5.89,8.52-8.98,14.41-6.9c3.23,1.14,5.77,3.68,6.9,6.9
		c1.28,3.61,0.62,7.63-1.74,10.64c-1.56,1.98-3.77,3.35-6.24,3.87c-0.65,0.14-1.32,0.21-1.98,0.19
		C922.26,262.78,922.02,262.76,922.02,262.71z"/>
	<circle class="st5" cx="204.49" cy="221.05" r="12.53"/>
	<path class="st5" d="M204.49,233.56c0-0.15,1.11,0,3-0.63c2.64-0.77,4.96-2.39,6.6-4.6c4.06-5.3,3.05-12.9-2.25-16.96
		c-5.3-4.06-12.9-3.05-16.96,2.25c-3.32,4.34-3.32,10.37,0,14.71c1.64,2.22,3.96,3.83,6.6,4.6
		C203.38,233.44,204.49,233.41,204.49,233.56c-0.26,0.05-0.53,0.05-0.8,0c-0.81,0.03-1.63-0.05-2.42-0.24
		c-2.88-0.6-5.45-2.21-7.26-4.52c-4.44-5.69-3.43-13.9,2.26-18.34c0.05-0.04,0.11-0.08,0.16-0.12c4.62-3.42,10.93-3.42,15.55,0
		c5.79,4.28,7.01,12.45,2.73,18.24c-0.05,0.07-0.11,0.15-0.17,0.22c-1.81,2.32-4.38,3.92-7.26,4.52c-0.79,0.19-1.61,0.27-2.42,0.24
		C204.75,233.57,204.62,233.57,204.49,233.56z"/>
	
		<ellipse transform="matrix(0.1602 -0.9871 0.9871 0.1602 -15.3964 424.0068)" class="st5" cx="241.48" cy="221.05" rx="12.53" ry="12.53"/>
	<path class="st5" d="M241.48,233.56c0-0.15,1.14,0,3.02-0.63c2.64-0.77,4.96-2.39,6.6-4.6c4.01-5.34,2.92-12.93-2.42-16.93
		s-12.93-2.93-16.93,2.42c-3.23,4.3-3.23,10.21,0,14.51c1.64,2.21,3.96,3.83,6.6,4.6c1.89,0.51,3.02,0.48,3,0.63
		c-0.26,0.05-0.53,0.05-0.8,0c-0.81,0.03-1.63-0.06-2.42-0.24c-2.88-0.6-5.45-2.2-7.26-4.52c-2.74-3.49-3.5-8.14-2.01-12.31
		c0.87-2.46,2.45-4.59,4.55-6.14c4.62-3.42,10.93-3.42,15.55,0c2.21,1.55,3.88,3.75,4.79,6.29c1.49,4.18,0.73,8.83-2.01,12.31
		c-1.81,2.32-4.38,3.93-7.26,4.52c-0.75,0.18-1.52,0.26-2.3,0.24C241.96,233.69,241.71,233.64,241.48,233.56z"/>
	<path class="st5" d="M279.41,233.56c-6.93,0.01-12.57-5.6-12.58-12.53s5.6-12.57,12.53-12.58c6.93-0.01,12.57,5.6,12.58,12.53
		c0,0.01,0,0.02,0,0.02C291.94,227.93,286.34,233.54,279.41,233.56z"/>
	<path class="st5" d="M279.41,233.56c0-0.15,1.11,0,3-0.63c2.64-0.77,4.96-2.39,6.6-4.6c4.05-5.31,3.03-12.9-2.28-16.95
		c-5.31-4.05-12.9-3.03-16.95,2.28c-3.31,4.33-3.31,10.34,0,14.67c1.65,2.21,3.98,3.83,6.63,4.6
		C278.3,233.44,279.41,233.41,279.41,233.56c-0.27,0.05-0.55,0.05-0.82,0c-0.77,0.02-1.55-0.06-2.3-0.24
		c-2.88-0.6-5.45-2.21-7.26-4.52c-2.74-3.49-3.5-8.14-2.01-12.31c0.87-2.46,2.45-4.59,4.55-6.14c4.62-3.42,10.93-3.42,15.55,0
		c5.78,4.25,7.02,12.38,2.76,18.16c-0.07,0.1-0.15,0.2-0.22,0.3c-1.8,2.32-4.38,3.93-7.26,4.52c-0.79,0.19-1.61,0.27-2.42,0.24
		C279.8,233.58,279.61,233.58,279.41,233.56z"/>
	<path class="st5" d="M78.97,163.02c0-0.34,72.21-0.63,161.28-0.63s161.3,0.29,161.3,0.63s-72.21,0.63-161.3,0.63
		S78.97,163.4,78.97,163.02z"/>
	<path class="st5" d="M52.38,194.56h0.63h1.91h7.26l26.8-0.19l88.42-0.19l93.72,0.22l-0.36,0.22c4.48-8.66,8.08-15.58,10.6-20.47
		l2.9-5.44c0.31-0.56,0.56-1.02,0.77-1.38c0.08-0.16,0.18-0.32,0.29-0.46c-0.04,0.18-0.11,0.35-0.19,0.51l-0.65,1.45l-2.71,5.54
		l-10.26,20.49c-0.07,0.14-0.21,0.22-0.36,0.22l-93.72,0.22l-88.42-0.19l-26.8-0.24h-7.26h-1.91
		C52.8,194.79,52.58,194.69,52.38,194.56z"/>
	<path class="st5" d="M331.5,162.58c-0.11,0.38-0.25,0.76-0.44,1.11c-0.34,0.8-0.77,1.86-1.35,3.17c-1.26,2.85-3.02,6.89-5.27,11.97
		c-4.67,10.35-11.25,24.96-19.11,42.45c-0.1,0.19-0.29,0.31-0.51,0.31h-60.86h-65.73c-0.22,0-0.41-0.12-0.51-0.31l-16.93-39.6
		l-4.74-11.03l-1.21-2.95c-0.16-0.32-0.27-0.66-0.34-1.02c0.2,0.3,0.37,0.63,0.51,0.97l1.33,2.85l4.84,10.98l17.42,39.41l-0.48-0.31
		h65.73h60.86l-0.51,0.31l19.74-42.33c2.42-5.03,4.23-9.02,5.56-11.85c0.63-1.28,1.11-2.42,1.5-3.1
		C331.11,163.25,331.28,162.9,331.5,162.58z"/>
	<circle class="st3" cx="285.34" cy="162.58" r="12.53"/>
	<path class="st5" d="M285.34,175.11c0,0,1.11,0,3-0.63c2.63-0.76,4.93-2.37,6.56-4.57c4.05-5.31,3.03-12.9-2.28-16.95
		c-5.31-4.05-12.9-3.03-16.95,2.28c-3.31,4.33-3.31,10.34,0,14.67c1.63,2.21,3.96,3.82,6.6,4.57c1.89,0.53,3.02,0.51,3,0.63
		c-0.02,0.12-0.27,0-0.8,0c-0.81,0.03-1.63-0.05-2.42-0.24c-2.88-0.59-5.45-2.2-7.26-4.52c-4.42-5.65-3.41-13.82,2.24-18.23
		c0.1-0.08,0.2-0.15,0.3-0.22c5.81-4.3,14.01-3.07,18.3,2.75c0.76,1.03,1.37,2.17,1.8,3.37c1.49,4.18,0.73,8.84-2.01,12.34
		c-1.81,2.32-4.38,3.92-7.26,4.52c-0.79,0.19-1.61,0.27-2.42,0.24C285.63,175.19,285.34,175.16,285.34,175.11z"/>
	<circle class="st3" cx="331.5" cy="162.58" r="12.53"/>
	<path class="st5" d="M331.5,175.11c0,0,1.11,0,3-0.63c2.65-0.75,4.97-2.36,6.6-4.57c4.05-5.31,3.03-12.9-2.28-16.95
		c-5.31-4.05-12.9-3.03-16.95,2.28c-3.31,4.33-3.31,10.34,0,14.67c1.64,2.21,3.96,3.82,6.6,4.57
		C330.36,175.02,331.5,174.99,331.5,175.11s-0.29,0-0.82,0c-0.77,0.02-1.55-0.06-2.3-0.24c-2.88-0.6-5.45-2.21-7.26-4.52
		c-2.74-3.5-3.5-8.15-2.01-12.34c2.43-6.81,9.92-10.36,16.73-7.92c3.7,1.32,6.61,4.23,7.92,7.92c1.49,4.18,0.73,8.84-2.01,12.34
		c-1.81,2.32-4.38,3.92-7.26,4.52c-0.79,0.19-1.61,0.27-2.42,0.24C331.76,175.19,331.5,175.16,331.5,175.11z"/>
	<circle class="st3" cx="156.98" cy="162.58" r="12.53"/>
	<path class="st5" d="M157.01,175.11c0,0,1.11,0,3-0.63c2.68-0.73,5.03-2.34,6.68-4.57c4.06-5.3,3.05-12.9-2.25-16.96
		c-5.3-4.06-12.9-3.05-16.96,2.25c-3.32,4.34-3.32,10.37,0,14.71c1.63,2.21,3.96,3.82,6.6,4.57c1.89,0.53,3,0.51,3,0.63
		s-0.27,0-0.8,0c-0.81,0.03-1.63-0.05-2.42-0.24c-2.88-0.6-5.45-2.21-7.26-4.52c-4.36-5.73-3.24-13.91,2.5-18.27
		c2.27-1.73,5.05-2.66,7.9-2.66c2.8,0.01,5.53,0.91,7.79,2.56c5.78,4.29,6.99,12.46,2.7,18.24c-0.05,0.07-0.11,0.15-0.16,0.22
		c-1.81,2.32-4.38,3.92-7.26,4.52c-0.79,0.19-1.61,0.27-2.42,0.24C157.25,175.19,157.01,175.16,157.01,175.11z"/>
	<circle class="st3" cx="115.3" cy="162.58" r="12.53"/>
	<path class="st5" d="M115.3,175.11c0,0,1.11,0,3-0.63c2.65-0.74,4.97-2.35,6.6-4.57c4.06-5.3,3.05-12.9-2.25-16.96
		c-5.3-4.06-12.9-3.05-16.96,2.25c-3.32,4.34-3.32,10.37,0,14.71c1.63,2.22,3.95,3.83,6.6,4.57
		C114.19,175.02,115.3,174.99,115.3,175.11s-0.27,0-0.8,0c-0.81,0.03-1.63-0.05-2.42-0.24c-2.88-0.6-5.45-2.21-7.26-4.52
		c-4.42-5.7-3.37-13.91,2.33-18.33c5.7-4.42,13.91-3.37,18.33,2.33c3.64,4.71,3.64,11.29,0,15.99c-1.81,2.32-4.38,3.92-7.26,4.52
		c-0.79,0.19-1.61,0.27-2.42,0.24C115.57,175.19,115.3,175.16,115.3,175.11z"/>
	<path class="st3" d="M135.07,207.09c-6.92,0-12.53-5.61-12.53-12.53s5.61-12.53,12.53-12.53s12.53,5.61,12.53,12.53
		S141.99,207.09,135.07,207.09L135.07,207.09z"/>
	<path class="st5" d="M135.07,207.09c0,0,1.11,0,3-0.63c2.65-0.75,4.98-2.37,6.6-4.6c4.01-5.34,2.93-12.93-2.42-16.93
		c-5.34-4.01-12.93-2.92-16.93,2.42c-3.23,4.3-3.23,10.21,0,14.51c1.64,2.23,3.97,3.84,6.63,4.6c1.86,0.53,3,0.51,3,0.63
		c0,0.12-0.29,0-0.82,0c-0.81,0.03-1.63-0.05-2.42-0.24c-2.88-0.6-5.45-2.21-7.26-4.52c-4.45-5.63-3.49-13.8,2.14-18.25
		c0.09-0.07,0.18-0.14,0.28-0.21c4.62-3.42,10.93-3.42,15.55,0c5.75,4.29,6.93,12.43,2.63,18.18c-0.07,0.09-0.14,0.18-0.21,0.28
		c-1.8,2.32-4.38,3.93-7.26,4.52c-0.79,0.19-1.61,0.27-2.42,0.24C135.24,207.17,135.07,207.14,135.07,207.09z"/>
	<path class="st4" d="M805.56,409.76c0,0.34-129.76,0.63-289.78,0.63s-289.83-0.24-289.83-0.63c0-0.39,129.74-0.63,289.83-0.63
		S805.56,409.4,805.56,409.76z"/>
	<path class="st4" d="M268.94,621.07c-0.25,0.04-0.5,0.04-0.75,0h-2.25l-8.59,0.12l-31.64,0.19l-104.38,0.19h-7.86
		c-0.35,0-0.63-0.28-0.63-0.63l0,0l0,0c0-38.95,0.15-73.85,0.19-99.18c0-12.53,0.15-22.67,0.19-29.75c0-3.44,0-6.14,0-8.08
		c0-0.85,0-1.55,0-2.08c-0.03-0.24-0.03-0.48,0-0.73c0,0,0,0.24,0,0.73c0,0.48,0,1.23,0,2.08c0,1.94,0,4.64,0,8.08
		c0,7.09,0.12,17.22,0.19,29.75c0,25.28,0,60.19,0.22,99.18l-0.63-0.63h7.84l104.38,0.17l31.64,0.22h8.59h2.25
		C268.14,620.73,268.56,620.86,268.94,621.07z"/>
	<path class="st4" d="M623.41,407.97c-0.34,0-0.63-36.29-0.63-81.09s0.29-81.09,0.63-81.09c0.34,0,0.63,36.29,0.63,81.09
		S623.74,407.97,623.41,407.97z"/>
	<rect x="375.11" y="49.88" class="st4" width="357.95" height="208.57"/>
	<path class="st2" d="M403.1,248.07c-0.17,0-0.34-42.65-0.34-95.26s0.17-95.24,0.34-95.24s0.36,42.62,0.36,95.24
		S403.29,248.07,403.1,248.07z"/>
	<path class="st2" d="M403.1,248.24c0,0-0.22,0-0.27-0.36l0,0l0,0c0-0.7-0.12-2.54-0.17-7.26c-0.05-4.72,0-11.81,0-20.42
		c0-18,0-41.92,0-67.35s0-49.37,0-67.37c0-8.61,0-15.6,0-20.42s0-6.65,0.17-7.26l0,0l0,0c0-0.39,0.15-0.39,0.27-0.39
		c0.12,0,0.22,0,0.29,0.39l0,0l0,0c0,0.7,0.12,2.42,0.15,7.26s0,11.81,0.12,20.42c0,18,0,41.92,0,67.37s0,49.35,0,67.35
		c0,8.61,0,15.58-0.12,20.42c-0.12,4.84,0,6.65-0.15,7.26l0,0l0,0C403.32,248.24,403.25,248.24,403.1,248.24z M403.1,107.94
		c0,13.38,0,28.62,0,44.7s0,31.3,0,44.68c0-13.38,0-28.62,0-44.68s0.02-31.25,0-44.63V107.94z"/>
	<path class="st2" d="M395.75,65.48c-3.94,0.45-7.92,0.45-11.85,0C387.83,65.03,391.81,65.03,395.75,65.48z"/>
	<path class="st2" d="M389.82,66.13c-6.22,0-6.22-0.36-6.22-0.65c0-0.29,0-0.65,6.22-0.65s6.24,0.36,6.24,0.65
		C396.06,65.77,396.06,66.13,389.82,66.13z M387.01,65.48h2.81h2.81h-2.81H387.01z"/>
	<path class="st2" d="M395.75,78.04c-3.94,0.45-7.92,0.45-11.85,0C387.83,77.58,391.81,77.58,395.75,78.04z"/>
	<path class="st2" d="M389.82,78.74c-6.22,0-6.22-0.34-6.22-0.63c0-0.29,0-0.65,6.22-0.65s6.24,0.36,6.24,0.65
		C396.06,78.4,396.06,78.74,389.82,78.74z M386.99,78.11h5.66h-2.83H386.99z"/>
	<path class="st2" d="M395.75,90.59c-3.94,0.45-7.92,0.45-11.85,0C387.83,90.14,391.81,90.14,395.75,90.59z"/>
	<path class="st2" d="M389.82,91.22c-6.22,0-6.22-0.34-6.22-0.63c0-0.29,0-0.65,6.22-0.65s6.24,0.36,6.24,0.65
		C396.06,90.88,396.06,91.22,389.82,91.22z M387.01,90.59h5.61h-2.81H387.01z"/>
	<path class="st2" d="M395.75,103.15c-3.94,0.45-7.92,0.45-11.85,0C387.83,102.66,391.81,102.66,395.75,103.15z"/>
	<path class="st2" d="M389.82,103.77c-6.22,0-6.22-0.36-6.22-0.63c0-0.27,0-0.65,6.22-0.65s6.24,0.36,6.24,0.65
		C396.06,103.44,396.06,103.77,389.82,103.77z M387.01,103.15h5.61h-2.81H387.01z"/>
	<path class="st2" d="M395.75,115.7c-3.94,0.45-7.92,0.45-11.85,0C387.83,115.22,391.81,115.22,395.75,115.7z"/>
	<path class="st2" d="M389.82,116.33c-6.22,0-6.22-0.36-6.22-0.63s0-0.65,6.22-0.65s6.24,0.36,6.24,0.65
		S396.06,116.33,389.82,116.33z M386.99,115.7h5.66c-0.8,0-1.74,0-2.83,0C388.73,115.7,387.79,115.65,386.99,115.7z"/>
	<path class="st2" d="M395.75,128.23c-3.94,0.48-7.92,0.48-11.85,0C387.83,127.78,391.81,127.78,395.75,128.23z"/>
	<path class="st2" d="M389.82,128.88c-6.22,0-6.22-0.36-6.22-0.65c0-0.29,0-0.63,6.22-0.63s6.24,0.36,6.24,0.63
		S396.06,128.88,389.82,128.88z M386.99,128.23h2.83h2.83H386.99z"/>
	<path class="st2" d="M395.75,140.79c-3.94,0.48-7.92,0.48-11.85,0C387.83,140.34,391.81,140.34,395.75,140.79z"/>
	<path class="st2" d="M389.82,141.44c-6.22,0-6.22-0.36-6.22-0.65c0-0.29,0-0.63,6.22-0.63s6.24,0.34,6.24,0.63
		C396.06,141.08,396.06,141.44,389.82,141.44z M387.01,140.79h2.81h2.81H387.01z"/>
	<path class="st2" d="M395.75,153.34c-3.94,0.45-7.92,0.45-11.85,0C387.83,152.89,391.81,152.89,395.75,153.34z"/>
	<path class="st2" d="M389.82,153.99c-6.22,0-6.22-0.36-6.22-0.65c0-0.29,0-0.63,6.22-0.63s6.24,0.34,6.24,0.63
		S396.06,153.99,389.82,153.99z M386.99,153.34h2.83h2.83H386.99z"/>
	<path class="st2" d="M395.75,165.82c-3.94,0.45-7.92,0.45-11.85,0C387.83,165.37,391.81,165.37,395.75,165.82z"/>
	<path class="st2" d="M389.82,166.55c-6.22,0-6.22-0.36-6.22-0.65c0-0.29,0-0.65,6.22-0.65s6.24,0.36,6.24,0.65
		C396.06,166.19,396.06,166.55,389.82,166.55z M386.99,165.82h2.83h2.83h-2.83H386.99z"/>
	<path class="st2" d="M395.75,178.45c-3.94,0.45-7.92,0.45-11.85,0C387.83,178,391.81,178,395.75,178.45z"/>
	<path class="st2" d="M389.82,179.1c-6.22,0-6.22-0.36-6.22-0.65c0-0.29,0-0.65,6.22-0.65s6.24,0.36,6.24,0.65
		C396.06,178.74,396.06,179.1,389.82,179.1z M387.01,178.45h2.81h2.81h-2.81H387.01z"/>
	<path class="st2" d="M395.75,191.01c-3.94,0.45-7.92,0.45-11.85,0C387.83,190.56,391.81,190.56,395.75,191.01z"/>
	<path class="st2" d="M389.82,191.66c-6.22,0-6.22-0.36-6.22-0.65s0-0.65,6.22-0.65s6.24,0.36,6.24,0.65
		S396.06,191.66,389.82,191.66z M386.99,191.01h2.83h2.83h-2.83H386.99z"/>
	<path class="st2" d="M395.75,203.56c-3.94,0.45-7.92,0.45-11.85,0C387.83,203.11,391.81,203.11,395.75,203.56z"/>
	<path class="st2" d="M389.82,204.21c-6.22,0-6.22-0.36-6.22-0.65c0-0.29,0-0.65,6.22-0.65s6.24,0.36,6.24,0.65
		C396.06,203.85,396.06,204.21,389.82,204.21z M387.01,203.56h2.81h2.81h-2.81H387.01z"/>
	<path class="st2" d="M395.75,216.12c-3.94,0.45-7.92,0.45-11.85,0C387.83,215.67,391.81,215.67,395.75,216.12z"/>
	<path class="st2" d="M389.82,216.77c-6.22,0-6.22-0.36-6.22-0.65s0-0.65,6.22-0.65s6.24,0.36,6.24,0.65
		S396.06,216.77,389.82,216.77z M387.01,216.12h2.81h2.81h-2.81H387.01z"/>
	<path class="st2" d="M395.75,228.72c-3.94,0.45-7.92,0.45-11.85,0C387.83,228.27,391.81,228.27,395.75,228.72z"/>
	<path class="st2" d="M389.82,229.3c-6.22,0-6.22-0.34-6.22-0.63c0-0.29,0-0.65,6.22-0.65s6.24,0.36,6.24,0.65
		C396.06,228.96,396.06,229.3,389.82,229.3z M386.99,228.67h5.66h-2.83H386.99z"/>
	<path class="st2" d="M395.75,241.23c-3.94,0.45-7.92,0.45-11.85,0C387.83,240.78,391.81,240.78,395.75,241.23z"/>
	<path class="st2" d="M389.82,241.86c-6.22,0-6.22-0.34-6.22-0.63s0-0.65,6.22-0.65s6.24,0.36,6.24,0.65
		C396.06,241.52,396.06,241.86,389.82,241.86z M387.01,241.23h5.61h-2.81H387.01z"/>
	<path class="st5" d="M443.26,64.73c0,0.19-6.87,0.34-15.39,0.34c-8.52,0-15.36-0.15-15.36-0.34s6.87-0.34,15.36-0.34
		C436.36,64.39,443.26,64.54,443.26,64.73z"/>
	<path class="st5" d="M427.94,65.38c-15.68,0-15.68-0.31-15.68-0.65s0-0.63,15.68-0.63c15.68,0,15.7,0.31,15.7,0.63
		S443.57,65.38,427.94,65.38z M420.69,64.73h7.26h7.26H420.69z"/>
	<path class="st5" d="M443.26,241.23c0,0.17-6.87,0.34-15.39,0.34c-8.52,0-15.36-0.17-15.36-0.34c0-0.17,6.87-0.34,15.36-0.34
		C436.36,240.89,443.26,241.03,443.26,241.23z"/>
	<path class="st5" d="M427.94,241.86c-15.68,0-15.68-0.31-15.68-0.63c0-0.31,0-0.65,15.68-0.65c15.68,0,15.7,0.31,15.7,0.65
		S443.57,241.86,427.94,241.86z M420.69,241.23h14.51h-7.26H420.69z"/>
	<path class="st5" d="M486,90.59c0,0.19-12.87,0.34-28.76,0.34s-28.79-0.15-28.79-0.34c0-0.19,12.89-0.34,28.79-0.34
		S486,90.4,486,90.59z"/>
	<path class="st5" d="M457.34,91.22c-7.69,0-14.93,0-20.37,0c-8.73,0-8.73-0.12-8.73-0.53s0-0.46,8.73-0.56c5.44,0,12.65,0,20.37,0
		s14.93,0,20.34,0c8.73,0,8.73,0.15,8.73,0.56s0,0.44-8.73,0.53C472.24,91.2,465,91.22,457.34,91.22z M443.72,90.59h27.24h-13.62
		H443.72z"/>
	<path class="st2" d="M552.67,90.59c0,0.19-12.89,0.34-28.79,0.34s-28.79-0.15-28.79-0.34c0-0.19,12.89-0.34,28.79-0.34
		S552.67,90.4,552.67,90.59z"/>
	<path class="st2" d="M523.89,91.22c-7.69,0-14.93,0-20.34,0c-8.73,0-8.73-0.12-8.73-0.53s0-0.46,8.73-0.56c5.42,0,12.65,0,20.34,0
		s14.93,0,20.34,0c8.73,0,8.73,0.15,8.73,0.56s0,0.44-8.73,0.53C538.81,91.2,531.58,91.22,523.89,91.22z M510.19,90.59h27.24h-13.62
		H510.19z"/>
	<path class="st2" d="M527.13,103.15c0,0.17-18.99,0.34-42.41,0.34s-42.26-0.17-42.26-0.34c0-0.17,18.97-0.36,42.41-0.36
		S527.13,102.93,527.13,103.15z"/>
	<path class="st2" d="M484.82,103.77c-11.32,0-21.99,0-30,0c-12.72,0-12.72,0-12.72-0.53c0-0.53,0-0.46,12.72-0.56
		c8.01,0,18.68,0,30,0c11.32,0,21.97,0,30,0c12.72,0,12.72,0,12.72,0.56s0,0.44-12.72,0.53
		C506.78,103.75,496.14,103.77,484.82,103.77z M464.74,103.15h40.16h-20.08H464.74z"/>
	<path class="st2" d="M527.13,115.7c0,0.17-18.99,0.34-42.41,0.34s-42.26-0.17-42.26-0.34s18.97-0.36,42.41-0.36
		S527.13,115.51,527.13,115.7z"/>
	<path class="st2" d="M484.82,116.33c-11.35,0-21.99,0-30,0c-12.72,0-12.72,0-12.72-0.53c0-0.53,0-0.46,12.72-0.56
		c8.01,0,18.68,0,30,0c11.32,0,21.97,0,30,0c12.72,0,12.72,0,12.72,0.56s0,0.44-12.72,0.53
		C506.81,116.31,496.14,116.33,484.82,116.33z M464.62,115.7h40.4c-5.81,0-12.6,0-20.2,0C477.22,115.7,470.42,115.65,464.62,115.7
		L464.62,115.7z"/>
	<path class="st2" d="M585.62,153.34c0,0.19-18.99,0.34-42.41,0.34c-23.42,0-42.43-0.15-42.43-0.34s18.99-0.34,42.43-0.34
		S585.62,153.15,585.62,153.34z"/>
	<path class="st2" d="M543.21,153.99c-11.35,0-21.99,0-30,0c-12.7-0.27-12.7-0.27-12.7-0.65s0-0.44,12.72-0.53c8.01,0,18.65,0,30,0
		s21.97,0,30,0c12.72,0,12.72,0,12.72,0.53s0,0.46-12.72,0.56C565.2,153.97,554.53,153.99,543.21,153.99z M523.01,153.34h20.2h20.18
		H523.01L523.01,153.34z"/>
	<path class="st2" d="M560.41,128.23c0,0.19-18.99,0.36-42.41,0.36c-23.42,0-42.41-0.17-42.41-0.36s18.99-0.34,42.41-0.34
		C541.42,127.89,560.41,128.06,560.41,128.23z"/>
	<path class="st2" d="M518.01,128.88c-11.32,0-21.99,0-30,0c-12.72,0-12.72,0-12.72-0.56c0-0.56,0-0.44,12.72-0.53
		c8.03,0,18.68,0,30,0c11.32,0,21.97,0,30,0c12.72,0,12.72,0.12,12.72,0.53c0,0.41,0,0.46-12.72,0.56
		C540,128.86,529.33,128.88,518.01,128.88z M497.81,128.23h20.2h20.2H497.81L497.81,128.23z"/>
	<path class="st2" d="M664.09,128.23c0,0.19-18.99,0.36-42.43,0.36c-23.44,0-42.41-0.17-42.41-0.36s18.99-0.34,42.41-0.34
		C645.08,127.89,664.09,128.06,664.09,128.23z"/>
	<path class="st2" d="M621.66,128.88c-11.32,0-21.97,0-30,0c-12.72,0-12.72,0-12.72-0.56c0-0.56,0-0.44,12.72-0.53
		c8.03,0,18.68,0,30,0c11.32,0,21.97,0,30,0c12.72,0,12.72,0.12,12.72,0.53c0,0.41,0,0.46-12.72,0.56
		C643.65,128.86,633.01,128.88,621.66,128.88z M601.49,128.23h20.18h20.2H601.49z"/>
	<path class="st2" d="M628.03,103.15c0,0.17-18.99,0.34-42.41,0.34c-23.42,0-42.41-0.17-42.41-0.34s18.99-0.36,42.41-0.36
		C609.04,102.78,628.03,102.93,628.03,103.15z"/>
	<path class="st2" d="M585.62,103.77c-11.32,0-21.99,0-30,0c-12.72,0-12.72,0-12.72-0.53c0-0.53,0-0.46,12.72-0.56
		c8.01,0,18.68,0,30,0c11.32,0,21.99,0,30,0c12.72,0,12.72,0,12.72,0.56s0,0.44-12.72,0.53
		C607.61,103.75,596.94,103.77,585.62,103.77z M565.54,103.15h40.16h-20.08H565.54z"/>
	<path class="st2" d="M686.64,153.34c0,0.19-18.99,0.34-42.43,0.34s-42.41-0.15-42.41-0.34s18.99-0.34,42.41-0.34
		C667.63,153,686.64,153.15,686.64,153.34z"/>
	<path class="st2" d="M644.21,153.99c-11.32,0-21.99,0-30,0c-12.72,0-12.72-0.15-12.72-0.56c0-0.41,0-0.44,12.72-0.53
		c8.03,0,18.68,0,30,0c11.32,0,21.99,0,30,0c12.72,0,12.72,0,12.72,0.53c0,0.53,0,0.46-12.72,0.56
		C666.2,153.97,655.56,153.99,644.21,153.99z M624.03,153.34h20.18h20.2H624.03z"/>
	<path class="st6" d="M674.93,115.7c0,0.17-29.49,0.34-65.87,0.34s-65.85-0.17-65.85-0.34s29.46-0.36,65.85-0.36
		S674.93,115.51,674.93,115.7z"/>
	<path class="st6" d="M609.06,116.33c-17.59,0-34.13,0-46.57,0c-13.96,0-17.97,0-19.13-0.27l0,0c-0.39,0-0.39-0.15-0.39-0.24
		c0-0.1,0-0.22,0.39-0.27l0,0c1.16-0.17,5.18-0.19,19.13-0.27c12.43,0,29.03,0,46.57,0s34.13,0,46.59,0c13.96,0,17.97,0,19.11,0.27
		l0,0c0.36,0,0.36,0.15,0.36,0.27c0,0.12,0,0.19-0.36,0.24l0,0c-1.14,0.17-5.15,0.19-19.11,0.27
		C643.24,116.31,626.67,116.33,609.06,116.33z M577.93,115.7h62.17c-9.29,0-19.88,0-31.09,0
		C597.81,115.7,587.29,115.65,577.93,115.7z"/>
	<path class="st2" d="M443.26,78.04c0,0.19-6.87,0.34-15.39,0.34c-8.52,0-15.36-0.15-15.36-0.34c0-0.19,6.87-0.34,15.36-0.34
		C436.36,77.7,443.26,77.84,443.26,78.04z"/>
	<path class="st2" d="M427.94,78.74c-15.68,0-15.68-0.29-15.68-0.63s0-0.65,15.68-0.65c15.68,0,15.7,0.31,15.7,0.65
		S443.57,78.74,427.94,78.74z M420.69,78.11h14.51h-7.26H420.69z"/>
	<path class="st2" d="M443.26,228.72c0,0.19-6.87,0.34-15.39,0.34c-8.52,0-15.36-0.15-15.36-0.34s6.87-0.34,15.36-0.34
		C436.36,228.38,443.26,228.48,443.26,228.72z"/>
	<path class="st2" d="M427.94,229.3c-15.68,0-15.68-0.31-15.68-0.63c0-0.31,0-0.65,15.68-0.65c15.68,0,15.7,0.31,15.7,0.65
		C443.64,229.01,443.57,229.3,427.94,229.3z M420.69,228.67h14.51h-7.26H420.69z"/>
	<path class="st2" d="M458.5,128.23c0,0.19-6.87,0.36-15.39,0.36s-15.36-0.17-15.36-0.36s6.87-0.34,15.36-0.34
		C451.6,127.89,458.5,128.06,458.5,128.23z"/>
	<path class="st2" d="M443.11,128.88c-15.68,0-15.68-0.31-15.68-0.65s0-0.63,15.68-0.63c15.68,0,15.7,0.31,15.7,0.63
		C458.81,128.55,458.81,128.88,443.11,128.88z M435.85,128.23h7.26h7.26h-14.64H435.85z"/>
	<path class="st5" d="M705.07,128.23c0,0.19-6.89,0.36-15.39,0.36s-15.39-0.17-15.39-0.36s6.89-0.34,15.39-0.34
		S705.07,128.06,705.07,128.23z"/>
	<path class="st5" d="M689.69,128.88c-15.68,0-15.68-0.31-15.68-0.65s0-0.63,15.68-0.63c15.68,0,15.68,0.31,15.68,0.63
		C705.36,128.55,705.36,128.88,689.69,128.88z M682.43,128.23h7.26h7.26H682.43z"/>
	<path class="st5" d="M486,178.38c0,0.19-12.87,0.34-28.76,0.34s-28.79-0.15-28.79-0.34c0-0.19,12.89-0.34,28.79-0.34
		S486,178.19,486,178.38z"/>
	<path class="st5" d="M457.34,179.03c-7.69,0-14.93,0-20.37,0c-8.73,0-8.73-0.15-8.73-0.56s0-0.44,8.73-0.53c5.44,0,12.68,0,20.37,0
		s14.9,0,20.34,0c8.73,0,8.73,0.15,8.73,0.53c0,0.39,0,0.44-8.73,0.56C472.24,178.98,465,179.03,457.34,179.03z M443.62,178.38
		h13.72h13.69h-13.69H443.62z"/>
	<path class="st2" d="M552.67,178.38c0,0.19-12.89,0.34-28.79,0.34s-28.79-0.15-28.79-0.34c0-0.19,12.89-0.34,28.79-0.34
		S552.67,178.19,552.67,178.38z"/>
	<path class="st2" d="M523.89,179.03c-7.69,0-14.93,0-20.34,0c-8.73,0-8.73-0.15-8.73-0.56s0-0.44,8.73-0.53c5.42,0,12.65,0,20.34,0
		s14.93,0,20.34,0c8.73,0,8.73,0.15,8.73,0.53c0,0.39,0,0.44-8.73,0.56C538.81,178.98,531.58,179.03,523.89,179.03z M510.19,178.38
		h13.69h13.69h-13.69H510.19z"/>
	<path class="st2" d="M527.13,190.93c0,0.19-18.99,0.34-42.41,0.34s-42.41-0.15-42.41-0.34s18.97-0.34,42.41-0.34
		C508.16,190.6,527.13,190.74,527.13,190.93z"/>
	<path class="st2" d="M484.82,191.59c-11.32,0-21.99,0-30-0.12c-12.72,0-12.72,0-12.72-0.53s0-0.44,12.72-0.56c8.01,0,18.68,0,30,0
		c11.32,0,21.97,0,30,0c12.72,0,12.72,0.15,12.72,0.56s0,0.44-12.72,0.53C506.78,191.54,496.14,191.59,484.82,191.59z
		 M464.74,190.93h20.08h20.08h-20.08H464.74z"/>
	<path class="st2" d="M527.13,203.49c0,0.19-18.99,0.34-42.41,0.34s-42.41-0.15-42.41-0.34c0-0.19,18.97-0.34,42.41-0.34
		C508.16,203.15,527.13,203.3,527.13,203.49z"/>
	<path class="st2" d="M484.82,204.14c-11.35,0-21.99,0-30,0c-12.72,0-12.72-0.12-12.72-0.53s0-0.44,12.72-0.56c8.01,0,18.68,0,30,0
		c11.32,0,21.97,0,30,0c12.72,0,12.72,0.15,12.72,0.56c0,0.41,0,0.44-12.72,0.53C506.81,204.09,496.16,204.14,484.82,204.14z
		 M464.74,203.49h20.08h20.08h-20.08H464.74z"/>
	<path class="st2" d="M560.41,216.04c0,0.19-18.99,0.34-42.41,0.34c-23.42,0-42.41-0.15-42.41-0.34s18.99-0.34,42.41-0.34
		C541.42,215.71,560.41,215.85,560.41,216.04z"/>
	<path class="st2" d="M518.01,216.62c-11.32,0-21.99,0-30,0c-12.72,0-12.72,0-12.72-0.53c0-0.53,0-0.44,12.72-0.56
		c8.01,0,18.68,0,30,0c11.32,0,21.99,0,30,0c12.72,0,12.72,0.15,12.72,0.56c0,0.41,0,0.44-12.72,0.53
		C540,216.62,529.33,216.62,518.01,216.62z M497.81,216h40.4h-20.2H497.81z"/>
	<path class="st2" d="M664.09,216.04c0,0.19-18.99,0.34-42.43,0.34c-23.44,0-42.41-0.15-42.41-0.34s18.99-0.34,42.41-0.34
		C645.08,215.71,664.09,215.85,664.09,216.04z"/>
	<path class="st2" d="M621.66,216.62c-11.32,0-21.97,0-30,0c-12.72,0-12.72,0-12.72-0.53c0-0.53,0-0.44,12.72-0.56
		c8.01,0,18.68,0,30,0c11.32,0,21.99,0,30,0c12.72,0,12.72,0.15,12.72,0.56c0,0.41,0,0.44-12.72,0.53
		C643.65,216.62,633.01,216.62,621.66,216.62z M601.49,216h40.37h-20.2H601.49z"/>
	<path class="st2" d="M628.03,190.93c0,0.19-18.99,0.34-42.41,0.34c-23.42,0-42.41-0.15-42.41-0.34s18.99-0.34,42.41-0.34
		C609.04,190.6,628.03,190.74,628.03,190.93z"/>
	<path class="st2" d="M585.62,191.59c-11.32,0-21.99,0-30-0.12c-12.72,0-12.72,0-12.72-0.53s0-0.44,12.72-0.56c8.01,0,18.68,0,30,0
		c11.32,0,21.99,0,30,0c12.72,0,12.72,0.15,12.72,0.56s0,0.44-12.72,0.53C607.61,191.54,596.94,191.59,585.62,191.59z
		 M565.54,190.93h20.08h20.08h-20.08H565.54z"/>
	<path class="st6" d="M674.93,203.49c0,0.19-29.49,0.34-65.87,0.34s-65.85-0.15-65.85-0.34c0-0.19,29.46-0.34,65.85-0.34
		S674.93,203.3,674.93,203.49z"/>
	<path class="st6" d="M609.06,204.14c-17.61,0-34.16,0-46.57,0c-13.96,0-17.97,0-19.13-0.27l0,0c-0.39,0-0.39-0.15-0.39-0.27
		c0-0.12,0-0.19,0.39-0.27l0,0c1.16-0.15,5.18-0.19,19.13-0.27c12.43,0,29.03,0,46.57,0s34.13,0,46.59,0c13.96,0,17.97,0,19.11,0.27
		l0,0c0.36,0,0.36,0.15,0.36,0.27c0,0.12,0,0.19-0.36,0.27l0,0c-1.14,0.17-5.15,0.19-19.11,0.27
		C643.24,204.09,626.67,204.14,609.06,204.14z M578.17,203.49h30.89h30.92h-30.92H578.17z"/>
	<path class="st2" d="M458.5,216.04c0,0.19-6.87,0.34-15.39,0.34s-15.36-0.15-15.36-0.34s6.87-0.34,15.36-0.34
		C451.6,215.71,458.5,215.85,458.5,216.04z"/>
	<path class="st2" d="M443.11,216.62c-15.68,0-15.68-0.29-15.68-0.63s0-0.65,15.68-0.65c15.68,0,15.7,0.31,15.7,0.65
		S458.81,216.62,443.11,216.62z M435.85,216h14.64h-7.26H435.85z"/>
	<path class="st5" d="M705.07,216.04c0,0.19-6.89,0.34-15.39,0.34s-15.39-0.15-15.39-0.34s6.89-0.34,15.39-0.34
		S705.07,215.85,705.07,216.04z"/>
	<path class="st5" d="M689.69,216.62c-15.68,0-15.68-0.29-15.68-0.63s0-0.65,15.68-0.65c15.68,0,15.68,0.31,15.68,0.65
		S705.36,216.62,689.69,216.62z M682.43,216h14.51h-7.26H682.43z"/>
	<rect x="686.45" y="338.98" class="st4" width="288.93" height="168.34"/>
	<path class="st2" d="M709.04,498.86c-0.15,0-0.29-34.42-0.29-76.88s0.15-76.9,0.29-76.9s0.27,34.42,0.27,76.9
		S709.19,498.86,709.04,498.86z"/>
	<path class="st2" d="M709.04,499.1c-0.12,0-0.17,0-0.22-0.29l0,0c0-0.56,0-2.06-0.12-5.95c-0.12-3.89,0-9.51,0-16.47
		c0-14.51,0-33.87,0-54.36c0-20.49,0-39.84,0-54.38c0-6.97,0-12.58,0-16.47s0-5.39,0.12-5.95l0,0c0-0.29,0-0.29,0.22-0.29
		s0.17,0,0.22,0.29l0,0c0,0.56,0,2.06,0,5.95s0,9.51,0,16.47c0,14.51,0,33.87,0,54.38c0,20.51,0,39.82,0,54.36
		c0,6.97,0,12.58,0,16.47s0,5.39,0,5.95l0,0C709.21,499.1,709.14,499.1,709.04,499.1z M709.04,385.89c0,10.81,0,23.1,0,36.09
		c0,12.99,0,25.28,0,36.07c0-10.79,0-23.1,0-36.07s0.02-25.28,0-36.02V385.89z"/>
	<path class="st2" d="M703.09,351.56c-3.17,0.39-6.38,0.39-9.56,0C696.71,351.21,699.92,351.21,703.09,351.56z"/>
	<path class="st2" d="M698.32,352.09c-5.03,0-5.03-0.29-5.03-0.53c0-0.24,0-0.51,5.03-0.51c5.03,0,5.01,0.29,5.01,0.51
		S703.33,352.09,698.32,352.09z M696.05,351.56h2.27h2.25H696.05z"/>
	<path class="st2" d="M703.09,361.77c-3.17,0.39-6.38,0.39-9.56,0C696.71,361.41,699.92,361.41,703.09,361.77z"/>
	<path class="st2" d="M698.32,362.23c-5.03,0-5.03-0.29-5.03-0.53c0-0.24,0-0.51,5.03-0.51c5.03,0,5.01,0.29,5.01,0.51
		S703.33,362.23,698.32,362.23z M696.03,361.7L696.03,361.7z"/>
	<path class="st2" d="M703.09,371.83c-3.18,0.35-6.38,0.35-9.56,0C696.71,371.48,699.92,371.48,703.09,371.83z"/>
	<path class="st2" d="M698.32,372.36c-5.03,0-5.03-0.29-5.03-0.53c0-0.24,0-0.53,5.03-0.53c5.03,0,5.01,0.29,5.01,0.53
		C703.33,372.07,703.33,372.36,698.32,372.36z M696.05,371.83L696.05,371.83z"/>
	<path class="st2" d="M703.09,381.97c-3.18,0.35-6.38,0.35-9.56,0C696.71,381.58,699.92,381.58,703.09,381.97z"/>
	<path class="st2" d="M698.32,382.48c-5.03,0-5.03-0.29-5.03-0.51s0-0.53,5.03-0.53c5.03,0,5.01,0.29,5.01,0.53
		S703.33,382.48,698.32,382.48z M696.05,381.97L696.05,381.97z"/>
	<path class="st2" d="M703.09,392.1c-3.18,0.35-6.38,0.35-9.56,0C696.71,391.72,699.92,391.72,703.09,392.1z"/>
	<path class="st2" d="M698.32,392.61c-5.03,0-5.03-0.29-5.03-0.51c0-0.22,0-0.53,5.03-0.53c5.03,0,5.01,0.29,5.01,0.53
		C703.33,392.35,703.33,392.61,698.32,392.61z M696.03,392.1h4.57h-2.27H696.03z"/>
	<path class="st2" d="M703.09,402.24c-3.18,0.35-6.38,0.35-9.56,0C696.71,401.85,699.92,401.85,703.09,402.24z"/>
	<path class="st2" d="M698.32,402.75c-5.03,0-5.03-0.29-5.03-0.51s0-0.53,5.03-0.53c5.03,0,5.01,0.29,5.01,0.53
		S703.33,402.75,698.32,402.75z M696.05,402.24h4.52h-2.25H696.05z"/>
	<path class="st2" d="M703.09,412.35c-3.17,0.39-6.38,0.39-9.56,0C696.71,412,699.92,412,703.09,412.35z"/>
	<path class="st2" d="M698.32,412.88c-5.03,0-5.03-0.29-5.03-0.53c0-0.24,0-0.51,5.03-0.51c5.03,0,5.01,0.29,5.01,0.51
		S703.33,412.88,698.32,412.88z M696.05,412.35h2.27h2.25H696.05z"/>
	<path class="st2" d="M703.09,422.49c-3.17,0.39-6.38,0.39-9.56,0C696.71,422.13,699.92,422.13,703.09,422.49z"/>
	<path class="st2" d="M698.32,423.02c-5.03,0-5.03-0.29-5.03-0.53c0-0.24,0-0.51,5.03-0.51c5.03,0,5.01,0.29,5.01,0.51
		S703.33,423.02,698.32,423.02z M696.03,422.49h2.3h2.27H696.03z"/>
	<path class="st2" d="M703.09,432.62c-3.17,0.39-6.38,0.39-9.56,0C696.71,432.27,699.92,432.27,703.09,432.62z"/>
	<path class="st2" d="M698.32,433.16c-5.03,0-5.03-0.29-5.03-0.53s0-0.51,5.03-0.51c5.03,0,5.01,0.29,5.01,0.51
		S703.33,433.16,698.32,433.16z M696.05,432.62h2.27h2.25H696.05z"/>
	<path class="st2" d="M703.09,442.76c-3.18,0.35-6.38,0.35-9.56,0C696.71,442.41,699.92,442.41,703.09,442.76z"/>
	<path class="st2" d="M698.32,443.29c-5.03,0-5.03-0.29-5.03-0.53c0-0.24,0-0.51,5.03-0.51c5.03,0,5.01,0.27,5.01,0.51
		C703.33,443,703.33,443.29,698.32,443.29z M696.05,442.76L696.05,442.76z"/>
	<path class="st2" d="M703.09,452.9c-3.18,0.35-6.38,0.35-9.56,0C696.71,452.51,699.92,452.51,703.09,452.9z"/>
	<path class="st2" d="M698.32,453.4c-5.03,0-5.03-0.29-5.03-0.51s0-0.53,5.03-0.53c5.03,0,5.01,0.29,5.01,0.53
		S703.33,453.4,698.32,453.4z M696.03,452.9L696.03,452.9z"/>
	<path class="st2" d="M703.09,463.03c-3.18,0.35-6.38,0.35-9.56,0C696.71,462.64,699.92,462.64,703.09,463.03z"/>
	<path class="st2" d="M698.32,463.54c-5.03,0-5.03-0.29-5.03-0.51c0-0.22,0-0.53,5.03-0.53c5.03,0,5.01,0.29,5.01,0.53
		C703.33,463.27,703.33,463.54,698.32,463.54z M696.05,463.03h4.52h-2.25H696.05z"/>
	<path class="st2" d="M703.09,473.17c-3.18,0.35-6.38,0.35-9.56,0C696.71,472.78,699.92,472.78,703.09,473.17z"/>
	<path class="st2" d="M698.32,473.68c-5.03,0-5.03-0.29-5.03-0.51s0-0.53,5.03-0.53c5.03,0,5.01,0.29,5.01,0.53
		C703.33,473.41,703.33,473.68,698.32,473.68z M696.05,473.17h4.52h-2.25H696.05z"/>
	<path class="st2" d="M703.09,483.28c-3.17,0.39-6.38,0.39-9.56,0C696.71,482.92,699.92,482.92,703.09,483.28z"/>
	<path class="st2" d="M698.32,483.81c-5.03,0-5.03-0.29-5.03-0.53s0-0.51,5.03-0.51c5.03,0,5.01,0.29,5.01,0.51
		S703.33,483.81,698.32,483.81z M696.03,483.28h2.3h2.27H696.03z"/>
	<path class="st2" d="M703.09,493.42c-3.17,0.39-6.38,0.39-9.56,0C696.71,493.06,699.92,493.06,703.09,493.42z"/>
	<path class="st2" d="M698.32,493.95c-5.03,0-5.03-0.29-5.03-0.53c0-0.24,0-0.51,5.03-0.51c5.03,0,5.01,0.29,5.01,0.51
		C703.33,493.63,703.33,493.95,698.32,493.95z M696.05,493.42h2.27h2.25H696.05z"/>
	<path class="st5" d="M741.46,350.98c0,0.15-5.56,0.27-12.43,0.27s-12.41-0.12-12.41-0.27s5.56-0.29,12.41-0.29
		S741.46,350.81,741.46,350.98z"/>
	<path class="st5" d="M729.02,351.49c-12.65,0-12.65-0.24-12.65-0.51c0-0.27,0-0.53,12.65-0.53s12.68,0.24,12.68,0.53
		S741.7,351.49,729.02,351.49z M723.14,350.98h11.78h-5.9H723.14z"/>
	<path class="st5" d="M741.46,493.42c0,0.17-5.56,0.29-12.43,0.29s-12.41,0-12.41-0.29c0-0.29,5.56-0.27,12.41-0.27
		S741.46,493.27,741.46,493.42z"/>
	<path class="st5" d="M729.02,493.95c-12.65,0-12.65-0.24-12.65-0.53c0-0.29,0-0.51,12.65-0.51s12.68,0.24,12.68,0.51
		C741.7,493.68,741.7,493.95,729.02,493.95z M723.17,493.42h5.85h5.88h-11.83H723.17z"/>
	<path class="st5" d="M776.03,371.83c0,0.15-10.4,0.27-23.22,0.27c-12.82,0-23.22-0.12-23.22-0.27s10.4-0.27,23.22-0.27
		C765.62,371.57,776.03,371.69,776.03,371.83z"/>
	<path class="st5" d="M752.8,372.36c-6.19,0-12.1,0-16.43,0c-7.04,0-7.04,0-7.04-0.44s0-0.36,7.04-0.44c4.38,0,10.23,0,16.43,0
		c6.19,0,12.1,0,16.43,0c7.04,0,7.04,0,7.04,0.44s0,0.36-7.04,0.44C764.85,372.32,759,372.36,752.8,372.36z M741.82,371.83
		L741.82,371.83z"/>
	<path class="st2" d="M829.75,371.83c0,0.15-10.4,0.27-23.22,0.27s-23.22-0.12-23.22-0.27s10.38-0.27,23.22-0.27
		S829.75,371.69,829.75,371.83z"/>
	<path class="st2" d="M806.53,372.36c-6.22,0-12.1,0-16.43,0c-7.06,0-7.06,0-7.06-0.44s0-0.36,7.06-0.44c4.38,0,10.21,0,16.43,0
		s12.1,0,16.43,0c7.04,0,7.04,0,7.04,0.44s0,0.36-7.04,0.44C818.58,372.32,812.72,372.36,806.53,372.36z M795.55,371.83
		L795.55,371.83z"/>
	<path class="st2" d="M809.22,381.97c0,0.15-15.31,0.27-34.23,0.27c-18.92,0-34.23-0.12-34.23-0.27s15.31-0.29,34.23-0.29
		C793.9,381.68,809.22,381.82,809.22,381.97z"/>
	<path class="st2" d="M774.99,382.48c-9.14,0-17.73,0-24.19,0c-10.26,0-10.26,0-10.26-0.44s0-0.36,10.26-0.44
		c6.48,0,15.07,0,24.19,0c9.12,0,17.76,0,24.19,0c10.26,0,10.26,0,10.26,0.44s0,0.36-10.26,0.44
		C792.74,382.45,784.13,382.48,774.99,382.48z M758.78,381.97L758.78,381.97z"/>
	<path class="st2" d="M809.22,392.1c0,0.15-15.31,0.27-34.23,0.27c-18.92,0-34.23-0.12-34.23-0.27c0-0.15,15.31-0.29,34.23-0.29
		C793.9,391.81,809.22,391.94,809.22,392.1z"/>
	<path class="st2" d="M774.99,392.61c-9.14,0-17.76,0-24.19,0c-10.26,0-10.26,0-10.26-0.44c0-0.44,0-0.36,10.26-0.44
		c6.48,0,15.07,0,24.19,0c9.12,0,17.76,0,24.19,0c10.26,0,10.26,0,10.26,0.44c0,0.44,0,0.34-10.26,0.44
		C792.74,392.59,784.13,392.61,774.99,392.61z M758.68,392.1h32.61h-16.3H758.68z"/>
	<path class="st2" d="M856.36,422.49c0,0.17-15.34,0.29-34.23,0.29s-34.25-0.12-34.25-0.29s15.34-0.24,34.38-0.24
		S856.36,422.25,856.36,422.49z"/>
	<path class="st2" d="M822.25,423.02c-9.17,0-17.76,0-24.19,0c-10.28,0-10.28,0-10.28-0.44s0-0.34,10.28-0.44
		c6.46,0,15.07,0,24.19,0c9.12,0,17.73,0,24.19,0c10.28,0,10.28,0,10.28,0.44s0,0.36-10.28,0.44
		C839.86,423,831.28,423.02,822.25,423.02z M805.95,422.49h16.3h16.28h-32.71H805.95z"/>
	<path class="st2" d="M836.02,402.24c0,0.15-15.34,0.27-34.23,0.27c-18.89,0-34.25-0.12-34.25-0.27s15.34-0.29,34.25-0.29
		C820.71,401.95,836.02,402.07,836.02,402.24z"/>
	<path class="st2" d="M801.79,402.75c-9.14,0-17.76,0-24.19,0c-10.28,0-10.28,0-10.28-0.44s0-0.36,10.28-0.46
		c6.46,0,15.07,0,24.19,0c9.12,0,17.73,0,24.19,0c10.26,0,10.26,0.12,10.26,0.46c0,0.34,0,0.34-10.26,0.44
		C819.52,402.72,810.93,402.75,801.79,402.75z M785.58,402.24H818h-16.21H785.58z"/>
	<path class="st2" d="M919.69,402.24c0,0.15-15.34,0.27-34.23,0.27s-34.25-0.12-34.25-0.27s15.34-0.29,34.25-0.29
		C904.38,401.95,919.69,402.07,919.69,402.24z"/>
	<path class="st2" d="M885.46,402.75c-9.14,0-17.76,0-24.19,0c-10.28,0-10.28,0-10.28-0.44s0-0.36,10.28-0.46
		c6.46,0,15.07,0,24.19,0s17.73,0,24.19,0c10.26,0,10.26,0.12,10.26,0.46c0,0.34,0,0.34-10.26,0.44
		C903.2,402.72,894.61,402.75,885.46,402.75z M869.26,402.24h32.42h-16.21H869.26z"/>
	<path class="st2" d="M890.59,381.97c0,0.15-15.34,0.27-34.23,0.27s-34.23-0.12-34.23-0.27s15.31-0.29,34.23-0.29
		C875.28,381.68,890.59,381.82,890.59,381.97z"/>
	<path class="st2" d="M856.36,382.48c-9.14,0-17.76,0-24.19,0c-10.28,0-10.28,0-10.28-0.44s0-0.36,10.28-0.44
		c6.46,0,15.07,0,24.19,0s17.73,0,24.19,0c10.26,0,10.26,0,10.26,0.44s0,0.36-10.26,0.44C874.09,382.45,865.51,382.48,856.36,382.48
		z M840.16,381.97L840.16,381.97z"/>
	<path class="st2" d="M937.89,422.49c0,0.17-15.31,0.29-34.23,0.29c-18.92,0-34.23-0.12-34.23-0.29s15.31-0.27,34.23-0.27
		C922.57,422.22,937.89,422.25,937.89,422.49z"/>
	<path class="st2" d="M903.66,423.02c-9.14,0-17.76,0-24.19,0c-10.26,0-10.26,0-10.26-0.44s0-0.34,10.26-0.44
		c6.48,0,15.07,0,24.19,0c9.12,0,17.73,0,24.19,0c10.26,0,10.26,0,10.26,0.44s0,0.36-10.26,0.44
		C921.44,423,912.8,423.02,903.66,423.02z M887.35,422.49h16.3h16.3H887.35z"/>
	<path class="st6" d="M928.45,392.1c0,0.15-23.8,0.27-53.22,0.27c-29.42,0-53.22-0.12-53.22-0.27c0-0.15,23.78-0.29,53.22-0.29
		S928.45,391.94,928.45,392.1z"/>
	<path class="st6" d="M875.28,392.61c-14.2,0-27.55,0-37.59,0c-11.27,0-14.51,0-15.43-0.22l0,0c-0.31,0-0.31,0-0.31-0.22
		s0-0.17,0.31-0.22l0,0c0.92-0.12,4.16-0.15,15.43-0.19c10.04,0,23.39,0,37.59,0c14.2,0,27.55,0,37.59,0c11.27,0,14.51,0,15.43,0.19
		l0,0c0.31,0,0.31,0.12,0.31,0.22c0,0.1,0,0.15-0.31,0.22l0,0c-0.94,0.12-4.19,0.15-15.46,0.22
		C902.83,392.59,889.5,392.61,875.28,392.61z M850.19,392.1h50.2h-25.11H850.19z"/>
	<path class="st2" d="M741.46,361.77c0,0.15-5.56,0.29-12.43,0.29s-12.41-0.15-12.41-0.29s5.56-0.27,12.41-0.27
		S741.46,361.55,741.46,361.77z"/>
	<path class="st2" d="M729.02,362.23c-12.65,0-12.65-0.24-12.65-0.53s0-0.51,12.65-0.51s12.68,0.24,12.68,0.51
		C741.7,361.96,741.7,362.23,729.02,362.23z M723.07,361.77L723.07,361.77z"/>
	<path class="st2" d="M741.46,483.28c0,0.17-5.56,0.29-12.43,0.29s-12.41,0-12.41-0.29s5.56-0.27,12.41-0.27
		S741.46,483.13,741.46,483.28z"/>
	<path class="st2" d="M729.02,483.81c-12.65,0-12.65-0.24-12.65-0.53s0-0.51,12.65-0.51s12.68,0.24,12.68,0.51
		C741.7,483.55,741.7,483.81,729.02,483.81z M723.14,483.28h5.88h5.9h-11.85H723.14z"/>
	<path class="st2" d="M753.75,402.24c0,0.15-5.56,0.27-12.41,0.27c-6.85,0-12.41-0.12-12.41-0.27s5.56-0.29,12.41-0.29
		C748.18,401.95,753.75,402.07,753.75,402.24z"/>
	<path class="st2" d="M741.34,402.75c-12.65,0-12.65-0.24-12.65-0.51s0-0.53,12.65-0.53s12.65,0.24,12.65,0.53
		S753.99,402.75,741.34,402.75z M735.48,402.24h11.78h-5.88H735.48z"/>
	<path class="st5" d="M952.88,402.24c0,0.15-5.56,0.27-12.43,0.27s-12.41-0.12-12.41-0.27s5.56-0.29,12.41-0.29
		S952.88,402.07,952.88,402.24z"/>
	<path class="st5" d="M940.35,402.75c-12.65,0-12.65-0.24-12.65-0.51s0-0.53,12.65-0.53s12.68,0.24,12.68,0.53
		S953.03,402.75,940.35,402.75z M934.5,402.24h11.73h-5.88H934.5z"/>
	<path class="st5" d="M776.03,442.71c0,0.15-10.4,0.27-23.22,0.27c-12.82,0-23.22,0-23.22-0.27s10.4-0.29,23.22-0.29
		C765.62,442.42,776.03,442.54,776.03,442.71z"/>
	<path class="st5" d="M752.8,443.22c-6.19,0-12.1,0-16.43,0c-7.04,0-7.04,0-7.04-0.44s0-0.36,7.04-0.46c4.38,0,10.21,0,16.43,0
		c6.22,0,12.1,0,16.43,0c7.04,0,7.04,0,7.04,0.46s0,0.34-7.04,0.44C764.85,443.2,759,443.22,752.8,443.22z M741.75,442.71h22.11
		H752.8H741.75z"/>
	<path class="st2" d="M829.75,442.71c0,0.15-10.4,0.27-23.22,0.27s-23.22,0-23.22-0.27s10.38-0.29,23.22-0.29
		S829.75,442.54,829.75,442.71z"/>
	<path class="st2" d="M806.53,443.22c-6.22,0-12.1,0-16.43,0c-7.06,0-7.06,0-7.06-0.44s0-0.36,7.06-0.46c4.38,0,10.21,0,16.43,0
		s12.1,0,16.43,0c7.04,0,7.04,0,7.04,0.46s0,0.34-7.04,0.44C818.58,443.2,812.72,443.22,806.53,443.22z M795.47,442.71h22.11h-11.06
		H795.47z"/>
	<path class="st2" d="M809.22,452.82c0,0.17-15.31,0.29-34.23,0.29c-18.92,0-34.23,0-34.23-0.29s15.31-0.27,34.23-0.27
		C793.9,452.56,809.22,452.68,809.22,452.82z"/>
	<path class="st2" d="M774.99,453.36c-9.14,0-17.73,0-24.19,0c-10.26,0-10.26-0.12-10.26-0.46c0-0.34,0-0.34,10.26-0.44
		c6.48,0,15.07,0,24.19,0c9.12,0,17.76,0,24.19,0c10.26,0,10.26,0,10.26,0.44s0,0.36-10.26,0.46
		C792.74,453.33,784.13,453.36,774.99,453.36z M758.78,452.82h16.21h16.21H758.78L758.78,452.82z"/>
	<path class="st2" d="M809.22,462.96c0,0.17-15.31,0.29-34.23,0.29c-18.92,0-34.23,0-34.23-0.29c0-0.29,15.31-0.27,34.23-0.27
		C793.9,462.69,809.22,462.81,809.22,462.96z"/>
	<path class="st2" d="M774.99,463.49c-9.14,0-17.76,0-24.19,0c-10.26,0-10.26,0-10.26-0.44s0-0.34,10.26-0.44
		c6.48,0,15.07,0,24.19,0c9.12,0,17.76,0,24.19,0c10.26,0,10.26,0,10.26,0.44s0,0.36-10.26,0.44
		C792.74,463.37,784.13,463.49,774.99,463.49z M758.68,462.96h16.3h16.3H758.68z"/>
	<path class="st2" d="M836.02,473.05c0,0.15-15.34,0.29-34.23,0.29c-18.89,0-34.25-0.15-34.25-0.29s15.34-0.27,34.25-0.27
		C820.71,472.78,836.02,473.05,836.02,473.05z"/>
	<path class="st2" d="M801.79,473.63c-9.14,0-17.76,0-24.19,0c-10.28,0-10.28,0-10.28-0.44c0-0.44,0-0.36,10.28-0.44
		c6.46,0,15.07,0,24.19,0c9.12,0,17.73,0,24.19,0c10.26,0,10.26,0,10.26,0.44c0,0.44,0,0.36-10.26,0.44
		C819.52,473.6,810.93,473.63,801.79,473.63z M785.48,473.05L785.48,473.05z"/>
	<path class="st2" d="M919.69,473.05c0,0.15-15.34,0.29-34.23,0.29s-34.18-0.1-34.18-0.29c0-0.19,15.34-0.27,34.25-0.27
		C904.45,472.78,919.69,473.05,919.69,473.05z"/>
	<path class="st2" d="M885.46,473.63c-9.14,0-17.76,0-24.19,0c-10.28,0-10.28,0-10.28-0.44c0-0.44,0-0.36,10.28-0.44
		c6.46,0,15.07,0,24.19,0s17.73,0,24.19,0c10.26,0,10.26,0,10.26,0.44c0,0.44,0,0.36-10.26,0.44
		C903.2,473.6,894.61,473.63,885.46,473.63z M869.16,473.1L869.16,473.1z"/>
	<path class="st2" d="M890.59,452.82c0,0.17-15.34,0.29-34.23,0.29s-34.23,0-34.23-0.29s15.31-0.27,34.23-0.27
		C875.28,452.56,890.59,452.68,890.59,452.82z"/>
	<path class="st2" d="M856.36,453.36c-9.14,0-17.76,0-24.19,0c-10.28,0-10.28-0.12-10.28-0.46c0-0.34,0-0.34,10.28-0.44
		c6.46,0,15.07,0,24.19,0s17.73,0,24.19,0c10.26,0,10.26,0,10.26,0.44s0,0.36-10.26,0.46C874.09,453.33,865.51,453.36,856.36,453.36
		z M840.16,452.82h16.21h16.21H840.16z"/>
	<path class="st6" d="M928.45,462.96c0,0.17-23.8,0.29-53.22,0.29c-29.42,0-53.22,0-53.22-0.29c0-0.29,23.78-0.27,53.22-0.27
		S928.45,462.81,928.45,462.96z"/>
	<path class="st6" d="M875.28,463.49c-14.2,0-27.55,0-37.59,0c-11.27,0-14.51,0-15.43-0.19l0,0c-0.31,0-0.31,0-0.31-0.22
		s0-0.15,0.31-0.22l0,0c0.92-0.15,4.16-0.15,15.43-0.22c10.04,0,23.39,0,37.59,0c14.2,0,27.55,0,37.59,0c11.27,0,14.51,0,15.43,0.22
		l0,0c0.31,0,0.31,0,0.31,0.22s0,0.17-0.31,0.22l0,0c-0.94,0-4.19,0.15-15.46,0.19C902.83,463.37,889.5,463.49,875.28,463.49z
		 M850.19,462.96h25.09h25.11H850.19L850.19,462.96z"/>
	<path class="st2" d="M753.75,473.05c0,0.15-5.56,0.29-12.41,0.29c-6.85,0-12.41-0.15-12.41-0.29s5.56-0.27,12.41-0.27
		C748.18,472.78,753.75,473.05,753.75,473.05z"/>
	<path class="st2" d="M741.34,473.63c-12.65,0-12.65-0.24-12.65-0.53s0-0.51,12.65-0.51s12.65,0.24,12.65,0.51
		C753.99,473.36,753.99,473.63,741.34,473.63z M735.43,473.1L735.43,473.1z"/>
	<path class="st5" d="M952.88,473.05c0,0.15-5.56,0.29-12.43,0.29s-12.41-0.15-12.41-0.29s5.56-0.27,12.41-0.27
		S952.88,473.05,952.88,473.05z"/>
	<path class="st5" d="M940.35,473.63c-12.65,0-12.65-0.24-12.65-0.53s0-0.51,12.65-0.51s12.68,0.24,12.68,0.51
		C953.03,473.36,953.03,473.63,940.35,473.63z M934.45,473.1L934.45,473.1z"/>
	<rect x="33.37" y="338.98" class="st4" width="274.4" height="159.88"/>
	<path class="st2" d="M54.83,490.8c-0.15,0-0.27-32.68-0.27-73.01s0.12-72.96,0.27-72.96c0.15,0,0.27,32.71,0.27,73.03
		S54.97,490.8,54.83,490.8z"/>
	<path class="st2" d="M54.83,491.04c0,0-0.17,0-0.22-0.29l0,0l0,0c0-0.53,0-1.94-0.12-5.64c-0.12-3.7,0-9.05,0-15.65
		c0-13.79,0-32.13,0-51.62c0-19.5,0-37.83,0-51.65c0-6.6,0-11.95,0-15.63c0-3.68,0-5.13,0.12-5.66l0,0c0-0.29,0-0.29,0.22-0.29
		c0.22,0,0.17,0,0.22,0.29l0,0c0,0.53,0,1.96,0,5.66c0,3.7,0,9.02,0,15.63c0,13.81,0,32.15,0,51.65c0,19.5,0,37.83,0,51.62
		c0,6.6,0,11.95,0,15.65c0,3.7,0,5.1,0,5.64l0,0l0,0C55,491.04,54.95,491.04,54.83,491.04z M54.83,383.54c0,10.26,0,21.92,0,34.25
		s0,24,0,34.25c0-10.26,0-21.92,0-34.25S54.85,393.8,54.83,383.54z"/>
	<path class="st2" d="M49.19,350.93c-1.5,0.26-3.03,0.35-4.55,0.27c-1.52,0.09-3.05,0-4.55-0.27c1.5-0.26,3.03-0.35,4.55-0.27
		C46.16,350.58,47.69,350.67,49.19,350.93z"/>
	<path class="st2" d="M44.64,351.44c-4.84,0-4.84-0.29-4.84-0.51s0-0.48,4.84-0.48s4.84,0.27,4.84,0.48S49.43,351.44,44.64,351.44z
		 M42.49,350.93L42.49,350.93z"/>
	<path class="st2" d="M49.19,360.56c-1.5,0.26-3.03,0.35-4.55,0.27c-1.52,0.09-3.05,0-4.55-0.27c1.5-0.26,3.03-0.35,4.55-0.27
		C46.16,360.21,47.69,360.3,49.19,360.56z"/>
	<path class="st2" d="M44.64,361.04c-4.84,0-4.84-0.27-4.84-0.48s0-0.51,4.84-0.51s4.84,0.29,4.84,0.51S49.43,361.04,44.64,361.04z
		 M42.49,360.56L42.49,360.56z"/>
	<path class="st2" d="M49.19,370.19c-1.5,0.25-3.03,0.33-4.55,0.24c-1.52,0.09-3.05,0.01-4.55-0.24c1.5-0.26,3.03-0.35,4.55-0.27
		C46.16,369.83,47.69,369.92,49.19,370.19z"/>
	<path class="st2" d="M44.64,370.67c-4.84,0-4.84-0.27-4.84-0.48c0-0.22,0-0.51,4.84-0.51s4.84,0.29,4.84,0.51
		S49.43,370.67,44.64,370.67z M42.49,370.19h4.31h-2.15H42.49z"/>
	<path class="st2" d="M49.19,379.79c-1.5,0.26-3.03,0.35-4.55,0.27c-1.52,0.09-3.05,0-4.55-0.27c1.5-0.25,3.03-0.33,4.55-0.24
		C46.16,379.46,47.69,379.54,49.19,379.79z"/>
	<path class="st2" d="M44.64,380.3c-4.84,0-4.84-0.27-4.84-0.51s0-0.48,4.84-0.48s4.84,0.27,4.84,0.48S49.43,380.3,44.64,380.3z
		 M42.49,379.79h2.15h2.15H42.49z"/>
	<path class="st2" d="M49.19,389.42c-1.5,0.26-3.03,0.35-4.55,0.27c-1.52,0.09-3.05,0-4.55-0.27c1.5-0.26,3.03-0.35,4.55-0.27
		C46.16,389.07,47.69,389.16,49.19,389.42z"/>
	<path class="st2" d="M44.64,389.93c-4.84,0-4.84-0.29-4.84-0.51s0-0.48,4.84-0.48s4.84,0.27,4.84,0.48
		C49.48,389.64,49.43,389.93,44.64,389.93z M42.49,389.42L42.49,389.42z"/>
	<path class="st2" d="M49.19,399.05c-1.5,0.26-3.03,0.35-4.55,0.27c-1.52,0.09-3.05,0-4.55-0.27c1.5-0.26,3.03-0.35,4.55-0.27
		C46.16,398.69,47.69,398.78,49.19,399.05z"/>
	<path class="st2" d="M44.64,399.53c-4.84,0-4.84-0.27-4.84-0.48c0-0.22,0-0.48,4.84-0.48s4.84,0.27,4.84,0.48
		C49.48,399.26,49.43,399.53,44.64,399.53z M42.49,399.05L42.49,399.05z"/>
	<path class="st2" d="M49.19,408.68c-1.5,0.26-3.03,0.35-4.55,0.27c-1.52,0.09-3.05,0-4.55-0.27c1.5-0.26,3.03-0.35,4.55-0.27
		C46.16,408.32,47.69,408.41,49.19,408.68z"/>
	<path class="st2" d="M44.64,409.16c-4.84,0-4.84-0.27-4.84-0.48s0-0.51,4.84-0.51s4.84,0.29,4.84,0.51S49.43,409.16,44.64,409.16z
		 M42.49,408.68h4.31h-2.15H42.49z"/>
	<path class="st2" d="M49.19,418.3c-1.5,0.25-3.03,0.33-4.55,0.24c-1.52,0.09-3.05,0.01-4.55-0.24c1.5-0.26,3.03-0.35,4.55-0.27
		C46.16,417.95,47.69,418.04,49.19,418.3z"/>
	<path class="st2" d="M44.64,418.79c-4.84,0-4.84-0.27-4.84-0.48s0-0.51,4.84-0.51s4.84,0.27,4.84,0.51S49.43,418.79,44.64,418.79z
		 M42.49,418.3h4.33h-2.18H42.49z"/>
	<path class="st2" d="M49.19,427.91c-1.5,0.26-3.03,0.35-4.55,0.27c-1.52,0.09-3.05,0-4.55-0.27c1.5-0.26,3.03-0.35,4.55-0.27
		C46.16,427.55,47.69,427.64,49.19,427.91z"/>
	<path class="st2" d="M44.64,428.41c-4.84,0-4.84-0.29-4.84-0.51s0-0.48,4.84-0.48s4.84,0.27,4.84,0.48S49.43,428.41,44.64,428.41z
		 M42.49,427.91h2.15h2.15H42.49z"/>
	<path class="st2" d="M49.19,437.53c-1.5,0.26-3.03,0.35-4.55,0.27c-1.52,0.09-3.05,0-4.55-0.27c1.5-0.26,3.03-0.35,4.55-0.27
		C46.16,437.18,47.69,437.27,49.19,437.53z"/>
	<path class="st2" d="M44.64,438.04c-4.84,0-4.84-0.29-4.84-0.51s0-0.48,4.84-0.48s4.84,0.27,4.84,0.48S49.43,438.04,44.64,438.04z
		 M42.49,437.53L42.49,437.53z"/>
	<path class="st2" d="M49.19,447.16c-1.5,0.26-3.03,0.35-4.55,0.27c-1.52,0.09-3.05,0-4.55-0.27c1.5-0.26,3.03-0.35,4.55-0.27
		C46.16,446.81,47.69,446.9,49.19,447.16z"/>
	<path class="st2" d="M44.64,447.65c-4.84,0-4.84-0.27-4.84-0.48c0-0.22,0-0.51,4.84-0.51s4.84,0.29,4.84,0.51
		C49.48,447.38,49.43,447.65,44.64,447.65z M42.49,447.16L42.49,447.16z"/>
	<path class="st2" d="M49.19,456.79c-1.5,0.26-3.03,0.35-4.55,0.27c-1.52,0.09-3.05,0-4.55-0.27c1.5-0.26,3.03-0.35,4.55-0.27
		C46.16,456.44,47.69,456.53,49.19,456.79z"/>
	<path class="st2" d="M44.64,457.27c-4.84,0-4.84-0.27-4.84-0.48s0-0.51,4.84-0.51s4.84,0.29,4.84,0.51S49.43,457.27,44.64,457.27z
		 M42.49,456.79h4.31h-2.15H42.49z"/>
	<path class="st2" d="M49.19,466.39c-1.5,0.26-3.03,0.35-4.55,0.27c-1.52,0.09-3.05,0-4.55-0.27c1.5-0.25,3.03-0.33,4.55-0.24
		C46.16,466.07,47.69,466.15,49.19,466.39z"/>
	<path class="st2" d="M44.64,466.9c-4.84,0-4.84-0.27-4.84-0.51c0-0.24,0-0.48,4.84-0.48s4.84,0.27,4.84,0.48
		C49.48,466.61,49.43,466.9,44.64,466.9z M42.49,466.39h2.15h2.15H42.49z"/>
	<path class="st2" d="M49.19,476.02c-1.5,0.26-3.03,0.35-4.55,0.27c-1.52,0.09-3.05,0-4.55-0.27c1.5-0.26,3.03-0.35,4.55-0.27
		C46.16,475.67,47.69,475.76,49.19,476.02z"/>
	<path class="st2" d="M44.64,476.53c-4.84,0-4.84-0.29-4.84-0.51s0-0.48,4.84-0.48s4.84,0.27,4.84,0.48S49.43,476.53,44.64,476.53z
		 M42.49,476.02L42.49,476.02z"/>
	<path class="st2" d="M49.19,485.65c-1.5,0.26-3.03,0.35-4.55,0.27c-1.52,0.09-3.05,0-4.55-0.27c1.5-0.26,3.03-0.35,4.55-0.27
		C46.16,485.3,47.69,485.39,49.19,485.65z"/>
	<path class="st2" d="M44.64,486.13c-4.84,0-4.84-0.27-4.84-0.48s0-0.48,4.84-0.48s4.84,0.27,4.84,0.48S49.43,486.13,44.64,486.13z
		 M42.49,485.65L42.49,485.65z"/>
	<path class="st5" d="M85.62,350.38c0,0.15-5.3,0.24-11.81,0.24s-11.78,0-11.78-0.24c0-0.24,5.27-0.27,11.78-0.27
		S85.62,350.23,85.62,350.38z"/>
	<path class="st5" d="M73.82,350.86c-12.1,0-12.1-0.22-12.1-0.48s0-0.51,12.1-0.51s12.1,0.24,12.1,0.51S85.84,350.86,73.82,350.86z
		 M68.23,350.38h11.2h-5.61H68.23z"/>
	<path class="st5" d="M85.62,485.65c0,0.15-5.3,0.27-11.81,0.27s-11.78,0-11.78-0.27c0-0.27,5.27-0.27,11.78-0.27
		S85.62,485.51,85.62,485.65z"/>
	<path class="st5" d="M73.82,486.13c-12.1,0-12.1-0.22-12.1-0.48c0-0.27,0-0.48,12.1-0.48s12.1,0.22,12.1,0.48
		C85.91,485.92,85.84,486.13,73.82,486.13z M68.25,485.65L68.25,485.65z"/>
	<path class="st5" d="M118.45,370.19c0,0.15-9.87,0.24-22.06,0.24s-22.06,0-22.06-0.24c0-0.24,9.89-0.27,22.06-0.27
		S118.45,370.04,118.45,370.19z"/>
	<path class="st5" d="M96.39,370.67c-5.88,0-11.42,0-15.6,0c-6.68,0-6.68,0-6.68-0.41c0-0.41,0-0.34,6.68-0.44c4.18,0,9.68,0,15.6,0
		c5.93,0,11.44,0,15.6,0c6.7,0,6.7,0,6.7,0.44c0,0.44,0,0.34-6.7,0.41C107.83,370.65,102.29,370.67,96.39,370.67z M85.96,370.19
		h20.88H96.39H85.96z"/>
	<path class="st2" d="M169.47,370.19c0,0.15-9.87,0.24-22.06,0.24s-22.06,0-22.06-0.24c0-0.24,9.89-0.27,22.06-0.27
		S169.47,370.04,169.47,370.19z"/>
	<path class="st2" d="M147.33,370.67c-5.88,0-11.42,0-15.6,0c-6.68,0-6.68,0-6.68-0.41c0-0.41,0-0.34,6.68-0.44
		c4.19,0,9.68,0,15.6,0s11.44,0,15.6,0c6.7,0,6.7,0,6.7,0.44c0,0.44,0,0.34-6.7,0.41C158.85,370.65,153.31,370.67,147.33,370.67z
		 M136.91,370.19h20.88h-10.45H136.91z"/>
	<path class="st2" d="M149.97,379.79c0,0.15-14.51,0.27-32.51,0.27s-32.51-0.12-32.51-0.27s14.51-0.24,32.51-0.24
		S149.97,379.65,149.97,379.79z"/>
	<path class="st2" d="M117.46,380.3c-8.68,0-16.93,0-22.98,0c-9.68,0-9.68,0-9.68-0.44s0-0.34,9.68-0.41c6.14,0,14.3,0,22.98,0
		s16.93,0,23.01,0c9.68,0,9.68,0,9.68,0.41c0,0.41,0,0.34-9.68,0.44C134.32,380.28,126.14,380.3,117.46,380.3z M102.07,379.79h15.39
		h15.39H102.07z"/>
	<path class="st2" d="M149.97,389.42c0,0.15-14.51,0.27-32.51,0.27s-32.51,0-32.51-0.27c0-0.27,14.51-0.27,32.51-0.27
		S149.97,389.27,149.97,389.42z"/>
	<path class="st2" d="M117.46,389.93c-8.68,0-16.93,0-22.98,0c-9.68,0-9.68,0-9.68-0.41s0-0.34,9.68-0.41c6.14,0,14.3,0,22.98,0
		s16.93,0,23.01,0c9.68,0,9.68,0,9.68,0.41s0,0.34-9.68,0.41C134.32,389.9,126.14,389.93,117.46,389.93z M101.97,389.42
		L101.97,389.42z"/>
	<path class="st2" d="M194.75,418.3c0,0.15-14.51,0.24-32.51,0.24s-32.51,0-32.51-0.24c0-0.24,14.51-0.27,32.51-0.27
		S194.75,418.16,194.75,418.3z"/>
	<path class="st2" d="M162.23,418.79c-8.71,0-16.93,0-23.01,0c-9.68,0-9.68,0-9.68-0.41c0-0.41,0-0.34,9.68-0.44
		c6.14,0,14.32,0,23.01,0c8.68,0,16.93,0,22.98,0c9.68,0,9.68,0,9.68,0.44s0,0.34-9.68,0.41
		C179.07,418.76,170.92,418.79,162.23,418.79z M146.75,418.3h30.96h-15.48H146.75z"/>
	<path class="st2" d="M175.42,399.05c0,0.15-14.51,0.27-32.51,0.27s-32.51-0.12-32.51-0.27c0-0.15,14.51-0.27,32.51-0.27
		S175.42,398.9,175.42,399.05z"/>
	<path class="st2" d="M142.9,399.53c-8.68,0-16.93,0-22.98,0c-9.68,0-9.68,0-9.68-0.41c0-0.41,0-0.34,9.68-0.41
		c6.14,0,14.3,0,22.98,0s16.93,0,23.01,0c9.68,0,9.68,0,9.68,0.41c0,0.41,0,0.34-9.68,0.41
		C159.77,399.51,151.59,399.53,142.9,399.53z M127.52,399.05L127.52,399.05z"/>
	<path class="st2" d="M254.88,399.05c0,0.15-14.51,0.27-32.51,0.27s-32.51-0.12-32.51-0.27c0-0.15,14.51-0.27,32.51-0.27
		S254.88,398.9,254.88,399.05z"/>
	<path class="st2" d="M222.32,399.53c-8.68,0-16.93,0-22.98,0c-9.68,0-9.68,0-9.68-0.41c0-0.41,0-0.34,9.68-0.41
		c6.14,0,14.3,0,22.98,0s16.93,0,22.98,0c9.68,0,9.68,0,9.68,0.41c0,0.41,0,0.34-9.68,0.41
		C239.26,399.51,231.06,399.53,222.32,399.53z M206.94,399.05L206.94,399.05z"/>
	<path class="st2" d="M227.16,379.79c0,0.15-14.51,0.27-32.51,0.27s-32.51-0.12-32.51-0.27s14.51-0.24,32.51-0.24
		S227.16,379.65,227.16,379.79z"/>
	<path class="st2" d="M194.75,380.3c-8.68,0-16.93,0-23.01,0c-9.68,0-9.68,0-9.68-0.44s0-0.34,9.68-0.41c6.14,0,14.32,0,23.01,0
		c8.68,0,16.93,0,22.98,0c9.68,0,9.68,0,9.68,0.41c0,0.41,0,0.34-9.68,0.44C211.58,380.28,203.43,380.3,194.75,380.3z
		 M179.36,379.79h15.39h15.39H179.36z"/>
	<path class="st2" d="M272.18,418.3c0,0.15-14.51,0.24-32.51,0.24s-32.54,0-32.54-0.24c0-0.24,14.51-0.27,32.54-0.27
		S272.18,418.16,272.18,418.3z"/>
	<path class="st2" d="M239.67,418.79c-8.71,0-16.93,0-23.01,0c-9.68,0-9.68,0-9.68-0.41c0-0.41,0-0.34,9.68-0.44
		c6.14,0,14.32,0,23.01,0c8.68,0,16.93,0,22.98,0c9.68,0,9.68,0,9.68,0.44s0,0.34-9.68,0.41
		C256.5,418.76,248.35,418.79,239.67,418.79z M224.19,418.3h30.94h-15.46H224.19z"/>
	<path class="st6" d="M263.21,389.42c0,0.15-22.62,0.27-50.49,0.27s-50.49,0-50.49-0.27c0-0.27,22.59-0.27,50.49-0.27
		S263.21,389.27,263.21,389.42z"/>
	<path class="st6" d="M212.65,389.93c-13.5,0-26.17,0-35.71,0c-10.72,0-13.79,0-14.66-0.19l0,0c-0.29,0-0.29-0.12-0.29-0.22
		s0-0.15,0.29-0.19l0,0c0.87-0.12,3.97-0.15,14.66-0.19c9.53,0,22.21,0,35.71,0s26.15,0,35.71,0c10.69,0,13.76,0,14.66,0.19l0,0
		c0.29,0,0.29,0.12,0.29,0.19s0,0.15-0.29,0.22l0,0c-0.9,0-3.97,0.15-14.66,0.19C238.89,389.9,226.19,389.93,212.65,389.93z
		 M188.82,389.42L188.82,389.42z"/>
	<path class="st2" d="M85.62,360.56c0,0.15-5.3,0.27-11.81,0.27s-11.78-0.12-11.78-0.27s5.27-0.27,11.78-0.27
		S85.62,360.41,85.62,360.56z"/>
	<path class="st2" d="M73.82,361.04c-12.1,0-12.1-0.22-12.1-0.48s0-0.51,12.1-0.51s12.1,0.24,12.1,0.51S85.84,361.04,73.82,361.04z
		 M68.23,360.56L68.23,360.56z"/>
	<path class="st2" d="M85.62,476.02c0,0.15-5.3,0.27-11.81,0.27s-11.78-0.12-11.78-0.27s5.27-0.27,11.78-0.27
		S85.62,475.88,85.62,476.02z"/>
	<path class="st2" d="M73.82,476.53c-12.1,0-12.1-0.24-12.1-0.51c0-0.27,0-0.48,12.1-0.48s12.1,0.22,12.1,0.48
		C85.91,476.29,85.84,476.53,73.82,476.53z M68.23,476.02L68.23,476.02z"/>
	<path class="st2" d="M97.3,399.05c0,0.15-5.3,0.27-11.81,0.27c-6.51,0-11.78-0.12-11.78-0.27c0-0.15,5.27-0.27,11.78-0.27
		C92.01,398.78,97.3,398.9,97.3,399.05z"/>
	<path class="st2" d="M85.5,399.53c-12.1,0-12.1-0.22-12.1-0.48c0-0.27,0-0.48,12.1-0.48s12.1,0.22,12.1,0.48
		C97.6,399.31,97.52,399.53,85.5,399.53z M79.94,399.05L79.94,399.05z"/>
	<path class="st5" d="M286.31,399.05c0,0.15-5.27,0.27-11.81,0.27c-6.53,0-11.78-0.12-11.78-0.27c0-0.15,5.27-0.27,11.78-0.27
		S286.31,398.9,286.31,399.05z"/>
	<path class="st5" d="M274.5,399.53c-12.1,0-12.1-0.22-12.1-0.48c0-0.27,0-0.48,12.1-0.48c12.1,0,12.1,0.22,12.1,0.48
		C286.6,399.31,286.53,399.53,274.5,399.53z M268.94,399.05L268.94,399.05z"/>
	<path class="st5" d="M118.45,437.49c0,0.15-9.87,0.27-22.06,0.27s-22.06,0-22.06-0.27c0-0.27,9.89-0.27,22.06-0.27
		S118.45,437.34,118.45,437.49z"/>
	<path class="st5" d="M96.39,437.97c-5.88,0-11.42,0-15.6,0c-6.68,0-6.68,0-6.68-0.41c0-0.41,0-0.34,6.68-0.44c4.16,0,9.68,0,15.6,0
		c5.93,0,11.44,0,15.6,0c6.7,0,6.7,0,6.7,0.44s0,0.34-6.7,0.41C107.83,437.95,102.29,437.97,96.39,437.97z M85.89,437.49h21h-10.5
		H85.89z"/>
	<path class="st2" d="M169.47,437.49c0,0.15-9.87,0.27-22.06,0.27s-22.06,0-22.06-0.27c0-0.27,9.89-0.27,22.06-0.27
		S169.47,437.34,169.47,437.49z"/>
	<path class="st2" d="M147.33,437.97c-5.88,0-11.42,0-15.6,0c-6.68,0-6.68,0-6.68-0.41c0-0.41,0-0.34,6.68-0.44
		c4.19,0,9.68,0,15.6,0s11.44,0,15.6,0c6.7,0,6.7,0,6.7,0.44s0,0.34-6.7,0.41C158.85,437.95,153.31,437.97,147.33,437.97z
		 M136.83,437.49h21h-10.5H136.83z"/>
	<path class="st2" d="M149.97,447.11c0,0.15-14.51,0.24-32.51,0.24s-32.51,0-32.51-0.24c0-0.24,14.51-0.27,32.51-0.27
		S149.97,446.97,149.97,447.11z"/>
	<path class="st2" d="M117.46,447.6c-8.68,0-16.93,0-22.98,0c-9.68,0-9.68,0-9.68-0.41c0-0.41,0-0.34,9.68-0.44
		c6.14,0,14.3,0,22.98,0s16.93,0,23.01,0c9.68,0,9.68,0,9.68,0.44c0,0.44,0,0.34-9.68,0.41C134.32,447.57,126.14,447.6,117.46,447.6
		z M102.07,447.11h30.75h-15.39H102.07z"/>
	<path class="st2" d="M149.97,456.72c0,0.15-14.51,0.27-32.51,0.27s-32.51-0.12-32.51-0.27s14.51-0.27,32.51-0.27
		S149.97,456.57,149.97,456.72z"/>
	<path class="st2" d="M117.46,457.23c-8.68,0-16.93,0-22.98,0c-9.68,0-9.68,0-9.68-0.44c0-0.44,0-0.34,9.68-0.41
		c6.14,0,14.3,0,22.98,0s16.93,0,23.01,0c9.68,0,9.68,0,9.68,0.41c0,0.41,0,0.34-9.68,0.44
		C134.32,457.2,126.14,457.23,117.46,457.23z M101.97,456.72h15.48h15.48H101.97z"/>
	<path class="st2" d="M175.42,466.35c0,0.15-14.51,0.27-32.51,0.27s-32.51-0.12-32.51-0.27s14.51-0.27,32.51-0.27
		S175.42,466.2,175.42,466.35z"/>
	<path class="st2" d="M142.9,466.85c-8.68,0-16.93,0-22.98,0c-9.68,0-9.68,0-9.68-0.41c0-0.41,0-0.34,9.68-0.41
		c6.12,0,14.3,0,22.98,0s16.93,0,23.01,0c9.68,0,9.68,0,9.68,0.41c0,0.41,0,0.34-9.68,0.41
		C159.77,466.81,151.59,466.85,142.9,466.85z M127.42,466.35L127.42,466.35z"/>
	<path class="st2" d="M254.88,466.35c0,0.15-14.51,0.27-32.51,0.27s-32.51-0.12-32.51-0.27s14.51-0.27,32.51-0.27
		S254.88,466.2,254.88,466.35z"/>
	<path class="st2" d="M222.32,466.85c-8.68,0-16.93,0-22.98,0c-9.68,0-9.68,0-9.68-0.41c0-0.41,0-0.34,9.68-0.41
		c6.12,0,14.3,0,22.98,0s16.93,0,22.98,0c9.68,0,9.68,0,9.68,0.41c0,0.41,0,0.34-9.68,0.41
		C239.26,466.81,231.06,466.85,222.32,466.85z M206.84,466.35L206.84,466.35z"/>
	<path class="st2" d="M227.16,447.11c0,0.15-14.51,0.24-32.51,0.24s-32.51,0-32.51-0.24c0-0.24,14.51-0.27,32.51-0.27
		S227.16,446.97,227.16,447.11z"/>
	<path class="st2" d="M194.75,447.6c-8.68,0-16.93,0-23.01,0c-9.68,0-9.68,0-9.68-0.41c0-0.41,0-0.34,9.68-0.44
		c6.14,0,14.32,0,23.01,0c8.68,0,16.93,0,22.98,0c9.68,0,9.68,0,9.68,0.44c0,0.44,0,0.34-9.68,0.41
		C211.58,447.57,203.43,447.6,194.75,447.6z M179.36,447.11h30.87h-15.39H179.36z"/>
	<path class="st6" d="M263.21,456.72c0,0.15-22.62,0.27-50.49,0.27s-50.49-0.12-50.49-0.27s22.59-0.27,50.49-0.27
		S263.21,456.57,263.21,456.72z"/>
	<path class="st6" d="M212.65,457.23c-13.5,0-26.17,0-35.71,0c-10.72,0-13.79,0-14.66-0.22l0,0c-0.29,0-0.29-0.12-0.29-0.22
		s0-0.15,0.29-0.19l0,0c0.87,0,3.97-0.15,14.66-0.19c9.53,0,22.21,0,35.71,0s26.15,0,35.71,0c10.69,0,13.76,0,14.66,0.19l0,0
		c0.29,0,0.29,0.12,0.29,0.19s0,0.17-0.29,0.22l0,0c-0.9,0-3.97,0.15-14.66,0.22C238.89,457.2,226.19,457.23,212.65,457.23z
		 M188.82,456.72h23.83h23.83C236.47,456.72,188.82,456.72,188.82,456.72z"/>
	<path class="st2" d="M97.3,466.35c0,0.15-5.3,0.27-11.81,0.27c-6.51,0-11.78-0.12-11.78-0.27s5.27-0.27,11.78-0.27
		C92.01,466.08,97.3,466.2,97.3,466.35z"/>
	<path class="st2" d="M85.5,466.85c-12.1,0-12.1-0.24-12.1-0.51c0-0.27,0-0.48,12.1-0.48s12.1,0.22,12.1,0.48
		C97.6,466.61,97.52,466.85,85.5,466.85z M79.89,466.35L79.89,466.35z"/>
	<path class="st5" d="M286.31,466.35c0,0.15-5.27,0.27-11.81,0.27c-6.53,0-11.78-0.12-11.78-0.27s5.27-0.27,11.78-0.27
		S286.31,466.2,286.31,466.35z"/>
	<path class="st5" d="M274.5,466.85c-12.1,0-12.1-0.24-12.1-0.51c0-0.27,0-0.48,12.1-0.48c12.1,0,12.1,0.22,12.1,0.48
		C286.6,466.61,286.53,466.85,274.5,466.85z M268.91,466.35L268.91,466.35z"/>
	<rect x="259.82" y="578.47" class="st4" width="174.83" height="101.87"/>
	<path class="st2" d="M273.51,675.21c0,0-0.17-20.83-0.17-46.52s0-46.52,0.17-46.52c0.17,0,0.17,20.83,0.17,46.52
		S273.58,675.21,273.51,675.21z"/>
	<path class="st2" d="M273.51,675.35c0,0,0,0-0.15-0.17l0,0c0-0.34,0-1.23,0-3.6s0-5.76,0-9.97c0-8.78,0-20.47,0-32.9
		c0-12.43,0-24.19,0-32.9c0-4.21,0-7.62,0-9.97s0-3.27,0-3.6l0,0c0-0.17,0-0.17,0.15-0.17c0.15,0,0,0,0.12,0.17l0,0
		c0,0.34,0,1.23,0,3.6s0,5.76,0,9.97c0,8.78,0,20.47,0,32.9c0,12.43,0,24.19,0,32.9c0,4.21,0,7.62,0,9.97s0,3.27,0,3.6l0,0
		C273.61,675.35,273.56,675.35,273.51,675.35z M273.51,606.87c0,6.53,0,13.96,0,21.77c0,7.81,0,15.29,0,21.77V606.87z"/>
	<path class="st2" d="M269.91,586.09c-0.96,0.17-1.93,0.23-2.9,0.17c-0.96,0.06-1.93,0-2.88-0.17c0.95-0.17,1.92-0.23,2.88-0.17
		C267.97,585.86,268.95,585.92,269.91,586.09z"/>
	<path class="st2" d="M267,586.4c-3.02,0-3.02-0.17-3.02-0.31c0-0.15,0-0.31,3.02-0.31c3.02,0,3.05,0.17,3.05,0.31
		C270.05,586.24,270.05,586.4,267,586.4z M265.65,586.09L265.65,586.09z"/>
	<path class="st2" d="M269.91,592.23c-0.96,0.16-1.93,0.21-2.9,0.17c-0.96,0.04-1.93-0.01-2.88-0.17c0.95-0.17,1.92-0.23,2.88-0.17
		C267.97,592.01,268.95,592.07,269.91,592.23z"/>
	<path class="st2" d="M267,592.55c-3.02,0-3.02-0.19-3.02-0.31c0-0.12,0-0.31,3.02-0.31c3.02,0,3.05,0.17,3.05,0.31
		S270.05,592.55,267,592.55z M265.62,592.23L265.62,592.23z"/>
	<path class="st2" d="M269.91,598.36c-0.96,0.17-1.93,0.23-2.9,0.17c-0.96,0.06-1.93,0-2.88-0.17c0.95-0.17,1.92-0.23,2.88-0.17
		C267.97,598.13,268.95,598.19,269.91,598.36z"/>
	<path class="st2" d="M267,598.67c-3.02,0-3.02-0.17-3.02-0.31s0-0.31,3.02-0.31c3.02,0,3.05,0.17,3.05,0.31
		S270.05,598.67,267,598.67z M265.65,598.36L265.65,598.36z"/>
	<path class="st2" d="M269.91,604.48c-0.96,0.17-1.93,0.23-2.9,0.17c-0.96,0.06-1.93,0-2.88-0.17c0.95-0.14,1.92-0.19,2.88-0.15
		C267.97,604.29,268.95,604.34,269.91,604.48z"/>
	<path class="st2" d="M267,604.79c-3.02,0-3.02-0.17-3.02-0.31s0-0.31,3.02-0.31c3.02,0,3.05,0.19,3.05,0.31
		C270.05,604.6,270.05,604.79,267,604.79z M265.65,604.48L265.65,604.48z"/>
	<path class="st2" d="M269.91,610.62c-0.96,0.17-1.93,0.23-2.9,0.17c-0.96,0.06-1.93,0-2.88-0.17c0.95-0.17,1.92-0.23,2.88-0.17
		C267.97,610.39,268.95,610.45,269.91,610.62z"/>
	<path class="st2" d="M267,610.93c-3.02,0-3.02-0.17-3.02-0.31c0-0.15,0-0.31,3.02-0.31c3.02,0,3.05,0.17,3.05,0.31
		C270.05,610.76,270.05,610.93,267,610.93z M265.62,610.62L265.62,610.62z"/>
	<path class="st2" d="M269.91,616.74c-0.96,0.17-1.93,0.23-2.9,0.17c-0.96,0.06-1.93,0-2.88-0.17c0.95-0.16,1.92-0.21,2.88-0.17
		C267.97,616.53,268.95,616.58,269.91,616.74z"/>
	<path class="st2" d="M267,617.05c-3.02,0-3.02-0.17-3.02-0.31s0-0.31,3.02-0.31c3.02,0,3.05,0.19,3.05,0.31
		C270.05,616.86,270.05,617.05,267,617.05z M265.65,616.74L265.65,616.74z"/>
	<path class="st2" d="M269.91,622.88c-0.96,0.17-1.93,0.23-2.9,0.17c-0.96,0.06-1.93,0-2.88-0.17c0.95-0.17,1.92-0.23,2.88-0.17
		C267.97,622.66,268.95,622.71,269.91,622.88z"/>
	<path class="st2" d="M267,623.2c-3.02,0-3.02-0.17-3.02-0.31s0-0.31,3.02-0.31c3.02,0,3.05,0.17,3.05,0.31S270.05,623.2,267,623.2z
		 M265.65,622.88L265.65,622.88z"/>
	<path class="st2" d="M269.91,629c-0.96,0.17-1.93,0.23-2.9,0.17c-0.96,0.06-1.93,0-2.88-0.17c0.95-0.17,1.92-0.23,2.88-0.17
		C267.97,628.78,268.95,628.83,269.91,629z"/>
	<path class="st2" d="M267,629.32c-3.02,0-3.02-0.17-3.02-0.31s0-0.31,3.02-0.31c3.02,0,3.05,0.17,3.05,0.31
		S270.05,629.32,267,629.32z M265.62,629L265.62,629z"/>
	<path class="st2" d="M269.91,635.13c-0.96,0.16-1.93,0.21-2.9,0.17c-0.96,0.04-1.93-0.01-2.88-0.17c0.95-0.17,1.92-0.23,2.88-0.17
		C267.97,634.9,268.95,634.96,269.91,635.13z"/>
	<path class="st2" d="M267,635.46c-3.02,0-3.02-0.19-3.02-0.31c0-0.12,0-0.31,3.02-0.31c3.02,0,3.05,0.17,3.05,0.31
		C270.05,635.29,270.05,635.46,267,635.46z M265.65,635.15L265.65,635.15z"/>
	<path class="st2" d="M269.91,641.27c-0.96,0.17-1.93,0.23-2.9,0.17c-0.96,0.06-1.93,0-2.88-0.17c0.95-0.17,1.92-0.23,2.88-0.17
		C267.97,641.04,268.95,641.1,269.91,641.27z"/>
	<path class="st2" d="M267,641.58c-3.02,0-3.02-0.17-3.02-0.31s0-0.31,3.02-0.31c3.02,0,3.05,0.17,3.05,0.31
		S270.05,641.58,267,641.58z M265.65,641.27L265.65,641.27z"/>
	<path class="st2" d="M269.91,647.41c-0.96,0.14-1.93,0.19-2.9,0.15c-0.96,0.04-1.93,0-2.88-0.15c0.95-0.17,1.92-0.23,2.88-0.17
		C267.97,647.19,268.95,647.24,269.91,647.41z"/>
	<path class="st2" d="M267,647.73c-3.02,0-3.02-0.19-3.02-0.31c0-0.12,0-0.34,3.02-0.34c3.02,0,3.05,0.19,3.05,0.34
		S270.05,647.73,267,647.73z M265.62,647.41L265.62,647.41z"/>
	<path class="st2" d="M269.91,653.53c-0.96,0.17-1.93,0.23-2.9,0.17c-0.96,0.06-1.93,0-2.88-0.17c0.95-0.17,1.92-0.23,2.88-0.17
		C267.97,653.31,268.95,653.36,269.91,653.53z"/>
	<path class="st2" d="M267,653.85c-3.02,0-3.02-0.17-3.02-0.31s0-0.31,3.02-0.31c3.02,0,3.05,0.17,3.05,0.31
		S270.05,653.85,267,653.85z M265.65,653.53L265.65,653.53z"/>
	<path class="st2" d="M269.91,659.65c-0.96,0.17-1.93,0.23-2.9,0.17c-0.96,0.06-1.93,0-2.88-0.17c0.95-0.16,1.92-0.21,2.88-0.17
		C267.97,659.44,268.95,659.5,269.91,659.65z"/>
	<path class="st2" d="M267,659.97c-3.02,0-3.02-0.17-3.02-0.31s0-0.31,3.02-0.31c3.02,0,3.05,0.19,3.05,0.31
		C270.05,659.78,270.05,659.97,267,659.97z M265.65,659.65L265.65,659.65z"/>
	<path class="st2" d="M269.91,665.8c-0.96,0.17-1.93,0.23-2.9,0.17c-0.96,0.06-1.93,0-2.88-0.17c0.95-0.17,1.92-0.23,2.88-0.17
		C267.97,665.57,268.95,665.63,269.91,665.8z"/>
	<path class="st2" d="M267,666.11c-3.02,0-3.02-0.17-3.02-0.31s0-0.31,3.02-0.31c3.02,0,3.05,0.17,3.05,0.31
		S270.05,666.11,267,666.11z M265.62,665.8L265.62,665.8z"/>
	<path class="st2" d="M269.91,671.92c-0.96,0.17-1.93,0.23-2.9,0.17c-0.96,0.06-1.93,0-2.88-0.17c0.95-0.17,1.92-0.23,2.88-0.17
		C267.97,671.69,268.95,671.75,269.91,671.92z"/>
	<path class="st2" d="M267,672.23c-3.02,0-3.02-0.17-3.02-0.31s0-0.31,3.02-0.31c3.02,0,3.05,0.17,3.05,0.31
		S270.05,672.23,267,672.23z M265.65,671.92L265.65,671.92z"/>
	<path class="st5" d="M293.11,585.73c0,0-3.36,0.17-7.5,0.17s-7.52,0-7.52-0.17c0-0.17,3.36-0.17,7.52-0.17
		S293.11,585.63,293.11,585.73z"/>
	<path class="st5" d="M285.61,586.04c-7.67,0-7.67-0.15-7.67-0.31c0-0.17,0-0.31,7.67-0.31c7.67,0,7.64,0.15,7.64,0.31
		C293.25,585.9,293.25,586.04,285.61,586.04z M282.03,585.73L282.03,585.73z"/>
	<path class="st5" d="M293.11,671.92c0,0-3.36,0.17-7.5,0.17s-7.52,0-7.52-0.17s3.36-0.17,7.52-0.17S293.11,671.82,293.11,671.92z"
		/>
	<path class="st5" d="M285.61,672.23c-7.67,0-7.67-0.15-7.67-0.31s0-0.31,7.67-0.31c7.67,0,7.64,0.15,7.64,0.31
		S293.25,672.23,285.61,672.23z M282.05,671.92L282.05,671.92z"/>
	<path class="st5" d="M314.03,598.36c0,0-6.29,0.17-14.05,0.17c-7.77,0-14.05,0-14.05-0.17s6.29-0.17,14.05-0.17
		C307.74,598.19,314.03,598.26,314.03,598.36z"/>
	<path class="st5" d="M299.98,598.67h-9.94c-4.26,0-4.26,0-4.26-0.27c0-0.27,0-0.22,4.26-0.27h9.94h9.94c4.26,0,4.26,0,4.26,0.27
		c0,0.27,0,0.22-4.26,0.27H299.98z M293.32,598.36L293.32,598.36z"/>
	<path class="st2" d="M346.54,598.36c0,0-6.29,0.17-14.05,0.17c-7.77,0-14.05,0-14.05-0.17s6.29-0.17,14.05-0.17
		C340.25,598.19,346.54,598.26,346.54,598.36z"/>
	<path class="st2" d="M332.49,598.67h-9.94c-4.26,0-4.26,0-4.26-0.27c0-0.27,0-0.22,4.26-0.27h9.94h9.94c4.26,0,4.26,0,4.26,0.27
		c0,0.27,0,0.22-4.26,0.27H332.49z M325.84,598.36L325.84,598.36z"/>
	<path class="st2" d="M334.13,604.48c0,0-9.29,0.17-20.73,0.17c-11.44,0-20.71,0-20.71-0.17c0-0.17,9.27-0.15,20.71-0.15
		C324.84,604.33,334.13,604.4,334.13,604.48z"/>
	<path class="st2" d="M313.4,604.79c-5.54,0-10.74,0-14.64,0c-6.22,0-6.22,0-6.22-0.27s0-0.19,6.22-0.27h14.64h14.66
		c6.22,0,6.22,0,6.22,0.27s0,0.22-6.22,0.27C324.14,604.79,318.94,604.79,313.4,604.79z M303.6,604.48L303.6,604.48z"/>
	<path class="st2" d="M334.13,610.62c0,0-9.29,0.17-20.73,0.17c-11.44,0-20.71,0-20.71-0.17c0-0.17,9.27-0.17,20.71-0.17
		C324.84,610.45,334.13,610.52,334.13,610.62z"/>
	<path class="st2" d="M313.4,610.93h-14.64c-6.22,0-6.22,0-6.22-0.27s0-0.22,6.22-0.27h14.64h14.66c6.22,0,6.22,0,6.22,0.27
		s0,0.22-6.22,0.27H313.4z M303.56,610.62L303.56,610.62z"/>
	<path class="st2" d="M362.63,629c0,0-9.27,0.17-20.71,0.17s-20.71,0-20.71-0.17c0-0.17,9.27-0.17,20.71-0.17
		S362.63,628.91,362.63,629z"/>
	<path class="st2" d="M341.92,629.32c-5.54,0-10.74,0-14.64,0c-6.22,0-6.22,0-6.22-0.27s0-0.22,6.22-0.27h14.64h14.66
		c6.22,0,6.22,0,6.22,0.27s0,0.22-6.22,0.27C352.66,629.32,347.46,629.32,341.92,629.32z M332.05,629L332.05,629z"/>
	<path class="st2" d="M350.34,616.74c0,0-9.29,0.17-20.73,0.17s-20.71,0-20.71-0.17s9.27-0.17,20.71-0.17
		S350.34,616.67,350.34,616.74z"/>
	<path class="st2" d="M329.61,617.05c-5.52,0-10.72,0-14.51,0c-6.22,0-6.22,0-6.22-0.27s0-0.22,6.22-0.27h14.51h14.66
		c6.22,0,6.22,0,6.22,0.27s0,0.22-6.22,0.27C340.35,617.05,335.15,617.05,329.61,617.05z M319.93,616.74L319.93,616.74z"/>
	<path class="st2" d="M400.97,616.74c0,0-9.29,0.17-20.73,0.17s-20.71,0-20.71-0.17s9.27-0.17,20.71-0.17
		S400.97,616.67,400.97,616.74z"/>
	<path class="st2" d="M380.24,617.05c-5.52,0-10.72,0-14.64,0c-6.22,0-6.22,0-6.22-0.27s0-0.22,6.22-0.27h14.64h14.66
		c6.22,0,6.22,0,6.22,0.27s0,0.22-6.22,0.27C390.98,617.05,385.78,617.05,380.24,617.05z M370.44,616.74L370.44,616.74z"/>
	<path class="st2" d="M383.36,604.48c0,0-9.29,0.17-20.73,0.17c-11.44,0-20.71,0-20.71-0.17c0-0.17,9.27-0.15,20.71-0.15
		C374.07,604.33,383.36,604.4,383.36,604.48z"/>
	<path class="st2" d="M362.63,604.79c-5.52,0-10.72,0-14.64,0c-6.22,0-6.22,0-6.22-0.27s0-0.19,6.22-0.27h14.64h14.66
		c6.22,0,6.22,0,6.22,0.27s0,0.22-6.22,0.27C373.37,604.79,368.17,604.79,362.63,604.79z M352.83,604.48L352.83,604.48z"/>
	<path class="st2" d="M411.98,629c0,0-9.29,0.17-20.71,0.17c-11.42,0-20.73,0-20.73-0.17c0-0.17,9.27-0.17,20.73-0.17
		C402.74,628.84,411.98,628.91,411.98,629z"/>
	<path class="st2" d="M391.27,629.32c-5.54,0-10.74,0-14.66,0c-6.22,0-6.22,0-6.22-0.27s0-0.22,6.22-0.27h14.66h14.51
		c6.22,0,6.22,0,6.22,0.27s0,0.22-6.22,0.27C401.99,629.32,396.79,629.32,391.27,629.32z M381.4,629L381.4,629z"/>
	<path class="st6" d="M406.17,610.62c0,0-14.51,0.17-32.17,0.17s-32.17,0-32.17-0.17c0-0.17,14.39-0.17,32.17-0.17
		C391.78,610.45,406.17,610.52,406.17,610.62z"/>
	<path class="st6" d="M374.1,610.93h-22.74c-6.82,0-8.78,0-9.36-0.15l0,0c-0.19,0-0.19,0-0.19-0.12s0,0,0.19-0.12l0,0
		c0.58,0,2.54,0,9.36-0.12h22.74h22.74c6.82,0,8.78,0,9.34,0.12l0,0c0.19,0,0.19,0,0.19,0.12s0,0-0.19,0.12l0,0
		c-0.56,0-2.42,0-9.34,0.15H374.1z M358.9,610.62L358.9,610.62z"/>
	<path class="st2" d="M293.11,592.23c0,0-3.36,0.17-7.5,0.17s-7.52,0-7.52-0.17c0-0.17,3.36-0.17,7.52-0.17
		S293.11,592.14,293.11,592.23z"/>
	<path class="st2" d="M285.61,592.55c-7.67,0-7.67-0.15-7.67-0.31c0-0.17,0-0.31,7.67-0.31c7.67,0,7.64,0.15,7.64,0.31
		C293.25,592.4,293.25,592.55,285.61,592.55z M282.03,592.23L282.03,592.23z"/>
	<path class="st2" d="M293.11,665.8c0,0-3.36,0.17-7.5,0.17s-7.52,0-7.52-0.17c0-0.17,3.36-0.17,7.52-0.17
		S293.11,665.7,293.11,665.8z"/>
	<path class="st2" d="M285.61,666.11c-7.67,0-7.67-0.15-7.67-0.31c0-0.17,0-0.31,7.67-0.31c7.67,0,7.64,0.15,7.64,0.31
		C293.25,665.97,293.25,666.11,285.61,666.11z M282.03,665.8L282.03,665.8z"/>
	<path class="st2" d="M300.56,616.74c0,0-3.36,0.17-7.52,0.17c-4.16,0-7.5,0-7.5-0.17s3.36-0.17,7.5-0.17
		C297.17,616.57,300.56,616.67,300.56,616.74z"/>
	<path class="st2" d="M293.06,617.05c-7.67,0-7.67-0.15-7.67-0.31s0-0.31,7.67-0.31c7.67,0,7.64,0.15,7.64,0.31
		S300.7,617.05,293.06,617.05z M289.5,616.74L289.5,616.74z"/>
	<path class="st5" d="M420.98,616.74c0,0-3.36,0.17-7.5,0.17s-7.52,0-7.52-0.17s3.36-0.17,7.52-0.17S420.98,616.67,420.98,616.74z"
		/>
	<path class="st5" d="M413.43,617.05c-7.67,0-7.67-0.15-7.67-0.31s0-0.31,7.67-0.31c7.67,0,7.64,0.15,7.64,0.31
		S421.12,617.05,413.43,617.05z M409.87,616.74L409.87,616.74z"/>
	<path class="st5" d="M314.03,641.25c0,0-6.29,0.17-14.05,0.17c-7.77,0-14.05,0-14.05-0.17s6.29-0.17,14.05-0.17
		C307.74,641.08,314.03,641.15,314.03,641.25z"/>
	<path class="st5" d="M299.98,641.56h-9.94c-4.26,0-4.26,0-4.26-0.27c0-0.27,0-0.22,4.26-0.27c2.66,0,6.19,0,9.94,0s7.26,0,9.94,0
		c4.26,0,4.26,0,4.26,0.27c0,0.27,0,0.19-4.26,0.27H299.98z M293.3,641.25L293.3,641.25z"/>
	<path class="st2" d="M346.54,641.25c0,0-6.29,0.17-14.05,0.17c-7.77,0-14.05,0-14.05-0.17s6.29-0.17,14.05-0.17
		C340.25,641.08,346.54,641.15,346.54,641.25z"/>
	<path class="st2" d="M332.49,641.56h-9.94c-4.26,0-4.26,0-4.26-0.27c0-0.27,0-0.22,4.26-0.27c2.66,0,6.19,0,9.94,0
		c3.75,0,7.26,0,9.94,0c4.26,0,4.26,0,4.26,0.27c0,0.27,0,0.19-4.26,0.27H332.49z M325.81,641.25L325.81,641.25z"/>
	<path class="st2" d="M334.13,647.37c0,0-9.29,0.17-20.73,0.17c-11.44,0-20.71,0-20.71-0.17c0-0.17,9.27-0.17,20.71-0.17
		C324.84,647.2,334.13,647.22,334.13,647.37z"/>
	<path class="st2" d="M313.4,647.68h-14.64c-6.22,0-6.22,0-6.22-0.27s0-0.22,6.22-0.27h14.64h14.66c6.22,0,6.22,0,6.22,0.27
		s0,0.22-6.22,0.27H313.4z M303.6,647.37L303.6,647.37z"/>
	<path class="st2" d="M334.13,653.49c0,0-9.29,0.17-20.73,0.17c-11.44,0-20.71,0-20.71-0.17s9.27-0.15,20.71-0.15
		C324.84,653.34,334.13,653.41,334.13,653.49z"/>
	<path class="st2" d="M313.4,653.82c-5.54,0-10.74,0-14.64,0c-6.22,0-6.22,0-6.22-0.27s0-0.19,6.22-0.27h14.64h14.66
		c6.22,0,6.22,0,6.22,0.27s0,0.22-6.22,0.27C324.14,653.8,318.94,653.82,313.4,653.82z M303.56,653.49L303.56,653.49z"/>
	<path class="st2" d="M350.34,659.63c0,0-9.29,0.17-20.73,0.17s-20.71,0-20.71-0.17s9.27-0.17,20.71-0.17
		S350.34,659.53,350.34,659.63z"/>
	<path class="st2" d="M329.61,659.94h-14.51c-6.22,0-6.22,0-6.22-0.27c0-0.27,0-0.22,6.22-0.27h14.51h14.66c6.22,0,6.22,0,6.22,0.27
		c0,0.27,0,0.22-6.22,0.27H329.61z M319.76,659.63L319.76,659.63z"/>
	<path class="st2" d="M400.97,659.63c0,0-9.29,0.17-20.73,0.17s-20.71,0-20.71-0.17s9.27-0.17,20.71-0.17
		S400.97,659.53,400.97,659.63z"/>
	<path class="st2" d="M380.24,659.94H365.6c-6.22,0-6.22,0-6.22-0.27c0-0.27,0-0.22,6.22-0.27h14.64h14.66c6.22,0,6.22,0,6.22,0.27
		c0,0.27,0,0.22-6.22,0.27H380.24z M370.39,659.63L370.39,659.63z"/>
	<path class="st2" d="M383.36,647.37c0,0-9.29,0.17-20.73,0.17c-11.44,0-20.71,0-20.71-0.17c0-0.17,9.27-0.17,20.71-0.17
		C374.07,647.2,383.36,647.22,383.36,647.37z"/>
	<path class="st2" d="M362.63,647.68h-14.64c-6.22,0-6.22,0-6.22-0.27s0-0.22,6.22-0.27h14.64h14.66c6.22,0,6.22,0,6.22,0.27
		s0,0.22-6.22,0.27H362.63z M352.83,647.37L352.83,647.37z"/>
	<path class="st6" d="M406.17,653.49c0,0-14.51,0.17-32.17,0.17s-32.17,0-32.17-0.17s14.39-0.15,32.17-0.15
		C391.78,653.34,406.17,653.41,406.17,653.49z"/>
	<path class="st6" d="M374.1,653.82c-8.61,0-16.67,0-22.74,0c-6.82,0-8.78,0-9.36-0.12l0,0c-0.19,0-0.19,0-0.19-0.15s0,0,0.19,0l0,0
		c0.58,0,2.54,0,9.36-0.15h22.74h22.74c6.82,0,8.78,0,9.34,0.15l0,0c0.19,0,0.19,0,0.19,0s0,0-0.19,0.15l0,0
		c-0.56,0-2.42,0-9.34,0.12C390.76,653.8,382.68,653.82,374.1,653.82z M358.9,653.49L358.9,653.49z"/>
	<path class="st2" d="M300.56,659.63c0,0-3.36,0.17-7.52,0.17c-4.16,0-7.5,0-7.5-0.17s3.36-0.17,7.5-0.17
		C297.17,659.46,300.56,659.53,300.56,659.63z"/>
	<path class="st2" d="M293.06,659.94c-7.67,0-7.67-0.15-7.67-0.31s0-0.31,7.67-0.31c7.67,0,7.64,0.15,7.64,0.31
		S300.7,659.94,293.06,659.94z M289.48,659.63L289.48,659.63z"/>
	<path class="st5" d="M420.98,659.63c0,0-3.36,0.17-7.5,0.17s-7.52,0-7.52-0.17s3.36-0.17,7.52-0.17S420.98,659.53,420.98,659.63z"
		/>
	<path class="st5" d="M413.43,659.94c-7.67,0-7.67-0.15-7.67-0.31s0-0.31,7.67-0.31c7.67,0,7.64,0.15,7.64,0.31
		S421.12,659.94,413.43,659.94z M409.85,659.63L409.85,659.63z"/>
</g>
<g id="freepik--speech-bubble--inject-75">
	<path class="st3" d="M756.94,596.83c0.25-41.5-33.19-75.34-74.68-75.59c-14.93-0.09-29.55,4.27-41.99,12.52l-30.89-6.7l9.29,28.59
		c-22.49,34.87-12.46,81.37,22.41,103.87c34.87,22.49,81.37,12.46,103.87-22.41c7.76-12.03,11.92-26.02,12-40.34V596.83z"/>
	<path class="st4" d="M756.94,596.83c0,0,0,0.44,0,1.28c0,0.85,0,2.18-0.17,3.82c0,0.82,0,1.77-0.15,2.81
		c-0.15,1.04-0.31,2.15-0.48,3.36c-0.17,1.21-0.39,2.42-0.6,3.92s-0.73,2.83-1.11,4.35c-0.91,3.43-2.05,6.79-3.41,10.06l-2.66,5.47
		c-0.92,1.89-2.18,3.7-3.34,5.66c-14.43,22.62-39.9,35.73-66.69,34.33c-1.72-0.12-3.48-0.12-5.25-0.34l-5.27-0.82
		c-7.27-1.38-14.3-3.83-20.85-7.26c-14.21-7.29-25.74-18.91-32.9-33.19c-0.85-1.89-1.84-3.7-2.56-5.64
		c-0.73-1.94-1.43-3.94-2.13-5.9c-0.7-1.96-1.04-4.06-1.57-6.12c-0.46-2.07-0.82-4.16-1.06-6.27c0-1.06-0.36-2.1-0.41-3.17
		l-0.15-3.22c-0.15-2.15-0.19-4.31-0.12-6.46c0.51-13.59,4.69-26.79,12.1-38.2v0.53l-9.27-28.59l-0.31-1.02l1.04,0.22l30.87,6.73
		H640c9.63-6.29,20.57-10.31,31.98-11.76c2.71-0.34,5.43-0.55,8.15-0.6c2.69-0.12,5.32,0.24,7.96,0.31c5.08,0.45,10.1,1.39,15,2.83
		c8.92,2.64,17.27,6.93,24.63,12.63c6.29,4.86,11.79,10.67,16.3,17.22c6.31,9.33,10.44,19.97,12.1,31.11
		c0.22,1.94,0.58,3.65,0.6,5.15c0.02,1.5,0,2.73,0,3.75c0,1.02,0,1.74,0,2.3c0.03,0.27,0.03,0.53,0,0.8c-0.03-0.27-0.03-0.53,0-0.8
		c0-0.56,0-1.31-0.17-2.27s-0.12-2.3-0.22-3.75c-0.1-1.45-0.44-3.19-0.7-5.1c-2.99-19-13.22-36.1-28.55-47.73
		c-11.33-8.71-24.94-13.94-39.19-15.07c-2.59,0-5.2-0.44-7.84-0.29c-2.69,0.05-5.37,0.25-8.03,0.6c-11.3,1.48-22.1,5.53-31.59,11.83
		l-0.19,0.15H640l-30.89-6.65l0.73-0.8l9.27,28.59v0.29l-0.17,0.24c-7.25,11.23-11.33,24.21-11.83,37.57
		c-0.07,2.12-0.03,4.24,0.12,6.36l0.15,3.14c0,1.04,0.27,2.08,0.39,3.12c0.24,2.07,0.6,4.13,1.06,6.17
		c0.51,2.01,0.97,4.04,1.52,6.02l2.08,5.81c0.73,1.91,1.72,3.7,2.54,5.54c6.99,14.09,18.29,25.58,32.27,32.8
		c6.46,3.37,13.38,5.77,20.54,7.11l5.2,0.82c1.72,0.22,3.46,0.24,5.15,0.36c3.37,0.17,6.75,0.12,10.11-0.15
		c22.81-1.98,43.44-14.33,55.95-33.5c1.14-1.94,2.42-3.73,3.36-5.59l2.66-5.39c1.38-3.23,2.55-6.55,3.48-9.94l1.16-4.33
		c0.24-1.38,0.46-2.69,0.65-3.89c0.19-1.21,0.39-2.3,0.56-3.34c0.17-1.04,0.15-1.96,0.22-2.78c0.12-1.62,0.22-2.9,0.27-3.8
		C756.6,597.39,756.94,596.83,756.94,596.83z"/>
	<path class="st5" d="M676.72,569.06c0,0,0-0.9-0.56-2.42c-0.62-2.1-1.91-3.94-3.68-5.23c-2.6-1.89-5.98-2.36-9-1.26
		c-4.9,1.82-7.39,7.27-5.57,12.16c0.96,2.58,2.99,4.61,5.57,5.57c3.02,1.1,6.39,0.63,9-1.26c1.77-1.29,3.06-3.13,3.68-5.23
		c0.44-1.5,0.44-2.42,0.56-2.42c0.18,0.8,0.18,1.62,0,2.42c-0.47,2.3-1.75,4.36-3.6,5.81c-2.8,2.22-6.55,2.85-9.92,1.64
		c-5.5-1.93-8.39-7.94-6.47-13.44c1.06-3.03,3.44-5.41,6.47-6.47c3.37-1.19,7.11-0.57,9.92,1.64c1.85,1.44,3.13,3.5,3.6,5.81
		C676.94,567.27,676.94,568.19,676.72,569.06z"/>
	<path class="st5" d="M676.72,623.17c0,5.53-4.48,10.01-10.02,10.01c-5.53,0-10.01-4.48-10.01-10.02c0-5.53,4.48-10.01,10.01-10.01
		C672.23,613.17,676.71,617.65,676.72,623.17z"/>
	<path class="st5" d="M708.56,623.17c-0.12,0-0.12-0.9-0.56-2.42c-0.63-2.09-1.92-3.93-3.68-5.23c-4.2-3.13-10.14-2.25-13.27,1.95
		c-3.13,4.2-2.25,10.14,1.95,13.27c3.36,2.5,7.96,2.5,11.32,0c1.77-1.29,3.06-3.13,3.68-5.23c0.44-1.48,0.44-2.42,0.56-2.42
		c0.18,0.8,0.18,1.62,0,2.42c-0.49,2.3-1.78,4.35-3.63,5.81c-2.8,2.22-6.55,2.85-9.92,1.64c-5.49-1.94-8.37-7.97-6.42-13.46
		c1.06-3,3.42-5.36,6.42-6.42c3.36-1.21,7.11-0.6,9.92,1.62c1.87,1.48,3.15,3.57,3.63,5.9
		C708.76,621.45,708.76,622.33,708.56,623.17z"/>
	<path class="st5" d="M666.71,579.05c0.62,5.69,0.83,11.41,0.63,17.13c0.2,5.71-0.01,11.42-0.63,17.1
		c-0.64-5.68-0.85-11.39-0.63-17.1C665.86,590.46,666.07,584.74,666.71,579.05z"/>
	<path class="st5" d="M684.51,591.94c-2.96-1.59-5.71-3.53-8.2-5.78c-0.24-0.25-0.24-0.64,0-0.9l0,0l0,0
		c2.53-2.25,5.24-4.28,8.1-6.07c0.31,0.34-2.98,3.51-7.26,7.04l0,0v-0.99C679.87,587.17,682.34,589.42,684.51,591.94z"/>
	<path class="st5" d="M676.72,585.51c2.07-0.35,4.17-0.49,6.27-0.44c3.92,0,9.36-0.17,15.51-0.19c0.35,0,0.63,0.28,0.63,0.63
		c0,0,0,0,0,0l0,0v2.93c0,6.82,0,13.01-0.19,17.49c0.07,2.43-0.07,4.86-0.44,7.26c-0.36-2.4-0.52-4.83-0.46-7.26
		c0-4.48-0.17-10.67-0.17-17.49v-2.93l0.63,0.63c-6.14,0-11.59,0-15.51-0.22C680.89,585.98,678.79,585.84,676.72,585.51z"/>
</g>
</svg>
