<?xml version="1.0" encoding="utf-8"?>
<!-- Generator: Adobe Illustrator 25.2.0, SVG Export Plug-In . SVG Version: 6.00 Build 0)  -->
<svg version="1.1" id="Layer_1" xmlns="http://www.w3.org/2000/svg" xmlns:xlink="http://www.w3.org/1999/xlink" x="0px" y="0px"
	 viewBox="0 0 1080 1080" style="enable-background:new 0 0 1080 1080;" xml:space="preserve">
<style type="text/css">
	.st0{fill:none;stroke:#009688;stroke-width:6;stroke-miterlimit:10;}
</style>
<g>
	<g>
		<g>
			<g>
				<path class="st0" d="M577.96,385.56c-32.58-27.1-77.59-14.36-115.18-4.96c-58.35,14.6-117.55,27.06-175.42,43.24
					c-19.97,5.58-42.2,12.99-55.97,28.22c-11.99,13.27-8.33,42.11-9.28,57.78c-3.07,50.6-3.26,102.03,10.23,151.41
					c-6.87,5.49-11.88,12.4-12.91,20.53c-1.98,15.74,14.74,36.03,32.61,26.6c2.06-1.09,1.31-4.74-1.28-4.43
					c-16.75,1.98-25.3-13.61-18.47-26.77c5.4-10.4,19.66-15.71,30.7-18.6c10.89-2.85,24.88-2.3,31.91,7.17
					c6.13,8.26-3.11,46.26-19.71,40.68c-4.53-1.52-6.74,4.65-3.12,6.91c21.82,13.63,32.72-18.62,35.57-32.95
					c3.84-19.34-10.23-30.52-27.67-32.88c0.23-39.15-5.1-78.47-7.35-117.54c-3.4-59.21,45.91-78.06,100.07-83.56
					c39.27-3.99,78.09-8.51,116.86-15.78c32.65-6.13,65.53-14.36,88.4-38.45C579.69,390.38,580.09,387.33,577.96,385.56z
					 M269.22,488.04c-3.79,8.17-6.32,17.23-7.2,27.49c-1.97,22.86,2.97,47.06,5.17,69.8c0.11,1.11,0.2,2.23,0.31,3.34
					C262.25,552.52,254.29,514.17,269.22,488.04z M274.17,647.06c-1.57-0.04-3.14-0.03-4.72,0.07c-0.32,0.02-0.66,0.07-0.99,0.1
					c0.13-0.3,0.32-0.54,0.39-0.88c1.64-7.17,2.17-15,2.01-23.26C271.75,631.11,272.83,639.11,274.17,647.06z M269.76,444.54
					c-72.51,33.72-26.8,149.51-13.33,201.81c0.28,1.09,0.92,1.92,1.69,2.6c-6.19,1.54-12.54,4.01-18.29,7.27
					C229.67,615.74,227.5,575,228.79,533.4c0.68-21.95,1.18-44.56,4.48-66.32c3.99-26.31,49.37-34.54,71.81-40.35
					c44.27-11.48,89.06-21.65,133.67-31.93c-7.54,2.09-15.07,4.09-22.61,5.79C367.54,411.56,314.69,423.65,269.76,444.54z
					 M445.66,427.86c-7.07,1.09-14.41,1.86-21.83,2.55c0.34-0.08,0.68-0.15,1.02-0.23c4.06-0.91,8.11-1.95,12.16-2.99
					c4.03,0.06,8.09,0.11,12.17,0.14C448,427.51,446.82,427.68,445.66,427.86z"/>
				<g>
					<path class="st0" d="M227.62,712.08c-36.81,33.95-36.34,99.31-11.9,138.83c2.08,3.36,8.43,1.09,6.87-2.71
						c-9.14-22.12-14.38-44.53-13.59-68.35c0.82-24.51,11.84-44.28,20.95-66.5C230.48,712.07,228.56,711.22,227.62,712.08
						L227.62,712.08z"/>
				</g>
				<g>
					<path class="st0" d="M214.89,845.91c4.49-6.21,8.13-12.93,12.03-19.48c-1.44,0.35-2.88,0.71-4.32,1.06
						c8.42,3.79,15.74,8.05,22.55,14.15c1.65,1.47,4.16,1.47,5.81,0c3.6-3.21,7.2-6.43,10.79-9.65c-1.8,0.22-3.59,0.43-5.39,0.65
						c9.85,7.11,23.95,7.33,31.97-2.27c2.38-2.85-0.62-7.58-4.42-5.36c-7.56,4.41-15.25,5.86-23.06,0.44
						c-1.56-1.08-4.12-0.59-5.39,0.65c-3.44,3.36-6.88,6.73-10.31,10.1c1.94,0,3.87,0,5.81,0c-7.8-6.35-16.05-11.15-25.92-14.12
						c-1.22-0.37-3.03,0.2-3.57,1.36c-3.29,7.06-6.89,14-9.52,21.3C211.34,846.45,213.92,847.26,214.89,845.91L214.89,845.91z"/>
				</g>
				<g>
					<path class="st0" d="M289.25,827.17c6.82,3.68,13.72,7.23,20.62,10.78c1.1,0.57,2.86,0.57,3.71-0.45
						c5.9-7.04,12.4-11.92,21.08-15.67c1.32-0.57,2.08-2.12,2.09-3.42c0.31-36.38-12.98-70.64-39.68-97.18
						c-2.82-2.8-8.35,1.03-5.79,4.18c16.33,20.08,28.12,42.02,34.11,66.71c3.37,13.9,4.36,22.09-7.39,30.91
						c-10.84,8.14-12.99,6.44-26.75,0.9C288.96,823,286.95,825.93,289.25,827.17L289.25,827.17z"/>
				</g>
				<g>
					<path class="st0" d="M237.91,720.85c-13.56,14.05-17.23,34.36-8.09,51.34c1.12,2.08,4.72,0.62,3.99-1.57
						c-5.57-16.7-3.63-33.17,7.08-47.62C242.12,721.33,239.34,719.36,237.91,720.85L237.91,720.85z"/>
				</g>
				<g>
					<path class="st0" d="M257.52,714.14c-4.9,18.11-7.84,38.38-2.79,56.72c0.61,2.22,4.37,1.78,4.29-0.54
						c-0.67-18.96-2.01-36.38,2.29-55.2C261.84,712.82,258.14,711.83,257.52,714.14L257.52,714.14z"/>
				</g>
				<g>
					<path class="st0" d="M274.44,714.5c-2.09,28.76,0.46,59.63,13.47,86.13c1.09,2.22,4.78,0.63,4.12-1.63
						c-8.29-28.3-15.08-54.84-13.8-84.5C278.33,712.2,274.6,712.24,274.44,714.5L274.44,714.5z"/>
				</g>
				<g>
					<path class="st0" d="M288.39,728.04c4.2,18.52,7.46,37.53,13.19,55.7c0.75,2.37,4.26,1.34,3.86-1
						c-3.16-18.7-8.91-37.18-13.61-55.59C291.3,725.04,287.91,725.94,288.39,728.04L288.39,728.04z"/>
				</g>
				<g>
					<path class="st0" d="M265.05,429.66c-17.56-11.18-35.38-21.97-53.18-32.83c-14.68-8.95-37.6-22.54-15.41-37.35
						c9.27-6.18,21.57-8.57,32.24-11.77c42.59-12.8,85.26-25.35,128-37.73c42.73-12.38,85.55-24.5,128.42-36.45
						c41.23-11.49,82.74-25.2,124.97-33c42.65-7.88,86.3,19.36,123.29,36.05c32.66,14.73,64.88,30.26,96.26,47.26
						c64.87,35.14,124.89,78.95,168.36,136.69c0.76-2.72,1.52-5.44,2.29-8.16c-104.67,56.61-216.63,99.62-333.55,128.33
						c-26.64,6.54-53.54,12.07-80.56,17.03c-17.36,3.19-34.17,6.03-51.83,3.02c-15.36-2.62-30.31-13.73-43.29-21.34
						c-52.76-30.93-99.45-69.91-151.74-100.98c-4.26-2.53-8.41,3.04-5.2,6.31c41.45,42.2,98.75,74.98,150.19,105.48
						c23.27,13.8,43.53,25.12,71.81,24.33c29.89-0.83,61.13-9.93,90.07-16.35c126.48-28.05,248.15-74.59,360.53-135.53
						c2.81-1.52,4.29-5.51,2.29-8.16c-47.89-63.46-114.09-109.45-185.59-147.52c-37.77-20.11-77.04-37.7-116.31-55.05
						c-19.06-8.42-37.84-17.01-58.29-22.06c-21.65-5.34-43.96-0.87-65.01,4.45c-106.07,26.8-211.07,58.39-315.79,89.43
						c-21.9,6.49-45.85,11.4-66.74,20.36c-11.42,4.9-24.79,11.97-28.41,24.27c-2.92,9.94,3.15,20.05,12.06,25.36
						c24.87,14.81,50.45,28.78,76.02,42.51C265.55,438.73,269.36,432.4,265.05,429.66L265.05,429.66z"/>
				</g>
				<g>
					<path class="st0" d="M350.84,495.63c-4.91,39.51-6.31,79.47-7.67,119.2c-0.83,24.28,3.9,44.43,25.78,59.6
						c54.77,37.98,133.55,51.8,199.77,58.52c74.18,7.54,151.61,0.01,222.56-21.53c23.6-7.16,37.04-20.14,40.15-43.16
						c4.87-36.1,1.3-77.39-9.46-112.29c-1.34-4.34-8.84-3.62-8.57,1.09c1.67,29.82,5.13,59.31,4.51,89.22
						c-0.34,16.51,0.75,33.74-15,44.68c-12.14,8.43-30.62,11.14-44.96,14.69c-61.61,15.25-125.93,18.59-189.23,13.27
						c-59.93-5.03-123-19.76-176.71-45.55c-34.69-16.66-39.31-41.76-39.29-75.58c0.03-34.09,2.3-68.09,3.27-102.16
						C356.08,492.45,351.21,492.62,350.84,495.63L350.84,495.63z"/>
				</g>
				<g>
					<path class="st0" d="M601.45,643.74c11.28-7.51,21.92-13.83,34.99-18.4c2.6-0.91,1.62-4.57-1.16-3.94
						c-13.32,3.02-27,9.92-35.82,19.92C598.35,642.57,599.82,644.83,601.45,643.74L601.45,643.74z"/>
				</g>
				<g>
					<path class="st0" d="M609.45,661.47c37.1-20.99,78.59-37.6,114.1-60.61c2.45-1.59,1-5.84-2.15-4.77
						c-40.3,13.67-78.59,39.85-114.01,62.09C605.23,659.53,607.18,662.76,609.45,661.47L609.45,661.47z"/>
				</g>
				<g>
					<path class="st0" d="M676.14,652.24c39.15-21.34,81.67-44.41,114.9-73.46c2.68-2.34-0.79-6.53-3.9-4.73
						c-38.94,22.56-75.01,50.93-112.77,75.36C672.54,650.59,674.16,653.32,676.14,652.24L676.14,652.24z"/>
				</g>
				<g>
					<path class="st0" d="M762.88,634.23c12.68-12.44,27.41-21.34,41.89-31.67c2.69-1.92,0.47-5.64-2.67-4.28
						c-16.46,7.15-30.52,20.44-42.2,33.16C758.14,633.35,760.98,636.1,762.88,634.23L762.88,634.23z"/>
				</g>
				<g>
					<path class="st0" d="M563.94,353.32c4.83-4.83,8.44-10.45,11.32-16.44c1.44-3-2.53-5.08-4.63-2.53
						c-4.29,5.2-7.87,10.81-10.15,17.08C559.8,353.28,562.55,354.71,563.94,353.32L563.94,353.32z"/>
				</g>
				<g>
					<path class="st0" d="M608.26,366.33c6.48-1.48,12.63-1.98,18.41-5.52c2.4-1.47,0.81-4.58-1.88-4.16
						c-6.8,1.06-11.65,4.59-17.48,7.6C606.08,364.89,606.94,366.63,608.26,366.33L608.26,366.33z"/>
				</g>
				<g>
					<path class="st0" d="M617.11,396.51c4.4,2.26,8.91,4.13,13.52,5.96c4.01,1.59,8.04,3.57,12.49,3.32
						c2.29-0.13,3.88-2.82,1.97-4.46c-3.29-2.82-7.54-3.75-11.75-4.88c-4.87-1.31-9.7-2.52-14.69-3.37
						C616.52,392.72,615.01,395.43,617.11,396.51L617.11,396.51z"/>
				</g>
				<g>
					<path class="st0" d="M584.91,426.02c-2.84,3.96-5.03,9.1-4.86,13.92c0.09,2.56,3.45,3.25,4.93,1.25
						c2.92-3.94,4.02-9.41,3.93-14.16C588.87,424.96,586.08,424.39,584.91,426.02L584.91,426.02z"/>
				</g>
				<g>
					<path class="st0" d="M787.3,496.47c14.79-18.45,30.33-33.31,49.25-48.06c2.35-1.83-0.68-5.31-3.21-3.89
						c-20.3,11.4-38.65,30.37-49.07,50.29C783.26,496.75,785.96,498.14,787.3,496.47L787.3,496.47z"/>
				</g>
				<g>
					<path class="st0" d="M818.83,506.96c25.91-27.65,55.86-54.5,77.89-84.97c2.16-2.98-2.54-6.08-5.17-3.73
						c-28.23,25.25-51.38,57.28-76.01,85.63C813.68,506.02,816.82,509.09,818.83,506.96L818.83,506.96z"/>
				</g>
				<g>
					<path class="st0" d="M885.31,484.22c7.61-8.71,15.74-16.91,24.44-24.68c8.67-7.74,18.81-14.08,27.08-22.17
						c2.33-2.29-0.61-5.78-3.56-4.31c-20.83,10.42-37.81,31.06-51.61,48.52C880.09,483.57,883.64,486.13,885.31,484.22
						L885.31,484.22z"/>
				</g>
				<g>
					<path class="st0" d="M933.59,464.3c2.75-3.3,5.2-6.63,7.44-10.25c1.32-2.13-1.91-4.6-3.71-2.68c-2.94,3.14-5.55,6.35-8,9.85
						C927.64,463.61,931.68,466.59,933.59,464.3L933.59,464.3z"/>
				</g>
			</g>
		</g>
		<path class="st0" d="M136.56,606.33c-8.55-6.4-18.5-6.48-29.08-7.21c-11.45-0.79-21.9-0.92-33.18,1.05
			c-12,2.1-13.09,18.36-3.29,23.56c10.45,5.54,21.49,6.72,33.32,4.58c9.79-1.77,22.08-2.43,30.31-8.05
			C139.07,617.25,141.76,610.22,136.56,606.33z"/>
		<path class="st0" d="M149.48,511.42c-3.72-5.03-7.67-9.9-11.78-14.66c-3.95-4.57-10.59-7.86-15.99-10.65
			c-8.54-4.4-15.14,5.36-9.75,11.83c3.58,4.31,7.15,8.5,11.13,12.5c3.85,3.86,8.81,7.04,12.91,10.72
			C142.83,527.27,155.2,519.16,149.48,511.42z"/>
		<path class="st0" d="M146.87,708.54c-8.71,13.69-20.23,25.59-27.78,39.83c-4.43,8.36,6.53,17.02,14.05,10.14
			c12.79-11.71,21.14-26.72,28.56-41.86C166.23,707.4,152.63,699.48,146.87,708.54z"/>
		<path class="st0" d="M1009.39,599.34c-25.65-14.17-53.26-2.6-79.32,4.39c-11.03,2.96-8.27,17.42,2.62,18.08
			c23.27,1.42,46.92,0.36,70.21-0.01C1015.64,621.6,1020.54,605.51,1009.39,599.34z"/>
		<path class="st0" d="M992.45,494.25c-11.98,6.25-20.38,14.46-28.96,24.35c-6.77,7.81,3.29,16.98,11.64,10.89
			c4.88-3.56,9.99-6.83,14.81-10.46c4.84-3.65,8.82-7.82,12.92-12.16C1009.24,500.11,1001.21,489.68,992.45,494.25z"/>
		<path class="st0" d="M989.49,730.86c-8.74-10.28-26.24-12.03-38.93-15.71c-9.47-2.74-16.54,9.04-9.57,15.39
			c10.97,9.99,26.94,23.33,43.53,17.94C993.08,745.7,994.88,737.19,989.49,730.86z"/>
	</g>
</g>
</svg>
