<?xml version="1.0" encoding="utf-8"?>
<!-- Generator: Adobe Illustrator 25.2.0, SVG Export Plug-In . SVG Version: 6.00 Build 0)  -->
<svg version="1.1" id="Layer_1" xmlns="http://www.w3.org/2000/svg" xmlns:xlink="http://www.w3.org/1999/xlink" x="0px" y="0px"
	 viewBox="0 0 1080 1080" style="enable-background:new 0 0 1080 1080;" xml:space="preserve">
<style type="text/css">
	.st0{fill:#263238;}
	.st1{fill:#FFBE9D;}
	.st2{fill:#EB996E;}
	.st3{fill:#009688;}
	.st4{opacity:0.3;}
	.st5{fill:#455A64;}
	.st6{fill:#FAFAFA;}
</style>
<g id="freepik--Character--inject-75">
	<path class="st0" d="M427.73,483.33c-29.59-6.99-47.91-36.65-40.92-66.24c1.44-6.08,3.9-11.87,7.27-17.12
		c-10.62-20.73-2.42-49.06,17.59-60.94c3.8-1.84,7.36-4.12,10.62-6.8c5.66-5.54,6.68-14.13,9.68-21.48
		c8.33-20.77,31.93-30.85,52.69-22.52c4.21,1.69,8.11,4.08,11.53,7.06c11.61-5.76,23.61-11.51,36.53-12.53
		c12.92-1.02,27.12,3.82,33.7,14.97c3.6,6.14,4.84,13.86,10.16,18.6c5.32,4.74,13.35,5.08,19.72,8.44
		c12.1,6.43,15.6,22.11,15.63,35.83c0.02,13.72-1.98,28.21,4.06,40.5c3.14,6.41,8.32,11.83,10.47,18.63
		c3.85,12.07-2.82,24.97-14.89,28.81c-3.64,1.16-7.51,1.39-11.26,0.68c5.25,12.1,3.24,26.39-3.36,37.71
		c-6.6,11.32-17.34,19.76-29.03,25.71c-8.39,4.26-17.8,7.4-27.09,5.98c-8.64-1.31-16.26-6.41-22.64-12.36
		c-14.49-13.62-23.84-31.82-26.46-51.53"/>
	<path class="st1" d="M459.88,320.64c-7.38-0.79-14.14,4.22-15.53,11.51l0,0L412,522.57c-4.45,22.35,25.42,41.9,49.4,46.47l0,0
		c24.19,4.64,27.53-7.02,32.39-28.13c8.13-35.29,10.96-48.6,10.93-48.38c-0.02,0.22,31.45,1.45,46.3-36.94
		c7.26-19.09,13.28-51.7,17.25-78.52c3.58-24.19-5.98-56.78-30.26-59.32L459.88,320.64z"/>
	<path class="st0" d="M554,400.81c-0.57,2.77-3.24,4.58-6.02,4.09c-2.73-0.37-4.64-2.88-4.27-5.6c0-0.03,0.01-0.07,0.02-0.1
		c0.56-2.77,3.22-4.59,6-4.11c2.75,0.38,4.67,2.93,4.29,5.68C554.01,400.78,554.01,400.79,554,400.81z"/>
	<path class="st0" d="M557.66,395.64c-0.77,0.53-4.02-3.17-9.51-4.31s-10.09,0.73-10.55,0c-0.22-0.36,0.68-1.43,2.71-2.42
		c2.72-1.14,5.73-1.41,8.61-0.77c2.85,0.6,5.44,2.09,7.38,4.26C557.7,394.11,558.02,395.44,557.66,395.64z"/>
	<path class="st0" d="M499.38,389.03c-0.51,2.83-3.21,4.71-6.04,4.2c-0.03,0-0.05-0.01-0.08-0.02c-2.72-0.35-4.63-2.84-4.28-5.56
		c0.01-0.05,0.01-0.1,0.02-0.15c0.55-2.77,3.22-4.59,6-4.09c2.75,0.32,4.71,2.81,4.38,5.56C499.38,389,499.38,389.02,499.38,389.03z
		"/>
	<path class="st0" d="M503.54,383.54c-0.77,0.53-4.02-3.14-9.51-4.31c-5.49-1.16-10.09,0.73-10.55,0c-0.22-0.36,0.68-1.43,2.71-2.42
		c2.73-1.13,5.73-1.4,8.61-0.77c2.85,0.6,5.44,2.09,7.38,4.26C503.59,381.85,503.93,383.18,503.54,383.54z"/>
	<path class="st0" d="M514.77,426.77c3.08-0.28,6.18-0.18,9.24,0.29c1.45,0.15,2.83,0.17,3.27-0.75c0.45-1.42,0.45-2.94,0-4.35
		c-0.6-3.65-1.21-7.5-1.86-11.54c-2.42-16.4-4.02-29.78-3.36-29.85c0.65-0.07,3.24,13.11,5.76,29.51l1.67,11.56
		c0.52,1.88,0.37,3.88-0.44,5.66c-0.62,0.91-1.63,1.48-2.73,1.55c-0.81,0.05-1.62-0.01-2.42-0.17
		C520.78,428.43,517.71,427.79,514.77,426.77z"/>
	<path class="st2" d="M504.73,492.4c-18.76-3.69-36.12-12.51-50.17-25.47c0,0,7.45,30.89,48.02,35.66L504.73,492.4z"/>
	<path class="st2" d="M509.64,439.49c-1.56-3.12-4.61-5.22-8.08-5.56c-2.49-0.3-4.99,0.43-6.94,2.01c-1.9,1.55-2.62,4.12-1.81,6.43
		c1.35,2.42,4.05,3.76,6.8,3.36c2.78-0.37,5.46-1.28,7.89-2.69c0.71-0.31,1.35-0.75,1.91-1.28c0.54-0.54,0.71-1.35,0.44-2.06"/>
	<path class="st0" d="M497.83,427.08c0.9,0.15-0.36,6.1,3.82,11.42c4.18,5.32,10.67,6,10.55,6.85c0,0.39-1.67,0.85-4.35,0.36
		c-3.5-0.71-6.64-2.62-8.88-5.39c-2.13-2.68-3.15-6.08-2.83-9.48C496.45,428.34,497.42,427.08,497.83,427.08z"/>
	<path class="st0" d="M508.06,372.8c-0.87,1.38-6.19-0.51-12.8-1.11s-12.1,0-12.72-1.45c-0.24-0.73,0.94-1.94,3.36-2.93
		c3.16-1.22,6.57-1.66,9.94-1.28c3.38,0.31,6.63,1.41,9.51,3.22C507.51,370.72,508.45,372.12,508.06,372.8z"/>
	<path class="st0" d="M559.03,385.79c-1.23,1.04-4.84-1.06-9.27-2.08c-4.43-1.02-8.56-0.97-9.17-2.42c-0.27-0.73,0.6-1.84,2.54-2.66
		c5.23-1.91,11.1-0.47,14.85,3.65C559.32,383.88,559.57,385.28,559.03,385.79z"/>
	<path class="st0" d="M488.71,313.39c-7.75-8.4-18.77-13.03-30.19-12.68c-11.25,0.77-22.09,8.42-24.77,19.13
		c-1.74,6.97-0.34,15.07-4.84,20.73c-4.5,5.66-12.1,6.24-18.19,9.51c-9.75,5.37-14.57,16.71-11.68,27.46
		c2.64,8.9,10.5,16.69,9.31,25.84c-1.11,8.61-9.68,14.22-13.28,22.16c-3.89,8.76-0.87,19.35,5.1,27s10.57,23.47,18.84,28.64
		c6.46,4.04,16.3,6.85,24.8,3.68c9.27-4.21,16.58-11.81,20.42-21.24c2.77-8.62,1.64-18.02-3.1-25.74
		c-3.89-6.73-10.01-13.04-9.68-20.71c0.58-12.1,16.38-18.48,18.05-30.34c0.85-6.12-2.42-12.1-4.84-17.73
		c-2.42-5.64-4.18-12.58-0.8-17.78c4.38-6.73,14.51-6.56,21.43-10.69c5.88-3.54,9.27-10.09,8.78-16.93
		c-0.79-6.9-5.3-12.8-11.76-15.36"/>
	<path class="st0" d="M486.37,303.42c-3.35,15,6.09,29.86,21.09,33.21c1.7,0.38,3.44,0.6,5.18,0.65c6.31,0.19,13.62-1.45,18.19,2.93
		c4.57,4.38,3.22,12.97,7.26,18.26c5.71,7.6,18.07,4.28,26.37,8.85c6.43,3.51,9.31,10.98,12.68,17.49
		c3.36,6.51,9.07,13.21,16.38,12.65c1.14-6.23,1.54-12.57,1.21-18.89c-0.36-6.39-2.92-12.45-7.26-17.15
		c-2.42-2.42-5.49-4.31-7.67-6.99c-4.69-5.83-4.31-14.13-6.43-21.31c-2.86-9.37-10.07-16.79-19.35-19.93
		c-7.64-2.42-16.21-1.86-23.39-5.44c-5.32-2.61-9.46-7.26-14.93-9.68c-10.64-4.5-22.69,1.23-32.46,7.45"/>
	<path class="st3" d="M548.9,559.92c16.06,16.86,24.86,39.35,24.51,62.63c-0.73,38.95,5.54,109.58,5.54,109.58l107.84,65.85
		l-30.41,46.57l-118.83-52.66l-24.94-50.97L548.9,559.92z"/>
	<path class="st3" d="M581.8,826.76c0,0,4.02-7.74-7.26-13.62h-18.39l-35.75-61.66l28.5-191.57l-48.74-37.01l-107.87-9.68
		L354.6,707.07l48.19,88.1l95.55,39.29L581.8,826.76z"/>
	<path class="st3" d="M411.42,514.73l2.15-18.26c0.43-3.18,3.35-5.41,6.52-4.98c0.25,0.03,0.49,0.08,0.73,0.15
		c26.61,20.92,54.21,31.45,83.22,23.2c3.94,1.1,6.3,5.12,5.32,9.1l-11.27,45.7l-29.54,8.83l-38.97-7.62l-18.19-33.65L411.42,514.73z
		"/>
	<path class="st0" d="M504.85,527.33c-1.08,0.82-2.24,1.52-3.46,2.1c-3.27,1.7-6.69,3.11-10.21,4.21
		c-23.8,7.58-49.84,1.7-68.07-15.36c-2.7-2.51-5.17-5.25-7.4-8.18c-0.85-1.05-1.6-2.19-2.23-3.39c3.25,3.78,6.71,7.38,10.35,10.79
		c18.23,16.28,43.56,21.99,67.01,15.12C495.61,531.13,500.28,529.36,504.85,527.33z"/>
	<g class="st4">
		<path d="M416.62,510.3c-1.41,3.57-0.91,7.6,1.33,10.72c2.25,3.04,5.02,5.66,8.18,7.74c10.47,7.79,21.34,15.53,33.87,19.09
			c12.53,3.56,27.21,2.23,36.82-6.56c2.78-2.56,4.96-7.26,2.06-9.68c-2.15-1.81-5.42-0.7-8.06,0.31
			c-26.56,10.13-56.6,0.8-72.74-22.59"/>
	</g>
	<path class="st3" d="M401.75,717.64l176.18,94.49l-63.6,38.44l-121.22-35.56c-64.32-16.93-81.89-43.74-81.23-71.31
		c0.22-10.04-0.94-108.04,3.36-156.1c5.9-65.46,77.07-74.29,77.07-74.29l-1.23,55.98l0.8,68.36l2.42,62.73
		c6.43-3.22,8.03,8.85,8.03,8.85L401.75,717.64z"/>
	<path class="st0" d="M393.18,707.84c-0.41,0-0.97-23.71-1.23-52.95c-0.27-29.25-0.15-52.98,0.27-52.98s0.94,23.71,1.21,52.98
		C393.69,684.16,393.57,707.84,393.18,707.84z"/>
	<path class="st0" d="M401.12,720.88c-0.19-0.12,0.34-1.19,0.63-2.98c0.86-4.77-1.88-9.46-6.46-11.06c-1.69-0.65-2.9-0.7-2.9-0.92
		s1.21-0.53,3.19,0c5.23,1.1,8.57,6.24,7.47,11.47c-0.06,0.28-0.13,0.55-0.21,0.82C402.18,720.08,401.33,720.98,401.12,720.88z"/>
	<path class="st0" d="M401.12,720.88c0,0,0,0,0.31,0.27c0.31,0.27,0.56,0.39,1.04,0.65c0.92,0.56,2.42,1.35,4.11,2.42
		c3.63,1.98,8.93,4.84,15.48,8.18l51.36,26.32l51.28,26.17l15.53,8.06l4.18,2.27c0.51,0.24,0.98,0.53,1.43,0.87
		c-0.54-0.14-1.06-0.34-1.55-0.6l-4.33-2.01l-15.72-7.64c-13.26-6.53-31.45-15.65-51.6-25.91c-20.15-10.26-38.2-19.67-51.19-26.61
		C408.47,726.37,400.66,721.44,401.12,720.88z"/>
	<path class="st0" d="M392.43,585.8c-0.22,0-0.6-3.97-1.52-10.33c-1.04-8.28-3.23-16.37-6.51-24.05
		c-3.41-7.61-8.73-14.2-15.43-19.16c-2.89-1.89-5.91-3.57-9.05-5.01c0.94,0.08,1.87,0.32,2.73,0.7c2.44,0.85,4.76,2.01,6.92,3.44
		c7.07,4.84,12.67,11.54,16.18,19.35c3.4,7.78,5.53,16.05,6.31,24.51c0.34,3.24,0.51,5.85,0.56,7.67
		C392.69,583.89,392.63,584.85,392.43,585.8z"/>
	<g class="st4">
		<path d="M554.2,801.15c5.85-11.25,4.43-24.89,1.11-37.13s-8.32-24.19-9.27-36.79c-0.85-10.96,1.45-21.89,3.65-32.66
			c2.2-10.76,4.33-21.77,3.19-32.66c-1.14-10.89-6.02-21.99-15.22-28.01c3.65,9.07,7.26,18.26,8.56,27.99s-0.29,20.15-6.19,27.94
			c-3.02,3.99-7.26,7.26-9.12,11.85c-2.61,6.12-2.23,13.06-4.18,19.21c-2.13,6.73-6,29.32-6,29.32
			c-0.27,1.26,6.68,14.03,13.57,23.15c6.89,9.12,15.19,17.32,20.18,27.6"/>
	</g>
	<path class="st0" d="M554.63,800.37c-0.27-0.25-0.52-0.54-0.73-0.85c-0.51-0.68-1.14-1.55-1.94-2.59l-7.26-9.92l-24.84-35.2
		l-0.17-0.22v-0.29c2.78-13.6,5.9-29.03,9.24-45.38c0.36-1.74,0.7-3.46,1.04-5.13v-0.22l0.17-0.15
		c10.29-10.27,16.15-24.17,16.33-38.71c-0.38-11.18-4.34-21.94-11.3-30.7l0,0v-0.15c-0.44-7.26-0.8-13.06-1.06-17.22
		c0-1.89-0.17-3.39-0.24-4.57c-0.06-0.52-0.06-1.05,0-1.57c0.14,0.51,0.22,1.02,0.24,1.55c0.12,1.19,0.27,2.69,0.46,4.57
		c0.36,4.14,0.87,9.94,1.52,17.18l-0.12-0.27c7.26,8.84,11.44,19.8,11.9,31.23c0.16,7.09-1.19,14.13-3.94,20.66
		c-2.9,7.16-7.17,13.69-12.58,19.21l0.19-0.36c-0.34,1.67-0.68,3.39-1.04,5.13c-3.39,16.33-6.58,31.79-9.39,45.36v-0.51l24.46,35.51
		c2.88,4.23,5.15,7.64,6.82,10.11c0.73,1.09,1.31,1.98,1.77,2.71C554.35,799.84,554.51,800.1,554.63,800.37z"/>
	<g class="st4">
		<path d="M426.69,707.36c-1.77-1.38-4.5,0.77-4.4,3c0.4,2.24,1.85,4.14,3.89,5.13c5.39,3,11.58,4.24,17.71,3.53
			c7.65-0.41,14.94-3.39,20.68-8.47c5.73-5.2,8.37-13,6.97-20.61c-0.07-0.62-0.33-1.2-0.73-1.67c-1.43-1.48-3.82,0.17-5.25,1.67
			c-9.87,10.37-23.32,16.57-37.62,17.34"/>
	</g>
	<g class="st4">
		<path d="M392.31,706.12c-6.81-2.89-14.7-0.91-19.35,4.84c-1.62,1.68-2.08,4.17-1.16,6.31c1.19,1.52,3.17,2.18,5.03,1.69
			c1.78-0.57,3.43-1.5,4.84-2.73c3.27-2.42,6.48-5.13,9.68-7.84c0.47-0.35,0.85-0.82,1.09-1.35c0.23-0.56,0.01-1.2-0.51-1.5"/>
	</g>
	<path class="st0" d="M377.41,721c-0.17,0,0-1.45,0.85-3.56c1.18-2.72,2.96-5.13,5.2-7.06c2.23-1.97,4.86-3.41,7.72-4.23
		c2.18-0.58,3.58-0.53,3.6-0.34c0.02,0.19-5.42,1.28-10.35,5.68C379.49,715.9,377.82,721.17,377.41,721z"/>
	<path class="st5" d="M618.18,956.43c-0.29,0.27-37.25-38.71-82.51-86.92c-45.26-48.21-81.76-87.64-81.47-87.91
		s37.25,38.71,82.54,86.89C582.02,916.68,618.5,956.14,618.18,956.43z"/>
	<path class="st6" d="M344.8,595.91c-1-3.96-1.58-8.01-1.74-12.1c-0.57-4.08-0.73-8.2-0.48-12.31c0.97,3.97,1.56,8.02,1.74,12.1
		C344.89,587.68,345.05,591.8,344.8,595.91z"/>
	<path class="st6" d="M358.3,636.14c0.31-7.76,1.45-15.47,3.41-22.98c0.08,3.89-0.28,7.78-1.06,11.59
		C360.28,628.62,359.49,632.44,358.3,636.14z"/>
	<path class="st6" d="M332.51,663.38c-0.82-3.98-1.24-8.03-1.26-12.1c-0.42-4.02-0.42-8.07,0-12.1c0.82,3.98,1.23,8.03,1.23,12.1
		C332.93,655.3,332.94,659.36,332.51,663.38z"/>
	<path class="st6" d="M369.89,697.44c-2.1-2.73-3.84-5.71-5.2-8.88c-1.73-2.97-3.1-6.14-4.09-9.43c2.09,2.74,3.84,5.72,5.2,8.88
		C367.52,690.98,368.9,694.15,369.89,697.44z"/>
	<path class="st6" d="M341.08,717.86c-1.93,2.12-4.18,3.94-6.65,5.39c-2.24,1.81-4.73,3.28-7.4,4.35c1.92-2.1,4.14-3.92,6.58-5.39
		C335.86,720.4,338.38,718.93,341.08,717.86z"/>
	<path class="st6" d="M399.4,734.82c-1.54-2.05-2.74-4.34-3.56-6.77c-1.21-2.27-2.02-4.72-2.42-7.26c1.55,2.05,2.75,4.34,3.56,6.77
		C398.18,729.83,398.99,732.28,399.4,734.82z"/>
	<path class="st6" d="M461.81,761.69c-4.15-1.33-8.16-3.07-11.97-5.18c-4.01-1.73-7.84-3.83-11.44-6.29
		c4.15,1.32,8.17,3.06,11.97,5.18C454.38,757.13,458.21,759.23,461.81,761.69z"/>
	<path class="st6" d="M476.69,795.63c1.12-2.89,2.63-5.61,4.48-8.1c1.46-2.75,3.3-5.27,5.47-7.5c-1.11,2.9-2.59,5.65-4.4,8.18
		C480.73,790.92,478.87,793.42,476.69,795.63z"/>
	<path class="st6" d="M505.96,823.81c-0.49-4.46-0.56-8.95-0.19-13.43c-0.06-4.48,0.3-8.96,1.06-13.38
		C507.38,805.95,507.09,814.93,505.96,823.81z"/>
	<path class="st6" d="M412.95,542.57c-3.16-0.58-6.2-1.7-8.97-3.31c-2.96-1.25-5.68-2.99-8.06-5.15c2.99,1.06,5.87,2.41,8.61,4.02
		C407.46,539.35,410.28,540.84,412.95,542.57z"/>
	<path class="st6" d="M369.09,549.9c-4.97-2.26-9.56-5.27-13.62-8.93c2.61,0.94,5.05,2.27,7.26,3.94
		C365.09,546.24,367.24,547.92,369.09,549.9z"/>
	<path class="st6" d="M411.57,601.67c2.49-7.96,5.78-15.65,9.8-22.96C418.9,586.68,415.62,594.37,411.57,601.67z"/>
	<path class="st6" d="M419.7,654.48c-2.28-3.19-4.36-6.51-6.24-9.94c-2.22-3.23-4.23-6.6-6.02-10.09c2.82,2.77,5.21,5.95,7.09,9.43
		C416.77,647.13,418.52,650.7,419.7,654.48z"/>
	<path class="st6" d="M465.73,596.25c-2.35,2.66-5.01,5.04-7.91,7.09c-2.64,2.36-5.56,4.4-8.68,6.07
		C454.14,604.39,459.7,599.97,465.73,596.25z"/>
	<path class="st6" d="M460.21,569.81c-2.66-3.27-4.98-6.79-6.94-10.52c-2.32-3.52-4.28-7.27-5.85-11.18
		c2.66,3.27,4.98,6.79,6.94,10.52C456.68,562.16,458.64,565.9,460.21,569.81z"/>
	<path class="st6" d="M497.01,548.04c-1.03,3.32-2.45,6.5-4.23,9.48c-1.42,3.17-3.23,6.16-5.37,8.9c1.05-3.32,2.47-6.5,4.26-9.48
		C493.08,553.77,494.87,550.78,497.01,548.04z"/>
	<path class="st6" d="M457.63,532.39c0.18-2.14,0.51-4.27,0.99-6.36c0.09-2.15,0.31-4.29,0.68-6.41c0.86,2.08,1.06,4.38,0.58,6.58
		C459.79,528.44,459.01,530.61,457.63,532.39z"/>
	<path class="st6" d="M491.2,530.67c-2.01-0.65-3.87-1.7-5.47-3.1c-2.83-1.98-4.84-3.85-4.84-4.11c2.01,0.66,3.87,1.71,5.47,3.1
		C489.29,528.54,491.4,530.4,491.2,530.67z"/>
	<path class="st6" d="M429.11,508.15c0,0.34-1.62,0.63-3.63,0.63s-3.6-0.29-3.6-0.63c0-0.34,1.62-0.63,3.6-0.63
		C427.46,507.52,429.11,507.78,429.11,508.15z"/>
	<path class="st6" d="M533.83,566.74c-3.1-2.25-5.93-4.83-8.47-7.69c-2.83-2.58-5.36-5.46-7.57-8.59c3.1,2.25,5.93,4.83,8.47,7.69
		C529.08,560.73,531.62,563.61,533.83,566.74z"/>
	<path class="st6" d="M513.27,619.57c0.31-8.42,1.95-16.74,4.84-24.65c-0.42,4.17-1.13,8.31-2.13,12.39
		C515.37,611.45,514.46,615.55,513.27,619.57z"/>
	<path class="st6" d="M488.54,643.83c-1.16-4.61-2.01-9.29-2.54-14.01c-0.95-4.65-1.61-9.37-1.96-14.1
		C486.79,624.85,488.31,634.3,488.54,643.83z"/>
	<path class="st6" d="M455.93,677.82c-4.71-6.38-8.19-13.58-10.26-21.24c1.99,3.4,3.75,6.92,5.27,10.55
		C452.83,670.59,454.49,674.16,455.93,677.82z"/>
	<path class="st6" d="M434.28,698.02c-4.12-0.56-8.17-1.52-12.1-2.88c-4.05-0.97-7.99-2.35-11.76-4.11c4.12,0.56,8.17,1.53,12.1,2.9
		C426.58,694.88,430.52,696.25,434.28,698.02z"/>
	<path class="st6" d="M450.88,720.08c-1.96,1.89-4.03,3.65-6.22,5.27c-1.91,1.93-3.96,3.73-6.12,5.37
		C441.38,725.92,445.71,722.18,450.88,720.08z"/>
	<path class="st6" d="M479.88,746.4c-1.12-3.57-1.82-7.25-2.08-10.98c-0.69-3.67-0.96-7.4-0.82-11.13
		C478.78,731.53,479.75,738.95,479.88,746.4z"/>
	<path class="st6" d="M512.9,737.4c-6.11-1.29-11.81-4.07-16.59-8.08c2.88,1.08,5.67,2.39,8.35,3.92
		C507.52,734.39,510.28,735.78,512.9,737.4z"/>
	<path class="st6" d="M521.9,683.63c-3.59,1.85-7.29,3.46-11.08,4.84c-3.62,1.78-7.34,3.33-11.15,4.64
		c3.25-2.45,6.84-4.4,10.67-5.78C513.99,685.53,517.89,684.28,521.9,683.63z"/>
	<path class="st6" d="M529.11,668.02c-2.93-2.64-5.57-5.59-7.86-8.81c-2.64-2.97-4.95-6.21-6.89-9.68c2.93,2.64,5.57,5.59,7.86,8.81
		C524.85,661.32,527.16,664.57,529.11,668.02z"/>
	<path class="st6" d="M510.19,777.85c-1.57-4.8-2.29-9.83-2.15-14.88C509.57,767.78,510.3,772.81,510.19,777.85z"/>
	<path class="st6" d="M563.17,730.1c-3.01-2.55-5.74-5.4-8.15-8.52c-2.75-2.85-5.18-5.99-7.26-9.36c3,2.56,5.72,5.42,8.13,8.54
		C558.65,723.6,561.09,726.73,563.17,730.1z"/>
	<path class="st6" d="M559.71,701.26c0.84-3.63,2.08-7.15,3.7-10.5c1.23-3.49,2.85-6.82,4.84-9.94c-2.08,7.1-4.97,13.95-8.61,20.39
		L559.71,701.26z"/>
	<path class="st6" d="M563.68,648.38c-2.34-2.15-4.4-4.59-6.12-7.26c-2.04-2.43-3.76-5.11-5.1-7.98c2.35,2.14,4.4,4.58,6.12,7.26
		C560.63,642.82,562.35,645.5,563.68,648.38z"/>
	<path class="st6" d="M557.22,600.77c-5.8-5.78-10.99-12.15-15.46-19.01C547.55,587.55,552.73,593.92,557.22,600.77z"/>
	<path class="st6" d="M572.53,780.41c1.43-3.69,3.25-7.22,5.42-10.52c1.81-3.52,4-6.83,6.53-9.87c-1.44,3.68-3.27,7.2-5.44,10.5
		C577.23,774.04,575.05,777.36,572.53,780.41z"/>
	<path class="st6" d="M603.04,801.19c-1.84-4.11-3.28-8.39-4.31-12.77c-1.42-4.28-2.45-8.67-3.07-13.14
		c1.84,4.12,3.28,8.4,4.31,12.8C601.38,792.35,602.41,796.74,603.04,801.19z"/>
	<path class="st6" d="M637.92,795.68c-1.56-2.12-2.78-4.47-3.6-6.97c-1.2-2.34-2.02-4.85-2.42-7.45c2.81,4.47,4.86,9.38,6.07,14.51
		L637.92,795.68z"/>
	<path class="st0" d="M560.46,838.67l188.28-91.47c19.22-9.33,41.87-8.23,60.09,2.93l0,0c29.51,18.05,38.8,56.6,20.75,86.11
		c-1.73,2.82-3.67,5.5-5.82,8.02l-81.57,95.48L533.9,968.52l-19.5-117.95l23.15-35.85L560.46,838.67z"/>
	<path class="st5" d="M674.18,877.71c0,0-0.75,0.75-2.42,1.91s-3.8,2.73-6.63,4.67c-5.64,3.87-13.57,9.05-22.52,14.51
		c-8.95,5.47-17.25,9.99-23.32,13.18c-3.02,1.6-5.49,2.83-7.26,3.65c-0.87,0.5-1.79,0.89-2.76,1.16c0.73-0.66,1.55-1.22,2.42-1.67
		l7.35-4.23c5.93-3.41,14.08-8.15,23.03-13.55s16.93-10.4,22.74-14.03l6.87-4.28C672.47,878.51,673.31,878.07,674.18,877.71z"/>
	<path class="st0" d="M276.53,884.73c0,0,18.7-90.3,28.3-104.19s29.92-44.97,55.64-48.19c25.71-3.22,78.04,27.55,87.59,39.65
		c24.19,30.58,176.45,191.83,174.58,189.73l-49.08,33.87l-51.86-16.45H372.74C372.74,979.14,269.62,961.7,276.53,884.73z"/>
	<path class="st5" d="M521.64,979.14c-0.76,0.06-1.53,0.06-2.3,0c-2.17-0.2-4.33-0.55-6.46-1.04c-7.8-1.91-15.4-4.59-22.67-8.01
		c-23.93-11.36-46.46-25.49-67.11-42.09c-24.55-18.82-45.96-37.08-59.99-51.72c-5.67-5.67-10.88-11.79-15.58-18.29
		c-1.29-1.76-2.46-3.61-3.48-5.54c-0.42-0.63-0.78-1.3-1.06-2.01c0.5,0.58,0.94,1.2,1.33,1.86c1.17,1.86,2.43,3.65,3.8,5.37
		c4.86,6.33,10.16,12.32,15.87,17.9c18.95,18.34,39.04,35.47,60.16,51.26c20.55,16.45,42.85,30.57,66.5,42.12
		c7.19,3.47,14.68,6.28,22.38,8.39c2.1,0.55,4.22,0.98,6.36,1.31C520.15,978.76,520.9,978.92,521.64,979.14z"/>
	<path class="st5" d="M454.92,958.99c-0.61,0.44-1.26,0.83-1.94,1.16l-5.68,3.14c-2.42,1.35-5.68,2.59-9.34,4.23
		c-1.81,0.85-3.87,1.4-6,2.2s-4.38,1.64-6.85,2.2c-11.38,3.24-23.13,4.99-34.96,5.2c-14.48,0.3-28.93-1.57-42.87-5.54
		c-13.95-4.01-27.14-10.26-39.07-18.53c-2.66-2.03-5.37-3.82-7.81-5.88c-2.33-2.02-4.5-4.22-6.48-6.58
		c-3.53-4.25-6.6-8.85-9.17-13.74c-3.8-7.03-6.41-14.64-7.72-22.52c-0.37-2.13-0.56-4.29-0.58-6.46c-0.06-0.75-0.06-1.5,0-2.25
		c0.17,0,0,3.12,1.06,8.61c1.52,7.76,4.25,15.22,8.08,22.13c2.62,4.83,5.73,9.37,9.29,13.55c1.96,2.29,4.09,4.43,6.39,6.39
		c2.42,1.98,5.1,3.77,7.74,5.73c11.83,8.13,24.9,14.29,38.71,18.24c13.79,3.94,28.09,5.82,42.43,5.59
		c11.72-0.13,23.38-1.76,34.69-4.84c2.42-0.51,4.67-1.43,6.82-2.08s4.21-1.26,6.02-2.08c3.65-1.57,6.89-2.71,9.39-3.99l5.78-2.85
		C453.51,959.62,454.2,959.27,454.92,958.99z"/>
	<path class="st3" d="M464.52,955.73c0,0-33.65,13.72-30.14,29.39c3.51,15.68,20.88,22.98,38.44,21.31
		c17.56-1.67,49.86-16.16,49.86-16.16l16.64-8.81c0,0-20.22-0.31-30.46-3.97C497.03,973.24,464.52,955.73,464.52,955.73z"/>
	<path class="st5" d="M506.15,983.23l119.43,18.8l252.31-25.13l-138.3-37.93l-233.37,33.55c-2.67,0.39-4.65,2.67-4.64,5.37l0,0
		C501.58,980.55,503.52,982.81,506.15,983.23z"/>
	<path class="st5" d="M657.76,811.94l-29.03,170.96c-1.36,8.06,4.07,15.7,12.13,17.07c1.3,0.22,2.62,0.26,3.93,0.13l233.1-23.2
		c6.58-0.65,11.93-5.59,13.11-12.1l31.45-173.06c1.46-8.06-3.89-15.78-11.94-17.24c-1.39-0.25-2.81-0.3-4.22-0.16l-235.52,25.28
		C664.16,800.34,658.84,805.37,657.76,811.94z"/>
	<path class="st0" d="M501.58,977.88c0.21-0.04,0.42-0.04,0.63,0l1.84,0.22l7.09,0.99l26.32,3.94l89.19,13.79l-0.82,0.6
		c1.45-8.9,2.98-18.19,4.55-27.67c7.02-42.07,13.38-80.12,18-107.82c2.42-13.69,4.28-24.82,5.64-32.63l1.6-8.85l0.46-2.3
		c0.04-0.26,0.11-0.52,0.19-0.77c0,0,0,0.27,0,0.8c0,0.53-0.17,1.35-0.31,2.42l-1.31,8.9c-1.26,7.84-3,18.99-5.18,32.73
		c-4.5,27.7-10.72,65.77-17.59,107.87c-1.55,9.48-3.1,18.75-4.57,27.67l-0.12,0.73l-0.7-0.12l-89.12-14.3l-26.25-4.38l-7.06-1.23
		l-1.81-0.34L501.58,977.88z"/>
	<path class="st6" d="M803.39,885.98c0,9.27-6.7,16.79-14.97,16.79c-8.27,0-14.97-7.52-14.97-16.79c0-9.27,6.7-16.81,14.97-16.81
		C796.68,869.17,803.39,876.69,803.39,885.98z"/>
	<path class="st1" d="M631.15,870.02c-8.22-7.38,1.02-15.99-13.84-30.02c-11.1-10.47-32.13-28.42-72.86-42.02l-25.52,45.58
		l44.41,14.32l-0.44,29.03c-0.08,5.85,4.6,10.66,10.45,10.74c0.09,0,0.18,0,0.27,0l23.05-0.27c0,0-6.73,28.42-5.61,30.17
		c1.81,2.84,5.58,3.68,8.42,1.87c1.12-0.72,1.98-1.78,2.45-3.03c0.92-3.85,19.88-49.78,19.88-49.78s12.41,10.72,14.15,4.57
		C635.84,881.12,639.25,877.42,631.15,870.02z"/>
	<path class="st2" d="M569,898.3c0-0.17,1.09-0.87,2.61-2.42c3.99-3.98,5.94-9.57,5.27-15.17c-0.27-1.15-0.45-2.31-0.56-3.48
		c0.72,0.99,1.18,2.15,1.33,3.36c1.14,5.9-0.97,11.95-5.52,15.87C571.27,897.33,570.19,897.96,569,898.3z"/>
	<path class="st2" d="M583.83,897.33c4.22-5.3,5.98-12.14,4.84-18.82c0.58,0.85,0.92,1.83,0.99,2.85c0.4,2.41,0.29,4.89-0.31,7.26
		c-0.61,2.4-1.72,4.64-3.27,6.58C584.87,896.77,583.9,897.43,583.83,897.33z"/>
	<path class="st2" d="M601.71,880.66c0.12,0,0.41,0.92,0.46,2.42c0,4.17-1.7,8.17-4.72,11.06c-1.16,1.06-2.03,1.52-2.13,1.4
		c3.93-4.01,6.21-9.34,6.39-14.95V880.66z"/>
	<path class="st5" d="M426.01,476.89h-0.63l-1.84-0.22c-0.98-0.15-1.96-0.37-2.9-0.68c-1.33-0.35-2.62-0.81-3.87-1.38
		c-3.42-1.55-6.56-3.66-9.29-6.24c-3.63-3.44-6.51-7.6-8.44-12.22c-1.16-2.67-1.98-5.49-2.42-8.37c-0.4-3.14-0.32-6.32,0.24-9.43
		c1.14-6.46,4.84-12.7,4.84-19.81c-0.21-3.63-1.19-7.18-2.88-10.4c-1.84-3.5-2.99-7.33-3.39-11.27c0.1-4.22,1.89-8.23,4.98-11.1
		c3.03-2.93,6.48-5.38,10.26-7.26c3.66-1.81,7.11-4.02,10.28-6.6c2.9-2.61,5.04-5.95,6.19-9.68c2.42-7.43,2.42-15.14,3.82-22.3
		c0.66-3.55,1.95-6.95,3.82-10.04c1.84-2.9,4.38-5.28,7.38-6.94c5.45-2.64,11.35-4.19,17.39-4.57c4.9-0.33,9.75-1.09,14.51-2.27
		c3.58-0.9,6.96-2.47,9.97-4.62c1.9-1.37,3.48-3.12,4.64-5.15c0.77-1.38,1.06-2.2,1.14-2.15c-0.23,0.79-0.53,1.55-0.92,2.27
		c-1.09,2.13-2.66,3.98-4.57,5.42c-3.02,2.24-6.43,3.88-10.06,4.84c-4.76,1.24-9.61,2.05-14.51,2.42c-5.89,0.44-11.63,2-16.93,4.6
		c-2.84,1.58-5.24,3.86-6.94,6.63c-1.79,2.98-3.02,6.26-3.63,9.68c-1.45,7.02-1.35,14.78-3.8,22.47c-1.2,3.96-3.46,7.53-6.53,10.31
		c-3.23,2.65-6.75,4.91-10.5,6.75c-3.65,1.8-7.01,4.14-9.97,6.94c-2.85,2.64-4.53,6.32-4.64,10.21c0.29,7.64,6.34,13.96,6.19,21.77
		c-0.13,3.59-0.84,7.14-2.1,10.5c-1.14,3.11-2.07,6.28-2.81,9.51c-0.56,3.01-0.67,6.08-0.31,9.12c0.38,2.8,1.11,5.54,2.18,8.15
		c1.84,4.55,4.6,8.66,8.1,12.1c2.64,2.58,5.69,4.72,9.02,6.31C419.94,475.41,422.94,476.33,426.01,476.89z"/>
	<path class="st5" d="M611.92,389.42c-0.17,0-0.17-2.27-1.14-6.22c-1.43-5.57-4.15-10.72-7.93-15.05
		c-5.55-6.54-13.29-10.84-21.77-12.1c-5.06-0.54-10.08-1.35-15.05-2.42c-5.46-1.42-10.19-4.81-13.28-9.53
		c-2.85-4.69-5.17-9.68-6.92-14.88c-1.6-4.75-3.82-9.26-6.6-13.43c-5.17-6.78-12.49-11.61-20.76-13.69
		c-5.53-1.43-11.32-1.62-16.93-0.56c-1.53,0.33-3.04,0.75-4.52,1.26c-0.51,0.21-1.03,0.37-1.57,0.46c0.48-0.28,0.98-0.52,1.5-0.7
		c1.46-0.62,2.96-1.11,4.5-1.48c5.7-1.32,11.64-1.27,17.32,0.15c8.55,2.01,16.14,6.91,21.51,13.86c2.89,4.23,5.2,8.83,6.87,13.67
		c1.73,5.07,4.01,9.94,6.8,14.51c2.93,4.47,7.41,7.69,12.58,9.05c5.01,1.38,10.11,1.64,14.9,2.42c8.68,1.36,16.57,5.85,22.16,12.63
		c3.79,4.47,6.45,9.79,7.74,15.51c0.34,1.54,0.55,3.11,0.63,4.69C611.98,388.19,611.97,388.81,611.92,389.42z"/>
</g>
</svg>
