<?xml version="1.0" encoding="utf-8"?>
<!-- Generator: Adobe Illustrator 25.2.0, SVG Export Plug-In . SVG Version: 6.00 Build 0)  -->
<svg version="1.1" id="Layer_1" xmlns="http://www.w3.org/2000/svg" xmlns:xlink="http://www.w3.org/1999/xlink" x="0px" y="0px"
	 viewBox="0 0 1080 1080" style="enable-background:new 0 0 1080 1080;" xml:space="preserve">
<style type="text/css">
	.st0{fill:#009688;}
	.st1{fill:#FFFFFF;}
	.st2{fill:#263238;}
	.st3{fill:#455A64;}
</style>
<g id="freepik--Plant--inject-75">
	<path class="st0" d="M107.76,874.13c-15.39-8.93-23.61-29.68-24.19-46.66c-0.58-16.98,6.46-34.71,20.37-44.46
		c14.66-10.26,35.56-9.99,50.66-0.31c15.16,10.2,23.95,27.52,23.25,45.77c-1.06,18.15-10.18,34.88-24.87,45.6"/>
	<path class="st1" d="M132.33,875.77c-0.22-1.29-0.32-2.59-0.29-3.89c0-2.78-0.17-6.34-0.29-10.6c-0.24-8.95-0.58-21.29-1.19-34.93
		c-0.6-13.64-1.33-25.98-1.89-34.91c-0.27-4.26-0.48-7.81-0.63-10.57c-0.13-1.3-0.13-2.6,0-3.89c0.33,1.26,0.54,2.55,0.63,3.85
		c0.29,2.42,0.68,6.07,1.09,10.55c0.82,8.9,1.72,21.26,2.42,34.91s0.8,26.03,0.77,35c0,4.48,0,8.1-0.17,10.6
		C132.77,873.19,132.61,874.49,132.33,875.77z"/>
	<path class="st2" d="M88.09,823.62c-1.78,0.54-3.67,0.64-5.49,0.27c-3-0.24-5.39-0.77-5.37-1.16c1.78-0.54,3.67-0.63,5.49-0.27
		C85.72,822.7,88.11,823.21,88.09,823.62z"/>
	<path class="st2" d="M88.93,808.38c-0.17,0.36-2.42-0.22-4.84-1.31c-2.42-1.09-4.31-2.27-4.14-2.64c0.17-0.36,2.27,0.22,4.84,1.31
		C87.36,806.83,89.08,808.02,88.93,808.38z"/>
	<path class="st2" d="M96.77,797.06c-0.22,0.34-2.59-0.8-5.06-2.83c-2.47-2.03-4.04-4.18-3.75-4.45c0.29-0.27,2.25,1.35,4.67,3.34
		C95.06,795.1,96.99,796.72,96.77,797.06z"/>
	<path class="st2" d="M104.66,786.39c-0.36,0.17-1.5-1.62-2.56-3.99s-1.57-4.4-1.21-4.55c0.36-0.15,1.5,1.62,2.42,3.97
		S105.02,786.22,104.66,786.39z"/>
	<path class="st2" d="M117.02,778.82c-0.34,0.17-1.57-1.74-2.42-4.38c-0.85-2.64-0.87-4.84-0.51-4.84c0.36,0,1.09,1.98,1.89,4.52
		C116.78,776.67,117.41,778.65,117.02,778.82z"/>
	<path class="st2" d="M137.66,770.28c0.36,0.12,0.15,1.74-0.51,3.6c-0.65,1.86-1.5,3.29-1.89,3.14c-0.39-0.15-0.15-1.74,0.51-3.6
		S137.29,770.13,137.66,770.28z"/>
	<path class="st2" d="M152.99,776.86c0.27,0.29-0.7,1.62-2.2,3c-1.5,1.38-2.9,2.25-3.17,1.96s0.73-1.64,2.2-3.02
		C151.3,777.42,152.73,776.54,152.99,776.86z"/>
	<path class="st2" d="M166.47,785.54c0.24,0.34-0.97,1.55-2.66,2.69c-1.69,1.14-3.27,1.84-3.48,1.5c-0.22-0.34,0.97-1.52,2.66-2.69
		C164.68,785.88,166.25,785.23,166.47,785.54z"/>
	<path class="st2" d="M176.05,798.53c0.17,0.36-1.72,1.52-4.21,2.59c-2.49,1.06-4.62,1.62-4.84,1.26s1.74-1.52,4.21-2.59
		C173.68,798.73,175.9,798.17,176.05,798.53z"/>
	<path class="st2" d="M179.82,812.69c0,0.41-1.86,0.97-4.28,1.26c-2.42,0.29-4.43,0.24-4.48-0.17c-0.05-0.41,1.86-0.94,4.28-1.26
		C177.76,812.2,179.77,812.3,179.82,812.69z"/>
	<path class="st2" d="M181.78,830.13c-0.15,0.36-2.2-0.17-4.57-1.21c-2.37-1.04-4.16-2.15-3.99-2.42c0.17-0.27,2.2,0.17,4.57,1.21
		S181.95,829.76,181.78,830.13z"/>
	<path class="st2" d="M180.06,845.08c0,0.36-2.71-0.24-5.42-2.03s-4.33-3.87-4.04-4.14c0.29-0.27,2.25,1.28,4.84,2.93
		C178.03,843.48,180.21,844.69,180.06,845.08z"/>
	<path class="st2" d="M172.27,858.7c-0.24,0.31-2.42-0.9-4.28-3.02c-1.86-2.13-3.02-4.28-2.71-4.5c0.31-0.22,1.86,1.48,3.77,3.51
		C170.97,856.71,172.51,858.38,172.27,858.7z"/>
	<path class="st2" d="M98.32,860.29c0.19,0.36-1.98,1.84-4.84,3.34c-2.85,1.5-5.3,2.42-5.49,2.06c-0.19-0.36,1.98-1.86,4.84-3.34
		C94.48,861.25,96.36,860.55,98.32,860.29z"/>
	<path class="st2" d="M91.69,848c0.17,0.36-1.57,1.5-3.87,2.54c-2.3,1.04-4.31,1.6-4.48,1.26s1.57-1.52,3.87-2.56
		C89.52,848.2,91.4,847.62,91.69,848z"/>
	<path class="st2" d="M86.61,837.07c0,0.41-2.08,1.04-4.84,1.4c-2.76,0.36-4.84,0.39-4.98,0c-0.15-0.39,2.08-1.02,4.84-1.4
		C84.39,836.68,86.54,836.68,86.61,837.07z"/>
	<path class="st2" d="M102.89,831.07c0.12,0.36-1.96,1.33-4.84,1.64s-5.03-0.17-5.01-0.56c0.02-0.39,2.2-0.58,4.84-0.87
		C100.52,831,102.77,830.68,102.89,831.07z"/>
	<path class="st2" d="M116.42,817.6c0,0.39-1.55,1.21-3.77,1.43s-4.02-0.27-3.99-0.65c0.02-0.39,1.77-0.56,3.85-0.77
		C114.58,817.38,116.29,817.21,116.42,817.6z"/>
	<path class="st2" d="M119,806.88c-0.12,0.39-1.94,0-4.02-0.6c-2.08-0.6-3.65-1.62-3.53-1.98c0.12-0.36,1.94,0,4.02,0.6
		C117.55,805.5,119.13,806.44,119,806.88z"/>
	<path class="st2" d="M123.96,795.92c-0.27,0.27-1.5-0.56-2.42-2.08c-0.92-1.52-0.97-3-0.58-3.1c0.39-0.1,1.04,1.04,1.84,2.42
		C123.6,794.54,124.25,795.63,123.96,795.92z"/>
	<path class="st2" d="M117.99,840.55c0,0.39-1.45,1.11-3.48,1.6c-0.95,0.25-1.92,0.4-2.9,0.44l-0.29-0.85c0.53,0,0.87,0,0.92,0
		c0.05,0-0.15,0.44-0.56,0.75l-0.29-0.85c0.89-0.42,1.82-0.74,2.78-0.97C116.17,840.26,117.89,840.17,117.99,840.55z"/>
	<path class="st2" d="M120.72,859.69c0.15,0.36-1.84,1.48-4.43,2.42c-2.59,0.94-4.84,1.55-4.84,1.19s1.84-1.5,4.43-2.42
		S120.72,859.3,120.72,859.69z"/>
	<path class="st2" d="M105.48,851.2c0.15,0.36-1.19,1.16-2.95,1.77c-1.77,0.6-3.29,0.77-3.41,0.39c-0.12-0.39,1.19-1.16,2.95-1.77
		C103.84,850.98,105.36,850.81,105.48,851.2z"/>
	<path class="st2" d="M106.67,812.27c0,0.39-2.42,0.15-5.06-0.8c-2.64-0.94-4.6-2.2-4.43-2.56c0.17-0.36,2.42,0.29,4.84,1.21
		C104.44,811.04,106.76,811.89,106.67,812.27z"/>
	<path class="st2" d="M143.63,808.04c0.24,0.34-1.06,1.57-2.88,2.78c-1.81,1.21-3.46,1.89-3.7,1.55c-0.24-0.34,1.09-1.57,2.9-2.76
		C141.77,808.43,143.41,807.7,143.63,808.04z"/>
	<path class="st2" d="M145.66,827.25c0,0.39-1.28,0.99-3.05,1.35s-3.27,0.34-3.34,0c-0.07-0.34,1.28-0.99,3.05-1.35
		C144.09,826.89,145.57,826.84,145.66,827.25z"/>
	<path class="st2" d="M147.98,848.83c-0.17,0.36-2.13-0.19-4.38-1.23c-2.25-1.04-3.94-2.18-3.77-2.54c0.17-0.36,2.13,0.19,4.38,1.23
		C146.46,847.33,148.15,848.46,147.98,848.83z"/>
	<path class="st2" d="M143.05,869.78c-0.31,0.24-1.6-0.8-2.85-2.42c-1.26-1.62-2.03-3-1.72-3.24c0.31-0.24,1.57,0.77,2.83,2.42
		C142.57,868.18,143.34,869.58,143.05,869.78z"/>
	<path class="st2" d="M142.03,793.91c0.24,0.29-0.6,1.35-2.03,2.08s-2.81,0.77-2.9,0.39c-0.1-0.39,0.94-1.02,2.25-1.67
		C140.65,794.06,141.79,793.57,142.03,793.91z"/>
	<path class="st2" d="M160.15,813.27c0.15,0.36-1.55,1.28-3.85,1.6s-4.14,0-4.11-0.48c0.02-0.48,1.79-0.63,3.92-0.94
		C158.24,813.12,160.03,812.88,160.15,813.27z"/>
	<path class="st2" d="M156.55,795.87c0.17,0.36-1.5,1.55-3.87,2.3c-2.37,0.75-4.4,0.75-4.45,0.39s1.77-1.04,4.02-1.77
		C154.49,796.07,156.35,795.51,156.55,795.87z"/>
	<path class="st2" d="M164.12,840.19c-2.05,0.61-4.24,0.61-6.29,0c-2.13-0.14-4.18-0.91-5.88-2.2c2.07-0.07,4.14,0.2,6.12,0.8
		C160.15,838.93,162.19,839.4,164.12,840.19z"/>
	<path class="st2" d="M157.37,865.45c-0.24,0.31-2.42-0.92-4.43-3.05s-3.31-4.19-3-4.43c0.31-0.24,2.01,1.38,4.02,3.41
		C155.97,863.41,157.64,865.13,157.37,865.45z"/>
	<path class="st1" d="M127.76,775.43c-4.61,2.8-8.85,6.15-12.63,9.99c-8.81,9.64-14.32,21.83-15.75,34.81
		c-0.66,7.12-0.35,14.3,0.94,21.34c1.01,5.77,2.35,11.48,3.99,17.1c1.38,4.84,2.66,8.68,3.51,11.35c0.51,1.37,0.91,2.78,1.21,4.21
		c-0.7-1.29-1.28-2.63-1.74-4.02c-1.02-2.61-2.42-6.43-3.94-11.25c-1.8-5.63-3.25-11.36-4.33-17.18c-1.4-7.17-1.76-14.5-1.09-21.77
		c1.45-13.27,7.23-25.69,16.45-35.34c2.8-2.87,5.97-5.35,9.43-7.38c0.93-0.55,1.89-1.05,2.88-1.5
		C127.37,775.43,127.74,775.29,127.76,775.43z"/>
	<path class="st1" d="M147.33,875.05c2.44-5.04,4.6-10.21,6.48-15.48c4.34-12.8,5.67-26.42,3.87-39.82
		c-0.98-7.35-3.05-14.5-6.14-21.24c-2.59-5.43-6.14-10.34-10.47-14.51c-3.05-2.7-6.51-4.89-10.26-6.48
		c-2.66-1.11-4.26-1.38-4.23-1.5c0.39-0.07,0.79-0.07,1.19,0c1.11,0.21,2.2,0.5,3.27,0.87c3.91,1.44,7.53,3.55,10.72,6.24
		c4.57,4.19,8.3,9.2,11.01,14.78c3.21,6.84,5.36,14.13,6.36,21.63c1.86,13.6,0.37,27.45-4.33,40.35c-0.82,2.42-1.86,4.62-2.66,6.56
		s-1.69,3.46-2.42,4.84C149.03,872.6,148.24,873.87,147.33,875.05z"/>
	<polygon class="st2" points="91.57,871.64 171.06,871.64 171.55,887.56 91.57,887.56 	"/>
	<polygon class="st2" points="98.32,879.6 102.89,928.17 161,928.17 165.67,880.13 	"/>
	<path class="st3" d="M171.52,887.75c0,0.39-17.9,0.73-39.96,0.73s-39.87-0.34-39.87-0.73c0-0.39,17.9-0.73,39.99-0.73
		S171.52,887.34,171.52,887.75z"/>
	<path class="st3" d="M163.47,902.55c-0.42,1.08-0.99,2.1-1.69,3.02c-1.79,2.63-3.86,5.06-6.17,7.26l-0.36,0.34l-0.36-0.36
		c-4.77-5.01-9.98-9.58-15.58-13.64h0.87l-6.89,6.07l-8.18,7.11l-0.44,0.39l-0.46-0.39l-13.16-11.13h0.77l-6.87,8.37
		c-0.79,1.07-1.69,2.06-2.69,2.95c0.61-1.19,1.36-2.3,2.23-3.31l6.48-8.68l0.31-0.44l0.46,0.34l13.47,10.93h-0.92l8.15-7.14
		l6.92-6.02l0.44-0.39l0.44,0.34c5.64,4.14,10.84,8.86,15.51,14.08h-0.73C158.09,909.24,160.91,906,163.47,902.55z"/>
</g>
</svg>
